<mxfile host="65bd71144e">
    <diagram id="pqozhhQO9mscLjIwM6dE" name="ページ1">
        <mxGraphModel dx="1289" dy="834" grid="1" gridSize="10" guides="1" tooltips="1" connect="1" arrows="1" fold="1" page="1" pageScale="1" pageWidth="1169" pageHeight="827" math="0" shadow="0">
            <root>
                <mxCell id="0"/>
                <mxCell id="1" parent="0"/>
                <mxCell id="-v6juzuHhqZbyULrmQ3K-52" value="" style="whiteSpace=wrap;html=1;aspect=fixed;fontSize=21;fillColor=none;dashed=1;strokeWidth=4;" parent="1" vertex="1">
                    <mxGeometry x="420" y="50" width="710" height="710" as="geometry"/>
                </mxCell>
                <mxCell id="-v6juzuHhqZbyULrmQ3K-54" value="" style="rounded=0;whiteSpace=wrap;html=1;strokeWidth=4;fontSize=28;fillColor=default;strokeColor=none;" parent="1" vertex="1">
                    <mxGeometry x="10" y="10" width="1140" height="790" as="geometry"/>
                </mxCell>
                <mxCell id="-v6juzuHhqZbyULrmQ3K-9" value="" style="group" parent="1" vertex="1" connectable="0">
                    <mxGeometry x="480" y="400" width="160" height="240" as="geometry"/>
                </mxCell>
                <mxCell id="-v6juzuHhqZbyULrmQ3K-3" value="" style="whiteSpace=wrap;html=1;aspect=fixed;" parent="-v6juzuHhqZbyULrmQ3K-9" vertex="1">
                    <mxGeometry y="40" width="160" height="160" as="geometry"/>
                </mxCell>
                <mxCell id="-v6juzuHhqZbyULrmQ3K-2" value="GraphQLサーバ&lt;br&gt;(FastAPI + Strawberry)" style="rounded=0;whiteSpace=wrap;html=1;" parent="-v6juzuHhqZbyULrmQ3K-9" vertex="1">
                    <mxGeometry y="200" width="160" height="40" as="geometry"/>
                </mxCell>
                <mxCell id="-v6juzuHhqZbyULrmQ3K-7" style="shape=image;editableCssRules=.*;image=data:image/svg+xml,PHN2ZyB2aWV3Qm94PSIwIDAgMjQgMjQiIHhtbG5zPSJodHRwOi8vd3d3LnczLm9yZy8yMDAwL3N2ZyI+PHN0eWxlPip7ZmlsbDojMDA5Njg4fTwvc3R5bGU+PHBhdGggZD0iTTEyIDBDNS4zNzUgMCAwIDUuMzc1IDAgMTJjMCA2LjYyNyA1LjM3NSAxMiAxMiAxMiA2LjYyNiAwIDEyLTUuMzczIDEyLTEyIDAtNi42MjUtNS4zNzMtMTItMTItMTJ6bS0uNjI0IDIxLjYydi03LjUyOEg3LjE5TDEzLjIwMyAyLjM4djcuNTI4aDQuMDI5TDExLjM3NiAyMS42MnoiLz48L3N2Zz4=;" parent="-v6juzuHhqZbyULrmQ3K-9" vertex="1">
                    <mxGeometry x="40" y="80" width="80" height="80" as="geometry"/>
                </mxCell>
                <mxCell id="-v6juzuHhqZbyULrmQ3K-8" value="&lt;font style=&quot;font-size: 21px;&quot;&gt;BFF&lt;/font&gt;" style="rounded=0;whiteSpace=wrap;html=1;fillColor=none;strokeColor=none;" parent="-v6juzuHhqZbyULrmQ3K-9" vertex="1">
                    <mxGeometry width="160" height="40" as="geometry"/>
                </mxCell>
                <mxCell id="-v6juzuHhqZbyULrmQ3K-18" value="" style="group" parent="1" vertex="1" connectable="0">
                    <mxGeometry x="200" y="400" width="160" height="240" as="geometry"/>
                </mxCell>
                <mxCell id="-v6juzuHhqZbyULrmQ3K-17" value="&lt;font style=&quot;font-size: 21px;&quot;&gt;&lt;b&gt;サーバーサイド&lt;/b&gt;&lt;/font&gt;" style="rounded=0;whiteSpace=wrap;html=1;fillColor=none;strokeColor=none;" parent="-v6juzuHhqZbyULrmQ3K-18" vertex="1">
                    <mxGeometry width="160" height="40" as="geometry"/>
                </mxCell>
                <mxCell id="-v6juzuHhqZbyULrmQ3K-11" value="" style="whiteSpace=wrap;html=1;aspect=fixed;fontSize=28;fillColor=default;" parent="-v6juzuHhqZbyULrmQ3K-18" vertex="1">
                    <mxGeometry y="40" width="160" height="160" as="geometry"/>
                </mxCell>
                <mxCell id="-v6juzuHhqZbyULrmQ3K-12" style="shape=image;editableCssRules=.*;image=data:image/svg+xml,PHN2ZyB2aWV3Qm94PSIwIDAgMjQgMjQiIHhtbG5zPSJodHRwOi8vd3d3LnczLm9yZy8yMDAwL3N2ZyI+PHN0eWxlPip7ZmlsbDojMDAwfTwvc3R5bGU+PHBhdGggZD0iTTIzLjgzNDYgMTEuNzAzM2wtMS4wMDczLS42MjM2YTEzLjcyNjggMTMuNzI2OCAwIDAwLS4wMjgzLS4yOTM2bC44NjU2LS44MDY5YS4zNDgzLjM0ODMgMCAwMC0uMTE1NC0uNTc4bC0xLjEwNjYtLjQxNGE4LjQ5NTggOC40OTU4IDAgMDAtLjA4Ny0uMjg1NmwuNjkwNC0uOTU4N2EuMzQ2Mi4zNDYyIDAgMDAtLjIyNTctLjU0NDZsLTEuMTY2My0uMTg5NGE5LjM1NzQgOS4zNTc0IDAgMDAtLjE0MDctLjI2MjJsLjQ5LTEuMDc2MWEuMzQzNy4zNDM3IDAgMDAtLjAyNzQtLjMzNjEuMzQ4Ni4zNDg2IDAgMDAtLjMwMDYtLjE1NGwtMS4xODQ1LjA0MTZhNi43NDQ0IDYuNzQ0NCAwIDAwLS4xODczLS4yMjY4bC4yNzIzLTEuMTUzYS4zNDcyLjM0NzIgMCAwMC0uNDE3LS40MTcybC0xLjE1MzIuMjcyNGExNC4wMTgzIDE0LjAxODMgMCAwMC0uMjI3OC0uMTg3M2wuMDQxNS0xLjE4NDVhLjM0NDIuMzQ0MiAwIDAwLS40OS0uMzI4bC0xLjA3Ni40OTFjLS4wODcyLS4wNDc2LS4xNzQyLS4wOTUyLS4yNjIzLS4xNDA3bC0uMTkwMy0xLjE2NzNBLjM0ODMuMzQ4MyAwIDAwMTYuMjU2Ljk1NWwtLjk1OTcuNjkwNWE4LjQ4NjcgOC40ODY3IDAgMDAtLjI4NTUtLjA4NmwtLjQxNC0xLjEwNjZhLjM0ODMuMzQ4MyAwIDAwLS41NzgxLS4xMTU0bC0uODA2OS44NjY2YTkuMjkzNiA5LjI5MzYgMCAwMC0uMjkzNi0uMDI4NEwxMi4yOTQ2LjE2ODNhLjM0NjIuMzQ2MiAwIDAwLS41ODkyIDBsLS42MjM2IDEuMDA3M2ExMy43MzgzIDEzLjczODMgMCAwMC0uMjkzNi4wMjg0TDkuOTgwMy4zMzc0YS4zNDYyLjM0NjIgMCAwMC0uNTc4LjExNTRsLS40MTQxIDEuMTA2NWMtLjA5NjIuMDI3NC0uMTkwMy4wNTY3LS4yODU1LjA4Nkw3Ljc0NC45NTVhLjM0ODMuMzQ4MyAwIDAwLS41NDQ3LjIyNThMNy4wMDkgMi4zNDhhOS4zNTc0IDkuMzU3NCAwIDAwLS4yNjIyLjE0MDdsLTEuMDc2Mi0uNDkxYS4zNDYyLjM0NjIgMCAwMC0uNDkuMzI4bC4wNDE2IDEuMTg0NWE3Ljk4MjYgNy45ODI2IDAgMDAtLjIyNzguMTg3M0wzLjg0MTMgMy40MjVhLjM0NzIuMzQ3MiAwIDAwLS40MTcxLjQxNzFsLjI3MTMgMS4xNTMxYy0uMDYyOC4wNzUtLjEyNTUuMTUwOS0uMTg2My4yMjY4bC0xLjE4NDUtLjA0MTVhLjM0NjIuMzQ2MiAwIDAwLS4zMjguNDlsLjQ5MSAxLjA3NjFhOS4xNjcgOS4xNjcgMCAwMC0uMTQwNy4yNjIybC0xLjE2NjIuMTg5NGEuMzQ4My4zNDgzIDAgMDAtLjIyNTguNTQ0NmwuNjkwNC45NTg3YTEzLjMwMyAxMy4zMDMgMCAwMC0uMDg3LjI4NTVsLTEuMTA2NS40MTRhLjM0ODMuMzQ4MyAwIDAwLS4xMTU1LjU3ODFsLjg2NTYuODA3YTkuMjkzNiA5LjI5MzYgMCAwMC0uMDI4My4yOTM1bC0xLjAwNzMuNjIzNmEuMzQ0Mi4zNDQyIDAgMDAwIC41ODkybDEuMDA3My42MjM2Yy4wMDguMDk4Mi4wMTgyLjE5NjQuMDI4My4yOTM2bC0uODY1Ni44MDc5YS4zNDYyLjM0NjIgMCAwMC4xMTU1LjU3OGwxLjEwNjUuNDE0MWMuMDI3My4wOTYyLjA1NjcuMTkxNC4wODcuMjg1NWwtLjY5MDQuOTU4N2EuMzQ1Mi4zNDUyIDAgMDAuMjI2OC41NDQ3bDEuMTY2Mi4xODkzYy4wNDU2LjA4OC4wOTIyLjE3NTEuMTQwOC4yNjIybC0uNDkxIDEuMDc2MmEuMzQ2Mi4zNDYyIDAgMDAuMzI4LjQ5bDEuMTgzNC0uMDQxNWMuMDYxOC4wNzY5LjEyMzUuMTUyOC4xODczLjIyNzdsLS4yNzEzIDEuMTU0MWEuMzQ2Mi4zNDYyIDAgMDAuNDE3MS40MTYxbDEuMTUzLS4yNzEzYy4wNzUuMDYzOC4xNTEuMTI1NS4yMjc5LjE4NjNsLS4wNDE1IDEuMTg0NWEuMzQ0Mi4zNDQyIDAgMDAuNDkuMzI3bDEuMDc2MS0uNDljLjA4Ny4wNDg2LjE3NDEuMDk1MS4yNjIyLjE0MDdsLjE5MDMgMS4xNjYyYS4zNDgzLjM0ODMgMCAwMC41NDQ3LjIyNjhsLjk1ODctLjY5MDRhOS4yOTkgOS4yOTkgMCAwMC4yODU1LjA4N2wuNDE0IDEuMTA2NmEuMzQ1Mi4zNDUyIDAgMDAuNTc4MS4xMTU0bC44MDc5LS44NjU2Yy4wOTcyLjAxMTEuMTk1NC4wMjAzLjI5MzYuMDI5NGwuNjIzNiAxLjAwNzNhLjM0NzIuMzQ3MiAwIDAwLjU4OTIgMGwuNjIzNi0xLjAwNzNjLjA5ODItLjAwOTEuMTk2NC0uMDE4My4yOTM2LS4wMjk0bC44MDY5Ljg2NTZhLjM0ODMuMzQ4MyAwIDAwLjU3OC0uMTE1NGwuNDE0MS0xLjEwNjZhOC40NjI2IDguNDYyNiAwIDAwLjI4NTUtLjA4N2wuOTU4Ny42OTA0YS4zNDUyLjM0NTIgMCAwMC41NDQ3LS4yMjY4bC4xOTAzLTEuMTY2MmMuMDg4LS4wNDU2LjE3NTEtLjA5MzEuMjYyMi0uMTQwN2wxLjA3NjIuNDlhLjM0NzIuMzQ3MiAwIDAwLjQ5LS4zMjdsLS4wNDE1LTEuMTg0NWE2LjcyNjcgNi43MjY3IDAgMDAuMjI2Ny0uMTg2M2wxLjE1MzEuMjcxM2EuMzQ3Mi4zNDcyIDAgMDAuNDE3MS0uNDE2bC0uMjcxMy0xLjE1NDJjLjA2MjgtLjA3NDkuMTI1NS0uMTUwOC4xODYzLS4yMjc4bDEuMTg0NS4wNDE1YS4zNDQyLjM0NDIgMCAwMC4zMjgtLjQ5bC0uNDktMS4wNzZjLjA0NzUtLjA4NzIuMDk1MS0uMTc0Mi4xNDA3LS4yNjIzbDEuMTY2Mi0uMTg5M2EuMzQ4My4zNDgzIDAgMDAuMjI1OC0uNTQ0N2wtLjY5MDQtLjk1ODcuMDg3LS4yODU1IDEuMTA2Ni0uNDE0YS4zNDYyLjM0NjIgMCAwMC4xMTU0LS41NzgxbC0uODY1Ni0uODA3OWMuMDEwMS0uMDk3Mi4wMjAyLS4xOTU0LjAyODMtLjI5MzZsMS4wMDczLS42MjM2YS4zNDQyLjM0NDIgMCAwMDAtLjU4OTJ6bS02Ljc0MTMgOC4zNTUxYS43MTM4LjcxMzggMCAwMS4yOTg2LTEuMzk2LjcxNC43MTQgMCAxMS0uMjk5NyAxLjM5NnptLS4zNDIyLTIuMzE0MmEuNjQ5LjY0OSAwIDAwLS43NzE1LjVsLS4zNTczIDEuNjY4NWMtMS4xMDM1LjUwMS0yLjMyODUuNzc5NS0zLjYxOTMuNzc5NWE4LjczNjggOC43MzY4IDAgMDEtMy42OTUxLS44MTRsLS4zNTc0LTEuNjY4NGEuNjQ4LjY0OCAwIDAwLS43NzE0LS40OTlsLTEuNDczLjMxNThhOC43MjE2IDguNzIxNiAwIDAxLS43NjEzLS44OThoNy4xNjc2Yy4wODEgMCAuMTM1Ni0uMDE0MS4xMzU2LS4wODh2LTIuNTM2YzAtLjA3NC0uMDUzNi0uMDg4MS0uMTM1Ni0uMDg4MWgtMi4wOTY2di0xLjYwNzdoMi4yNjc3Yy4yMDY1IDAgMS4xMDY1LjA1ODcgMS4zOTQgMS4yMDg4LjA5MDEuMzUzMy4yODc1IDEuNTA0NC40MjMyIDEuODcyOS4xMzQ2LjQxMy42ODMzIDEuMjM4MSAxLjI2ODUgMS4yMzgxaDMuNTcxNmEuNzQ5Mi43NDkyIDAgMDAuMTI5Ni0uMDEzMSA4Ljc4NzQgOC43ODc0IDAgMDEtLjgxMTkuOTUyNnpNNi44MzY5IDIwLjAyNGEuNzE0LjcxNCAwIDExLS4yOTk3LTEuMzk2LjcxNC43MTQgMCAwMS4yOTk3IDEuMzk2ek00LjExNzcgOC45OTcyYS43MTM3LjcxMzcgMCAxMS0xLjMwNC41NzkxLjcxMzcuNzEzNyAwIDAxMS4zMDQtLjU3OXptLS44MzUyIDEuOTgxM2wxLjUzNDctLjY4MjRhLjY1LjY1IDAgMDAuMzMtLjg1ODVsLS4zMTU4LS43MTQ3aDEuMjQzMnY1LjYwMjVIMy41NjY5YTguNzc1MyA4Ljc3NTMgMCAwMS0uMjgzNC0zLjM0OHptNi43MzQzLS41NDM3VjguNzgzNmgyLjk2MDFjLjE1MyAwIDEuMDc5Mi4xNzcyIDEuMDc5Mi44Njk3IDAgLjU3NS0uNzEwNy43ODE1LTEuMjk0OC43ODE1em0xMC43NTc0IDEuNDg2MmMwIC4yMTg3LS4wMDguNDM2My0uMDI0My42NTFoLS45Yy0uMDkgMC0uMTI2NS4wNTg2LS4xMjY1LjE0Nzd2LjQxM2MwIC45NzMtLjU0ODcgMS4xODQ2LTEuMDI5NiAxLjIzODItLjQ1NzYuMDUxNy0uOTY0OC0uMTkxMy0xLjAyNzUtLjQ3MTctLjI3MDQtMS41MTg2LS43MTk4LTEuODQzNi0xLjQzMDUtMi40MDM0Ljg4MTctLjU1OTkgMS43OTktMS4zODYgMS43OTktMi40OTE1IDAtMS4xOTM2LS44MTktMS45NDU4LTEuMzc2OS0yLjMxNTMtLjc4MjUtLjUxNjMtMS42NDkxLS42MTk1LTEuODgzLS42MTk1SDUuNDY4MmE4Ljc2NTEgOC43NjUxIDAgMDE0LjkwNy0yLjc2OTlsMS4wOTc0IDEuMTUxYS42NDguNjQ4IDAgMDAuOTE4Mi4wMjEzbDEuMjI3LTEuMTc0M2E4Ljc3NTMgOC43NzUzIDAgMDE2LjAwNDQgNC4yNzYybC0uODQwMyAxLjg5ODJhLjY1Mi42NTIgMCAwMC4zMy44NTg1bDEuNjE3OC43MTg4Yy4wMjgzLjI4NzUuMDQyNS41NzcuMDQyNS44NzE3em0tOS4zMDA2LTkuNTk5M2EuNzEyOC43MTI4IDAgMTEuOTg0IDEuMDMxNi43MTM3LjcxMzcgMCAwMS0uOTg0LTEuMDMxNnptOC4zMzg5IDYuNzFhLjcxMDcuNzEwNyAwIDAxLjkzOTUtLjM2MjUuNzEzNy43MTM3IDAgMTEtLjk0MDUuMzYzNXoiLz48L3N2Zz4=;fontSize=28;fillColor=default;" parent="-v6juzuHhqZbyULrmQ3K-18" vertex="1">
                    <mxGeometry x="8" y="48" width="144" height="144" as="geometry"/>
                </mxCell>
                <mxCell id="-v6juzuHhqZbyULrmQ3K-14" value="Appサーバ&lt;br&gt;(Actix Web)" style="rounded=0;whiteSpace=wrap;html=1;" parent="-v6juzuHhqZbyULrmQ3K-18" vertex="1">
                    <mxGeometry y="200" width="160" height="40" as="geometry"/>
                </mxCell>
                <mxCell id="-v6juzuHhqZbyULrmQ3K-23" value="" style="group" parent="1" vertex="1" connectable="0">
                    <mxGeometry x="200" y="40" width="160" height="240" as="geometry"/>
                </mxCell>
                <mxCell id="-v6juzuHhqZbyULrmQ3K-19" value="" style="whiteSpace=wrap;html=1;aspect=fixed;fontSize=21;fillColor=default;" parent="-v6juzuHhqZbyULrmQ3K-23" vertex="1">
                    <mxGeometry y="40" width="160" height="160" as="geometry"/>
                </mxCell>
                <mxCell id="-v6juzuHhqZbyULrmQ3K-21" value="View&lt;br&gt;(Tera)" style="rounded=0;whiteSpace=wrap;html=1;" parent="-v6juzuHhqZbyULrmQ3K-23" vertex="1">
                    <mxGeometry y="200" width="160" height="40" as="geometry"/>
                </mxCell>
                <mxCell id="-v6juzuHhqZbyULrmQ3K-22" value="&lt;font style=&quot;font-size: 21px;&quot;&gt;&lt;b&gt;フロントエンド&lt;/b&gt;&lt;/font&gt;" style="rounded=0;whiteSpace=wrap;html=1;fillColor=none;strokeColor=none;" parent="-v6juzuHhqZbyULrmQ3K-23" vertex="1">
                    <mxGeometry width="160" height="40" as="geometry"/>
                </mxCell>
                <mxCell id="2" style="shape=image;editableCssRules=.*;image=data:image/svg+xml,PHN2ZyB2aWV3Qm94PSIwIDAgMjQgMjQiIHhtbG5zPSJodHRwOi8vd3d3LnczLm9yZy8yMDAwL3N2ZyI+PHN0eWxlPip7ZmlsbDojMDAwfTwvc3R5bGU+PHBhdGggZD0iTTIzLjgzNDYgMTEuNzAzM2wtMS4wMDczLS42MjM2YTEzLjcyNjggMTMuNzI2OCAwIDAwLS4wMjgzLS4yOTM2bC44NjU2LS44MDY5YS4zNDgzLjM0ODMgMCAwMC0uMTE1NC0uNTc4bC0xLjEwNjYtLjQxNGE4LjQ5NTggOC40OTU4IDAgMDAtLjA4Ny0uMjg1NmwuNjkwNC0uOTU4N2EuMzQ2Mi4zNDYyIDAgMDAtLjIyNTctLjU0NDZsLTEuMTY2My0uMTg5NGE5LjM1NzQgOS4zNTc0IDAgMDAtLjE0MDctLjI2MjJsLjQ5LTEuMDc2MWEuMzQzNy4zNDM3IDAgMDAtLjAyNzQtLjMzNjEuMzQ4Ni4zNDg2IDAgMDAtLjMwMDYtLjE1NGwtMS4xODQ1LjA0MTZhNi43NDQ0IDYuNzQ0NCAwIDAwLS4xODczLS4yMjY4bC4yNzIzLTEuMTUzYS4zNDcyLjM0NzIgMCAwMC0uNDE3LS40MTcybC0xLjE1MzIuMjcyNGExNC4wMTgzIDE0LjAxODMgMCAwMC0uMjI3OC0uMTg3M2wuMDQxNS0xLjE4NDVhLjM0NDIuMzQ0MiAwIDAwLS40OS0uMzI4bC0xLjA3Ni40OTFjLS4wODcyLS4wNDc2LS4xNzQyLS4wOTUyLS4yNjIzLS4xNDA3bC0uMTkwMy0xLjE2NzNBLjM0ODMuMzQ4MyAwIDAwMTYuMjU2Ljk1NWwtLjk1OTcuNjkwNWE4LjQ4NjcgOC40ODY3IDAgMDAtLjI4NTUtLjA4NmwtLjQxNC0xLjEwNjZhLjM0ODMuMzQ4MyAwIDAwLS41NzgxLS4xMTU0bC0uODA2OS44NjY2YTkuMjkzNiA5LjI5MzYgMCAwMC0uMjkzNi0uMDI4NEwxMi4yOTQ2LjE2ODNhLjM0NjIuMzQ2MiAwIDAwLS41ODkyIDBsLS42MjM2IDEuMDA3M2ExMy43MzgzIDEzLjczODMgMCAwMC0uMjkzNi4wMjg0TDkuOTgwMy4zMzc0YS4zNDYyLjM0NjIgMCAwMC0uNTc4LjExNTRsLS40MTQxIDEuMTA2NWMtLjA5NjIuMDI3NC0uMTkwMy4wNTY3LS4yODU1LjA4Nkw3Ljc0NC45NTVhLjM0ODMuMzQ4MyAwIDAwLS41NDQ3LjIyNThMNy4wMDkgMi4zNDhhOS4zNTc0IDkuMzU3NCAwIDAwLS4yNjIyLjE0MDdsLTEuMDc2Mi0uNDkxYS4zNDYyLjM0NjIgMCAwMC0uNDkuMzI4bC4wNDE2IDEuMTg0NWE3Ljk4MjYgNy45ODI2IDAgMDAtLjIyNzguMTg3M0wzLjg0MTMgMy40MjVhLjM0NzIuMzQ3MiAwIDAwLS40MTcxLjQxNzFsLjI3MTMgMS4xNTMxYy0uMDYyOC4wNzUtLjEyNTUuMTUwOS0uMTg2My4yMjY4bC0xLjE4NDUtLjA0MTVhLjM0NjIuMzQ2MiAwIDAwLS4zMjguNDlsLjQ5MSAxLjA3NjFhOS4xNjcgOS4xNjcgMCAwMC0uMTQwNy4yNjIybC0xLjE2NjIuMTg5NGEuMzQ4My4zNDgzIDAgMDAtLjIyNTguNTQ0NmwuNjkwNC45NTg3YTEzLjMwMyAxMy4zMDMgMCAwMC0uMDg3LjI4NTVsLTEuMTA2NS40MTRhLjM0ODMuMzQ4MyAwIDAwLS4xMTU1LjU3ODFsLjg2NTYuODA3YTkuMjkzNiA5LjI5MzYgMCAwMC0uMDI4My4yOTM1bC0xLjAwNzMuNjIzNmEuMzQ0Mi4zNDQyIDAgMDAwIC41ODkybDEuMDA3My42MjM2Yy4wMDguMDk4Mi4wMTgyLjE5NjQuMDI4My4yOTM2bC0uODY1Ni44MDc5YS4zNDYyLjM0NjIgMCAwMC4xMTU1LjU3OGwxLjEwNjUuNDE0MWMuMDI3My4wOTYyLjA1NjcuMTkxNC4wODcuMjg1NWwtLjY5MDQuOTU4N2EuMzQ1Mi4zNDUyIDAgMDAuMjI2OC41NDQ3bDEuMTY2Mi4xODkzYy4wNDU2LjA4OC4wOTIyLjE3NTEuMTQwOC4yNjIybC0uNDkxIDEuMDc2MmEuMzQ2Mi4zNDYyIDAgMDAuMzI4LjQ5bDEuMTgzNC0uMDQxNWMuMDYxOC4wNzY5LjEyMzUuMTUyOC4xODczLjIyNzdsLS4yNzEzIDEuMTU0MWEuMzQ2Mi4zNDYyIDAgMDAuNDE3MS40MTYxbDEuMTUzLS4yNzEzYy4wNzUuMDYzOC4xNTEuMTI1NS4yMjc5LjE4NjNsLS4wNDE1IDEuMTg0NWEuMzQ0Mi4zNDQyIDAgMDAuNDkuMzI3bDEuMDc2MS0uNDljLjA4Ny4wNDg2LjE3NDEuMDk1MS4yNjIyLjE0MDdsLjE5MDMgMS4xNjYyYS4zNDgzLjM0ODMgMCAwMC41NDQ3LjIyNjhsLjk1ODctLjY5MDRhOS4yOTkgOS4yOTkgMCAwMC4yODU1LjA4N2wuNDE0IDEuMTA2NmEuMzQ1Mi4zNDUyIDAgMDAuNTc4MS4xMTU0bC44MDc5LS44NjU2Yy4wOTcyLjAxMTEuMTk1NC4wMjAzLjI5MzYuMDI5NGwuNjIzNiAxLjAwNzNhLjM0NzIuMzQ3MiAwIDAwLjU4OTIgMGwuNjIzNi0xLjAwNzNjLjA5ODItLjAwOTEuMTk2NC0uMDE4My4yOTM2LS4wMjk0bC44MDY5Ljg2NTZhLjM0ODMuMzQ4MyAwIDAwLjU3OC0uMTE1NGwuNDE0MS0xLjEwNjZhOC40NjI2IDguNDYyNiAwIDAwLjI4NTUtLjA4N2wuOTU4Ny42OTA0YS4zNDUyLjM0NTIgMCAwMC41NDQ3LS4yMjY4bC4xOTAzLTEuMTY2MmMuMDg4LS4wNDU2LjE3NTEtLjA5MzEuMjYyMi0uMTQwN2wxLjA3NjIuNDlhLjM0NzIuMzQ3MiAwIDAwLjQ5LS4zMjdsLS4wNDE1LTEuMTg0NWE2LjcyNjcgNi43MjY3IDAgMDAuMjI2Ny0uMTg2M2wxLjE1MzEuMjcxM2EuMzQ3Mi4zNDcyIDAgMDAuNDE3MS0uNDE2bC0uMjcxMy0xLjE1NDJjLjA2MjgtLjA3NDkuMTI1NS0uMTUwOC4xODYzLS4yMjc4bDEuMTg0NS4wNDE1YS4zNDQyLjM0NDIgMCAwMC4zMjgtLjQ5bC0uNDktMS4wNzZjLjA0NzUtLjA4NzIuMDk1MS0uMTc0Mi4xNDA3LS4yNjIzbDEuMTY2Mi0uMTg5M2EuMzQ4My4zNDgzIDAgMDAuMjI1OC0uNTQ0N2wtLjY5MDQtLjk1ODcuMDg3LS4yODU1IDEuMTA2Ni0uNDE0YS4zNDYyLjM0NjIgMCAwMC4xMTU0LS41NzgxbC0uODY1Ni0uODA3OWMuMDEwMS0uMDk3Mi4wMjAyLS4xOTU0LjAyODMtLjI5MzZsMS4wMDczLS42MjM2YS4zNDQyLjM0NDIgMCAwMDAtLjU4OTJ6bS02Ljc0MTMgOC4zNTUxYS43MTM4LjcxMzggMCAwMS4yOTg2LTEuMzk2LjcxNC43MTQgMCAxMS0uMjk5NyAxLjM5NnptLS4zNDIyLTIuMzE0MmEuNjQ5LjY0OSAwIDAwLS43NzE1LjVsLS4zNTczIDEuNjY4NWMtMS4xMDM1LjUwMS0yLjMyODUuNzc5NS0zLjYxOTMuNzc5NWE4LjczNjggOC43MzY4IDAgMDEtMy42OTUxLS44MTRsLS4zNTc0LTEuNjY4NGEuNjQ4LjY0OCAwIDAwLS43NzE0LS40OTlsLTEuNDczLjMxNThhOC43MjE2IDguNzIxNiAwIDAxLS43NjEzLS44OThoNy4xNjc2Yy4wODEgMCAuMTM1Ni0uMDE0MS4xMzU2LS4wODh2LTIuNTM2YzAtLjA3NC0uMDUzNi0uMDg4MS0uMTM1Ni0uMDg4MWgtMi4wOTY2di0xLjYwNzdoMi4yNjc3Yy4yMDY1IDAgMS4xMDY1LjA1ODcgMS4zOTQgMS4yMDg4LjA5MDEuMzUzMy4yODc1IDEuNTA0NC40MjMyIDEuODcyOS4xMzQ2LjQxMy42ODMzIDEuMjM4MSAxLjI2ODUgMS4yMzgxaDMuNTcxNmEuNzQ5Mi43NDkyIDAgMDAuMTI5Ni0uMDEzMSA4Ljc4NzQgOC43ODc0IDAgMDEtLjgxMTkuOTUyNnpNNi44MzY5IDIwLjAyNGEuNzE0LjcxNCAwIDExLS4yOTk3LTEuMzk2LjcxNC43MTQgMCAwMS4yOTk3IDEuMzk2ek00LjExNzcgOC45OTcyYS43MTM3LjcxMzcgMCAxMS0xLjMwNC41NzkxLjcxMzcuNzEzNyAwIDAxMS4zMDQtLjU3OXptLS44MzUyIDEuOTgxM2wxLjUzNDctLjY4MjRhLjY1LjY1IDAgMDAuMzMtLjg1ODVsLS4zMTU4LS43MTQ3aDEuMjQzMnY1LjYwMjVIMy41NjY5YTguNzc1MyA4Ljc3NTMgMCAwMS0uMjgzNC0zLjM0OHptNi43MzQzLS41NDM3VjguNzgzNmgyLjk2MDFjLjE1MyAwIDEuMDc5Mi4xNzcyIDEuMDc5Mi44Njk3IDAgLjU3NS0uNzEwNy43ODE1LTEuMjk0OC43ODE1em0xMC43NTc0IDEuNDg2MmMwIC4yMTg3LS4wMDguNDM2My0uMDI0My42NTFoLS45Yy0uMDkgMC0uMTI2NS4wNTg2LS4xMjY1LjE0Nzd2LjQxM2MwIC45NzMtLjU0ODcgMS4xODQ2LTEuMDI5NiAxLjIzODItLjQ1NzYuMDUxNy0uOTY0OC0uMTkxMy0xLjAyNzUtLjQ3MTctLjI3MDQtMS41MTg2LS43MTk4LTEuODQzNi0xLjQzMDUtMi40MDM0Ljg4MTctLjU1OTkgMS43OTktMS4zODYgMS43OTktMi40OTE1IDAtMS4xOTM2LS44MTktMS45NDU4LTEuMzc2OS0yLjMxNTMtLjc4MjUtLjUxNjMtMS42NDkxLS42MTk1LTEuODgzLS42MTk1SDUuNDY4MmE4Ljc2NTEgOC43NjUxIDAgMDE0LjkwNy0yLjc2OTlsMS4wOTc0IDEuMTUxYS42NDguNjQ4IDAgMDAuOTE4Mi4wMjEzbDEuMjI3LTEuMTc0M2E4Ljc3NTMgOC43NzUzIDAgMDE2LjAwNDQgNC4yNzYybC0uODQwMyAxLjg5ODJhLjY1Mi42NTIgMCAwMC4zMy44NTg1bDEuNjE3OC43MTg4Yy4wMjgzLjI4NzUuMDQyNS41NzcuMDQyNS44NzE3em0tOS4zMDA2LTkuNTk5M2EuNzEyOC43MTI4IDAgMTEuOTg0IDEuMDMxNi43MTM3LjcxMzcgMCAwMS0uOTg0LTEuMDMxNnptOC4zMzg5IDYuNzFhLjcxMDcuNzEwNyAwIDAxLjkzOTUtLjM2MjUuNzEzNy43MTM3IDAgMTEtLjk0MDUuMzYzNXoiLz48L3N2Zz4=;fontSize=28;fillColor=default;" parent="-v6juzuHhqZbyULrmQ3K-23" vertex="1">
                    <mxGeometry x="8" y="48" width="144" height="144" as="geometry"/>
                </mxCell>
                <mxCell id="-v6juzuHhqZbyULrmQ3K-26" value="Client" style="shape=umlActor;verticalLabelPosition=bottom;verticalAlign=top;html=1;outlineConnect=0;fontSize=21;fillColor=default;" parent="1" vertex="1">
                    <mxGeometry x="20" y="465" width="55" height="110" as="geometry"/>
                </mxCell>
                <mxCell id="-v6juzuHhqZbyULrmQ3K-28" value="" style="endArrow=classic;startArrow=classic;html=1;rounded=0;fontSize=21;strokeWidth=5;exitX=0.5;exitY=0;exitDx=0;exitDy=0;" parent="1" source="-v6juzuHhqZbyULrmQ3K-17" edge="1">
                    <mxGeometry width="50" height="50" relative="1" as="geometry">
                        <mxPoint x="280" y="350" as="sourcePoint"/>
                        <mxPoint x="280" y="280" as="targetPoint"/>
                    </mxGeometry>
                </mxCell>
                <mxCell id="-v6juzuHhqZbyULrmQ3K-29" value="" style="endArrow=classic;startArrow=classic;html=1;rounded=0;fontSize=21;strokeWidth=5;entryX=0;entryY=0.5;entryDx=0;entryDy=0;" parent="1" target="-v6juzuHhqZbyULrmQ3K-11" edge="1">
                    <mxGeometry width="50" height="50" relative="1" as="geometry">
                        <mxPoint x="80" y="520" as="sourcePoint"/>
                        <mxPoint x="129.9999999999999" y="430" as="targetPoint"/>
                    </mxGeometry>
                </mxCell>
                <mxCell id="-v6juzuHhqZbyULrmQ3K-30" value="" style="endArrow=classic;startArrow=classic;html=1;rounded=0;fontSize=21;strokeWidth=5;entryX=0;entryY=0.5;entryDx=0;entryDy=0;" parent="1" edge="1">
                    <mxGeometry width="50" height="50" relative="1" as="geometry">
                        <mxPoint x="360" y="519.29" as="sourcePoint"/>
                        <mxPoint x="480" y="519.29" as="targetPoint"/>
                    </mxGeometry>
                </mxCell>
                <mxCell id="-v6juzuHhqZbyULrmQ3K-36" value="" style="group" parent="1" vertex="1" connectable="0">
                    <mxGeometry x="840" y="80" width="120" height="160" as="geometry"/>
                </mxCell>
                <mxCell id="-v6juzuHhqZbyULrmQ3K-32" value="" style="whiteSpace=wrap;html=1;aspect=fixed;fontSize=21;fillColor=default;" parent="-v6juzuHhqZbyULrmQ3K-36" vertex="1">
                    <mxGeometry width="120" height="120" as="geometry"/>
                </mxCell>
                <mxCell id="-v6juzuHhqZbyULrmQ3K-33" value="" style="dashed=0;outlineConnect=0;html=1;align=center;labelPosition=center;verticalLabelPosition=bottom;verticalAlign=top;shape=mxgraph.weblogos.twitter;fillColor=#1DA1F2;strokeColor=none;fontSize=21;" parent="-v6juzuHhqZbyULrmQ3K-36" vertex="1">
                    <mxGeometry x="15" y="15" width="90" height="90" as="geometry"/>
                </mxCell>
                <mxCell id="-v6juzuHhqZbyULrmQ3K-35" value="Twitter API" style="rounded=0;whiteSpace=wrap;html=1;" parent="-v6juzuHhqZbyULrmQ3K-36" vertex="1">
                    <mxGeometry y="120" width="120" height="40" as="geometry"/>
                </mxCell>
                <mxCell id="-v6juzuHhqZbyULrmQ3K-37" value="" style="group" parent="1" vertex="1" connectable="0">
                    <mxGeometry x="840" y="320" width="120" height="160" as="geometry"/>
                </mxCell>
                <mxCell id="-v6juzuHhqZbyULrmQ3K-38" value="" style="whiteSpace=wrap;html=1;aspect=fixed;fontSize=21;fillColor=default;" parent="-v6juzuHhqZbyULrmQ3K-37" vertex="1">
                    <mxGeometry width="120" height="120" as="geometry"/>
                </mxCell>
                <mxCell id="-v6juzuHhqZbyULrmQ3K-40" value="spotify API" style="rounded=0;whiteSpace=wrap;html=1;" parent="-v6juzuHhqZbyULrmQ3K-37" vertex="1">
                    <mxGeometry y="120" width="120" height="40" as="geometry"/>
                </mxCell>
                <mxCell id="-v6juzuHhqZbyULrmQ3K-42" style="shape=image;editableCssRules=.*;image=data:image/svg+xml,PHN2ZyB2aWV3Qm94PSIwIDAgMjQgMjQiIHhtbG5zPSJodHRwOi8vd3d3LnczLm9yZy8yMDAwL3N2ZyI+PHN0eWxlPip7ZmlsbDojMURCOTU0fTwvc3R5bGU+PHBhdGggZD0iTTEyIDBDNS40IDAgMCA1LjQgMCAxMnM1LjQgMTIgMTIgMTIgMTItNS40IDEyLTEyUzE4LjY2IDAgMTIgMHptNS41MjEgMTcuMzRjLS4yNC4zNTktLjY2LjQ4LTEuMDIxLjI0LTIuODItMS43NC02LjM2LTIuMTAxLTEwLjU2MS0xLjE0MS0uNDE4LjEyMi0uNzc5LS4xNzktLjg5OS0uNTM5LS4xMi0uNDIxLjE4LS43OC41NC0uOSA0LjU2LTEuMDIxIDguNTItLjYgMTEuNjQgMS4zMi40Mi4xOC40NzkuNjU5LjMwMSAxLjAyem0xLjQ0LTMuM2MtLjMwMS40Mi0uODQxLjYtMS4yNjIuMy0zLjIzOS0xLjk4LTguMTU5LTIuNTgtMTEuOTM5LTEuMzgtLjQ3OS4xMi0xLjAyLS4xMi0xLjE0LS42LS4xMi0uNDguMTItMS4wMjEuNi0xLjE0MUM5LjYgOS45IDE1IDEwLjU2MSAxOC43MiAxMi44NGMuMzYxLjE4MS41NC43OC4yNDEgMS4yem0uMTItMy4zNkMxNS4yNCA4LjQgOC44MiA4LjE2IDUuMTYgOS4zMDFjLS42LjE3OS0xLjItLjE4MS0xLjM4LS43MjEtLjE4LS42MDEuMTgtMS4yLjcyLTEuMzgxIDQuMjYtMS4yNiAxMS4yOC0xLjAyIDE1LjcyMSAxLjYyMS41MzkuMy43MTkgMS4wMi40MTkgMS41Ni0uMjk5LjQyMS0xLjAyLjU5OS0xLjU1OS4zeiIvPjwvc3ZnPg==;fontSize=21;fillColor=default;" parent="-v6juzuHhqZbyULrmQ3K-37" vertex="1">
                    <mxGeometry x="15" y="15" width="90" height="90" as="geometry"/>
                </mxCell>
                <mxCell id="-v6juzuHhqZbyULrmQ3K-44" value="" style="shape=image;verticalLabelPosition=bottom;labelBackgroundColor=default;verticalAlign=top;aspect=fixed;imageAspect=0;image=data:image/png,iVBORw0KGgoAAAANSUhEUgAAApAAAAHSCAYAAABbzfuqAAAKq2lDQ1BJQ0MgUHJvZmlsZQAASImVlwdUU1kTgO97L52ElhDphN6ktwBSQmihSwdRCUmAUEIMBBW7sriCa0FEBBRFV0UUXJUiiw1RbIuiYtcFWQSUdbFgQ+V/wCG4+5///88/58y535vMnZl7c+878wCgKHLF4gxYEYBMUY4k3M+LERsXz8APAAgQgAJAAIPLyxazwsKCACrT49/l/V3UG5XbFhOx/v33/ypKfEE2DwAoDOUkfjYvE+WTqL7giSU5ACB7ULv+4hzxBLejTJOgBaJ8f4JTpnh4gpMmGQMmfSLD2SjTACCQuVxJCgBkBmpn5PJS0DhkT5StRXyhCGUxyu6ZmVl8lI+hbIL6oDbyRHxm0ndxUv4WM0kWk8tNkfHUWiaF4C3MFmdwl/6f2/G/JTNDOp3DCFVyqsQ/HB2V0T27n54VKGNRUkjoNAv5k/6TnCr1j5pmXjY7fpr5XO9A2dyMkKBpThb6cmRxcjiR0yzI9omYZklWuCxXsoTNmmauZCavND1KZk8VcGTx81IjY6Y5VxgdMs3Z6RGBMz5smV0iDZfVLxD5ec3k9ZWtPTP7u/UKObK5OamR/rK1c2fqF4hYMzGzY2W18QXePjM+UTJ/cY6XLJc4I0zmL8jwk9mzcyNkc3PQAzkzN0y2h2ncgLBpBmyQBTJQlQAGCEKfvAHIESzJmVgIO0u8VCJMSc1hsNAbJmBwRDzL2Qxba1s7ACbu69RxeEufvIcQ/eqMbR36/7qVjI+Pt87YgpwBONkIAGloxmaMnm0Karu8gSeV5E7ZJu8SFpDQ9wANqAFtoA9MgAWwBY7AFXgCHxAAQkEkiAMLAA+kgky08sVgOVgDCkAR2AK2g3JQBfaBQ+AoOA6aQCs4Dy6Ba+Am6AaPQA/oBy/BCHgPxiAIwkMUiAqpQTqQIWQO2UJMyB3ygYKgcCgOSoRSIBEkhZZD66AiqBgqh/ZCNdAv0CnoPHQF6oIeQL3QEPQG+gwjMBmmwVqwEWwFM2EWHAhHwvPhFHgRnAfnw5vgMrgaPgI3wufha3A33AO/hEcRgMghdEQXsUCYCBsJReKRZESCrEQKkVKkGqlDWpAO5DbSgwwjnzA4DBXDwFhgXDH+mCgMD7MIsxKzEVOOOYRpxLRjbmN6MSOYb1gKVhNrjnXBcrCx2BTsYmwBthR7ANuAvYjtxvZj3+NwODrOGOeE88fF4dJwy3Abcbtw9bhzuC5cH24Uj8er4c3xbvhQPBefgy/A78QfwZ/F38L34z8S5Ag6BFuCLyGeICKsJZQSDhPOEG4RBghjREWiIdGFGErkE5cSNxP3E1uIN4j9xDGSEsmY5EaKJKWR1pDKSHWki6THpLdycnJ6cs5yc+WEcqvlyuSOyV2W65X7RFYmm5HZ5ASylLyJfJB8jvyA/JZCoRhRPCnxlBzKJkoN5QLlKeWjPFXeUp4jz5dfJV8h3yh/S/6VAlHBUIGlsEAhT6FU4YTCDYVhRaKikSJbkau4UrFC8ZTiPcVRJaqSjVKoUqbSRqXDSleUBpXxykbKPsp85XzlfcoXlPuoCFWfyqbyqOuo+6kXqf00HM2YxqGl0YpoR2mdtBEVZRV7lWiVJSoVKqdVeugI3YjOoWfQN9OP0+/SP8/SmsWaJZi1YVbdrFuzPqhqqHqqClQLVetVu1U/qzHUfNTS1baqNak9Uceom6nPVV+svlv9ovqwBk3DVYOnUahxXOOhJqxpphmuuUxzn+Z1zVEtbS0/LbHWTq0LWsPadG1P7TTtEu0z2kM6VB13HaFOic5ZnRcMFQaLkcEoY7QzRnQ1df11pbp7dTt1x/SM9aL01urV6z3RJ+kz9ZP1S/Tb9EcMdAyCDZYb1Bo8NCQaMg1TDXcYdhh+MDI2ijFab9RkNGisaswxzjOuNX5sQjHxMFlkUm1yxxRnyjRNN91letMMNnMwSzWrMLthDps7mgvNd5l3zcbOdp4tml09+54F2YJlkWtRa9FrSbcMslxr2WT5ysrAKt5qq1WH1TdrB+sM6/3Wj2yUbQJs1tq02LyxNbPl2VbY3rGj2PnarbJrtnttb24vsN9tf9+B6hDssN6hzeGro5OjxLHOccjJwCnRqdLpHpPGDGNuZF52xjp7Oa9ybnX+5OLokuNy3OUvVwvXdNfDroNzjOcI5uyf0+em58Z12+vW485wT3Tf497joevB9aj2eOap78n3POA5wDJlpbGOsF55WXtJvBq8PrBd2CvY57wRbz/vQu9OH2WfKJ9yn6e+er4pvrW+I34Ofsv8zvlj/QP9t/rf42hxeJwazkiAU8CKgPZAcmBEYHngsyCzIElQSzAcHBC8LfhxiGGIKKQpFIRyQreFPgkzDlsU9utc3NywuRVzn4fbhC8P74igRiyMOBzxPtIrcnPkoyiTKGlUW7RCdEJ0TfSHGO+Y4pieWKvYFbHX4tTjhHHN8fj46PgD8aPzfOZtn9ef4JBQkHB3vvH8JfOvLFBfkLHg9EKFhdyFJxKxiTGJhxO/cEO51dzRJE5SZdIIj83bwXvJ9+SX8IcEboJiwUCyW3Jx8mCKW8q2lKFUj9TS1GEhW1gufJ3mn1aV9iE9NP1g+nhGTEZ9JiEzMfOUSFmULmrP0s5aktUlNhcXiHsWuSzavmhEEig5kA1lz89uzqGhjdF1qYn0B2lvrntuRe7HxdGLTyxRWiJacn2p2dINSwfyfPN+XoZZxlvWtlx3+ZrlvStYK/auhFYmrWxbpb8qf1X/ar/Vh9aQ1qSv+W2t9drite/WxaxrydfKX53f94PfD7UF8gWSgnvrXddX/Yj5Ufhj5wa7DTs3fCvkF14tsi4qLfqykbfx6k82P5X9NL4peVPnZsfNu7fgtoi23N3qsfVQsVJxXnHftuBtjSWMksKSd9sXbr9Sal9atYO0Q7qjpyyorHmnwc4tO7+Up5Z3V3hV1FdqVm6o/LCLv+vWbs/ddVVaVUVVn/cI99zf67e3sdqounQfbl/uvuf7o/d3/Mz8ueaA+oGiA18Pig72HAo/1F7jVFNzWPPw5lq4Vlo7dCThyM2j3keb6yzq9tbT64uOgWPSYy9+Sfzl7vHA420nmCfqThqerGygNhQ2Qo1LG0eaUpt6muOau04FnGprcW1p+NXy14Otuq0Vp1VObz5DOpN/Zvxs3tnRc+Jzw+dTzve1LWx7dCH2wp32ue2dFwMvXr7ke+lCB6vj7GW3y61XXK6cusq82nTN8VrjdYfrDb85/NbQ6djZeMPpRvNN55stXXO6ztzyuHX+tvftS3c4d651h3R33Y26e/9ewr2e+/z7gw8yHrx+mPtw7NHqx9jHhU8Un5Q+1Xxa/bvp7/U9jj2ne717rz+LePaoj9f38o/sP7705z+nPC8d0BmoGbQdbB3yHbr5Yt6L/pfil2PDBX8q/Vn5yuTVyb88/7o+EjvS/1ryevzNxrdqbw++s3/XNho2+vR95vuxD4Uf1T4e+sT81PE55vPA2OIv+C9lX02/tnwL/PZ4PHN8XMyVcCdbAQRVODkZgDcH0T4hDgDqTbR/mDfVT08KNPUNMEngP/FUzz0pjgDUocNEW8Q+B8AxVI080djo80RLFOkJYDs7mU73vpN9+oTg0C+WPe4T1K3KXw3+IVM9/Hd1/3MEE1HtwT/HfwHTxgXBFjujqAAAAIplWElmTU0AKgAAAAgABAEaAAUAAAABAAAAPgEbAAUAAAABAAAARgEoAAMAAAABAAIAAIdpAAQAAAABAAAATgAAAAAAAACQAAAAAQAAAJAAAAABAAOShgAHAAAAEgAAAHigAgAEAAAAAQAAApCgAwAEAAAAAQAAAdIAAAAAQVNDSUkAAABTY3JlZW5zaG90EtoA2wAAAAlwSFlzAAAWJQAAFiUBSVIk8AAAAdZpVFh0WE1MOmNvbS5hZG9iZS54bXAAAAAAADx4OnhtcG1ldGEgeG1sbnM6eD0iYWRvYmU6bnM6bWV0YS8iIHg6eG1wdGs9IlhNUCBDb3JlIDYuMC4wIj4KICAgPHJkZjpSREYgeG1sbnM6cmRmPSJodHRwOi8vd3d3LnczLm9yZy8xOTk5LzAyLzIyLXJkZi1zeW50YXgtbnMjIj4KICAgICAgPHJkZjpEZXNjcmlwdGlvbiByZGY6YWJvdXQ9IiIKICAgICAgICAgICAgeG1sbnM6ZXhpZj0iaHR0cDovL25zLmFkb2JlLmNvbS9leGlmLzEuMC8iPgogICAgICAgICA8ZXhpZjpQaXhlbFlEaW1lbnNpb24+NDY2PC9leGlmOlBpeGVsWURpbWVuc2lvbj4KICAgICAgICAgPGV4aWY6UGl4ZWxYRGltZW5zaW9uPjY1NjwvZXhpZjpQaXhlbFhEaW1lbnNpb24+CiAgICAgICAgIDxleGlmOlVzZXJDb21tZW50PlNjcmVlbnNob3Q8L2V4aWY6VXNlckNvbW1lbnQ+CiAgICAgIDwvcmRmOkRlc2NyaXB0aW9uPgogICA8L3JkZjpSREY+CjwveDp4bXBtZXRhPgqRw7/TAAAAHGlET1QAAAACAAAAAAAAAOkAAAAoAAAA6QAAAOkAAKpwJG4YbwAAQABJREFUeAHsXQWAFGUbfq+774gjjy4FxS4UW0xsxQIVUOyu3+5uARUUuzsRFRMxAOlujjuuu7j/eb7d2Zud273bRbhDeV/lduabb7755pnZ2WfeDKmHiIoioAgoAoqAIqAIKAKKgCIQIAIhSiADREq7KQKKgCKgCCgCioAioAgYBJRA6o2gCCgCioAioAgoAoqAIhAUAkogg4JLOysCioAioAgoAoqAIqAIKIHUe0ARUAQUAUVAEVAEFAFFICgElEAGBZd2VgQUAUVAEVAEFAFFQBFQAqn3gCKgCCgCioAioAgoAopAUAgogQwKLu2sCCgCioAioAgoAoqAIqAEUu8BRUARUAQUAUVAEVAEFIGgEFACGRRc2lkRUAQUAUVAEVAEFAFFQAmk3gOKgCKgCCgCioAioAgoAkEhoAQyKLi0syKgCCgCioAioAgoAoqAEki9BxQBRUARUAQUAUVAEVAEgkJACWRQcGlnRUARUAQUAUVAEVAEFAElkHoPKAKKgCKgCCgCioAioAgEhYASyKDg0s6KgCKgCCgCioAioAgoAkog9R5QBBQBRUARUAQUAUVAEQgKASWQQcGlnRUBRUARUAQUAUVAEVAElEDqPaAIKAKKgCKgCCgCioAiEBQCSiCDgks7KwKKgCKgCCgCioAioAgogdR7QBFQBBQBRUARUAQUAUUgKASUQAYFl3ZWBBQBRUARUAQUAUVAEVACqfeAIqAIKAKKgCKgCCgCikBQCCiBDAou7awIKAKKgCKgCCgCioAioARS7wFFQBFQBBQBRUARUAQUgaAQUAIZFFzaWRFQBBQBRUARUAQUAUVACaTeA4qAIqAIKAKKgCKgCCgCQSGgBDIouLSzIqAIKAKKgCKgCCgCioASSL0HFAFFQBFQBBQBRUARUASCQkAJZFBwaWdFQBFQBBQBRUARUAQUASWQeg8oAoqAIqAIKAKKgCKgCASFgBLIoODSzoqAIqAIKAKKgCKgCCgCSiD1HlAEFAFFQBFQBBQBRUARCAoBJZBBwaWdFQFFQBFQBBQBRUARUASUQOo9oAgoAoqAIqAIKAKKgCIQFAJKIIOCSzsrAoqAIqAIKAKKgCKgCCiB1HtAEVAEFAFFQBFQBBQBRSAoBJRABgWXdlYEFAFFQBFQBBQBRUARUAKp94AioAgoAoqAIqAIKAKKQFAIKIEMCi7trAgoAoqAIqAIKAKKgCKgBFLvAUVAEVAEFAFFQBFQBBSBoBBQAhkUXNpZEVAEFAFFQBFQBBQBRUAJpN4DioAioAgoAoqAIqAIKAJBIaAEMii4tLMioAgoAoqAIqAIKAKKgBJIvQcUAUVAEVAEFAFFQBFQBIJCQAlkUHBpZ0VAEVAEFAFFQBFQBBQBJZB6DygCioAioAgoAoqAIqAIBIWAEsig4NLOioAioAgoAoqAIqAIKAJKIPUeUAQUAUVAEVAEFAFFQBEICgElkEHBpZ0VAUVAEVAEFAFFQBFQBJRA6j2gCCgCioAioAgoAoqAIhAUAkogg4JLOysCioAioAgoAoqAIqAIKIHUe0ARUAQUAUVAEVAEFAFFICgElEAGBZd2VgQUAUVAEVAEFAFFQBFQAqn3gCKgCCgCioAioAgoAopAUAgogQwKLu2sCCgCioAioAgoAoqAIqAEUu8BRUARUAQUAUVAEVAEFIGgEFACGRRc2lkRUAQUAUVAEVAEFAFFQAmk3gOKgCKgCCgCioAioAgoAkEhoAQyKLi0syKgCCgCioAi8N9GoKi8Spatz5c/Fq2XnxaskdUbC2VDTrHU1NaJ1Nc3nHxIiGvZ3taw1XuJfa1+HCLUsa81LJu9+mKDdRx7u310a7s1vrXNOo7VjvWY2AjZu2+GDO3fVuKjw62eQX9W1W6Wmcvy5McFuZKdW+Z/f+cc7D1t846ICJf2bRKlc9tk2bdvJ9mtd6Z0z0yVxNgo+x7b1bISyO3qcuhkFAFFQBFQBBSB1kGgbnO9vPvTArl5/JeCRRfh46eb6/mdlT9iZ98hkD7NHcsao7l+/o6L/VqEQDrnyXUCShztc7f345ztOGNbGEj2vWMOl+P27mOW7ae1PSwrgdweroLOQRFQBBQBRUARaEUElqzLk7GPfCyrsgsMxzFTsTR3WzIvO1HytT/JkyU8TnP92dciXNZ+vj45DsU2vFl3jx8TAw1kP2gg+20dDeRPC10ayICg8jf/Js49BPt0yUyRCVcdJ93apZhT2V7+KIHcXq6EzkMRUAQUAUVAEWgFBD78eaFc++yXUkcTNU3LFhvyR8Y4xyZIjzmF5rb/k/NsbmzbdnI2kjBLYmHC3qdvGxkCM/Y/MWFX04S9ogAm/hyYsMvdkPHAjWWzUec2bm+2xRoO06eJ++GLjpSj9uzZ7G4t1UEJZEshrcdRBBQBRUARUAS2MwRIHq966jMXIbSTR87TRmAaTbupbVZnXxo37tfA5/wTUfaz5hPMPraxSRwTEyIlIzlaEkAcuSkuOkIGd0uVXbqlSUxkmDXToD9r6+pl/ppCmbUiX9YXljdg5RipoLRGNhVWSElZDfq4QfOFi9Xm7uKFEcd04/HQxUfK8fv0cRyldVaVQLYO7npURUARUAQUAUWgVRHYWFAqB10xSaqrQW4ovoga222kjKuefm5SY4iRRYBMB/cfX2327b6WrX2cc/HV12rz0zcUBDSrY6Ls3j1NOqfGmt7RII3dOiRJVmaSREZsOYGsq9ss63JLZcX6YikorvJw7QZweLh6WZJTIn9BU7l6fYk00kTa8fOcCxshxMEpaIuEJvLbR8+Ttinxzq0tvq4EssUh1wMqAoqAIqAIKAKti0B5VY0cef0UWYcIa49YpMXSlFnEjO1WEIjV2dpmrVuf9nZrPFdETgMpsvexL7M/j802CjmUfbtpdP/x6otO1rFsfcLCQqRPVqoM6ZMhPdrFY7gQmILDpFPbBOnYNlEiwrecQG4GgdyYXyZrN5ZIcVmV7ajei3PXFMmPi3Jl8apCnJp1Yu4+vs7N6uKDP5q9cJ4dM5Lks/vPktioCO+DtfCaEsgWBlwPpwgoAoqAIqAItDYCr383V/438evGpCbQifkiP9zXV7svUmS1cR8nWbK2OdvZ1ymmL/7YCaR7mVHMfbJS5ECLQKKdBLIj0uV0BImM/AcEkhpIQyChYSxpikCuLpIfnASS83OSSft58ZxovneSdvbBviBucj/8IYfv19e+V4svK4Fsccj1gIqAIqAIKAKKQOshUIw8j7uPeU7qahA0Q5JGwuIka77aLOJj32a12U/H33b2tYubRNHUHBYaKvz0ECt7V/t4XKZYY1lEzKy7N7r7c8yenZJkT/g8dkmPM7tEhIdKOyy3S4uXcCz7Eh46DNvCwzAn93HYFh6BNoxJ30oSyE1F5ZKdVyql5TWA0JqY94jzVhbK9AXZMn95vtS7NbGbJRS9MSLGMuKHKLpyKaGHHQvOB/3DwkNk5viLWjVPpBJI72uta4qAIqAIKAKKwH8agR/mrpbz7nmn+XMkOXMTKK/OboLWbJtXB9sKx3QTP5KxmKhwSYqJlBj4921NIT9rlxQjHVOjJSU20gxNUpkQFyHxcVEuwurjgJxTUnyEpCRGwsztInnUXCYjICcxPlrCQkLB4TZLWUUNyGO1VJGI+5G/l2yU6b+vlD8Wrpe6zZvNaVeEREqVhEt9iNuEbnFPO1HkeM5261oYIioy6aaTZP8Bnf0ceds3b3cE8tvvf5Qvvvrac+aXX3KRtG/X1rOuC4EhMHXad/L1N9+azkccdogcNGT/wHbcCr1++uVX+eiTz81IPC6PryIye85cee3Nt6Vd2zZyxaUXKyRbiMBmPIS/+GqqREdHy9ADD/A5yrATTpH16zd4bXv84fvlgP328WrbEVfoh3XyGefIsuUrvE7/yksvkrPOPN2rTVf+mwjc/8aPMvHjma6Tw/1gxEbqAjprJ7mxdvLXbm3nJ4/l1saRrKUmxkjn5FhJj0HVFSeJsu8X5DKHohnb9c+t7UMbiSWP6+9Q1IS2TwfxbB8LckuSFyKxMagUk56Af9BcQjPJ7xH/gyISYp00l71lzrw18t2PC+WPWStMEA2p5sb6aCkKiZbNIW7CzN3tk7GGY5tzmwc7kctO3kcuGb6X9wFbcG27IpA1NTUy7LiTJTcvzwPBQQfsL488eI9nXRcCQ2D8C5PkuQkvms6XXDRaRp4zIrAdt0Kv1996Rx54+HEz0shzzpJLLrpwK4z67x9i7CVXyK+//S43XHulnHLiCf/+E2rBMyBpXLhoiXw3/Qd594OPJT8/Xy4ec76cf945PmehBNInLKZRCaR/bHaULWfe957M+HuV63RJIElKLCIZDAhOcsN9fbX5a+ehQdbSQSC7psRJBsr2kdi1ttCSntkWpBYEMg6JxykxKHvYAb6THTISDIEMdI6z562W76fPB4FcDrJZL+SbG+pjpEBipM7SQPoazB+Otr77D+4mk6463tbSsovbFYFcsnSZnHLmuY0Q+PrTDyQ9Pa1Ruzb4R0AJpH9sWmMLtT0nnX423nxD5eP33pTM9u1aYxr/2mOOGXeFzJj5u9f8lUB6wRHwihLIgKH6z3bc/4oXZYM9+tp5pv7Ii0U0re3Wp2N/Fwe0E0F2tAu3udpIGNNhZs5KjpcMmJW9VXH2fVpuGRZqyUyLMhrIWHe97Fjkj8wEgcxMizP+kZyN8Y+kNtMzNdcS/1pE+O/5IJA/LgCBXAkN5GZB+kjZsDla8uqjGghkPfZoGMSCxruNx7BgdPfN6pQuX99/tufoLb2wXRHICS9MlmcnvGAwSE1JkfyCArP86IP3yoEH7NfS2Pyrj6cEcvu6fI899ay8NOU16denj7wyeYLn4bJ9zXL7nc2pI86TxUuWek1QCaQXHAGvKIEMGKr/bMd+5z0p1Ujj49E8WlpI+xk7yIrZZCeQVNNhPxIl3lMUmnajIsMlCtHNLhJpmpv8Q3NxG+Q07NwmQVLjtxMCifMJq62SqPoahLsYG7U5p5TkGElNiDa+kySP8YnRkgzTewz8NylhaIuBqTsmOtIss23VmlyZv3CdrFiZY0zYtdBCLsqpkIU55VJW5fKd3Az2WCthbkJpZ5IYgEBa18eNM8elJCTEyF/jx7pWWuHvdkMgq6qr5ahjTwRpLDQ35EP33SVXXXeTgWTwLoPk+eeebAV4/r2HXLh4iSxcuNicQL++faRXz+4tdjLLV6yUOX/PM8fr1bOH9Ovbu8WOvb0e6LiTTpe169bLm69Mkh7du22v09xu56UEcutdGiWQWw/Lf+tIPc58tGHqJCXkfw7e4rOtYa+GJRIc+jPig1q6DASZpBlTdEOXppZIINOh2WvbPlmSoIncHoQ5HnNXbJCNy9ZLdUWl4W/0o2Ti8SgkIidpDgNZ7tgxVbp1z5A0RHQTAAbcZCBheQbM8RHYTikpq5DCwjIpKa3EWr3U1GyWX2evlp/+XCn5RRWGHFaCphaFREkl/jW+EBzFh2AOJOvzJl3iY2PLNG03BHLat9PlqutdhHHI/vsKtY7Hnnia+dElFG+/9jJ+eLNaBhU9iiKwFRH4/oef5PKrr5euXTrL+2+9uhVH3nGGCpZA7jjIBH+mSiCDx+y/tkePMx4BTwHjc2i0/ul5JsIE3Sk5TjrDp9Ey4TY3ZiiSfSe3S5T0DqkSB23e9iCsCb7kz6Wy8LfFUppf6pkSIbMkLCxMevZqKzvv3FHaZyab8/WVY9LSzlr7VdfUyrTp8+TraX9LTm6xuQTl0D5ulGgpDYkBxeR1QW/bsXxeKyWQFqQi199yu3yJyErKc089KnvuvhsiVt+RBx9xBWOMOneEjBs7umEHXVIE/gUI8OEx4rwLZP6CRTLi9FPlqsvHBTRr+srU4EHDVBGhcMjh2254+NZJcVFXV2fG5kQ4ZngTyXQ3Y/4MbqvHfOi/GRGBerL2p2hAZyPImVYntbU8n3rjN8Tj8gEcqLQ0gST2nDOf5DxvzpefW0tc1xe4Eo/QMImM3LKKEsSU8+Q4IbhPeC2bw5V9NQp7a13Jf+c4jQikk0zaCYxzm/2UrWcB7imSnkSYoDtB+9YZptVAvy8MokkBgUzrkGII5JY8X+xT2hrLtfj+GwI5Y5GUFpT5HJLP5J6928nOO3WUzA7+CaRz5+pqEsi58pWbQHJ7Wb2bQCKwpt7C1LmjtW5tB+aR0EDOn3yptaXFP7cLDSQfgAceNkxKS8vMTffVJ+9DJZwKn4FVJvCAD9vu3bLknddf/scALVm6XJYuWy5HHt56qWVyN22SP/+abX6Y+/frK1ldu/g9L/6Q/TlrlmzYsNFgMnjXQUgn0DJq/tVr1srcefPNDxPxb0kzuF9AtnBDcUmJ/P7HX1JSUmpMyDSrN/WgmjN3nqxcuRo+JvFCzBMTErboyOXl5XLosONNrVne1ykpyU2Ow/k9O+F5+WXGTCmvqBC+CYeBFERGRkqvHt3lnLPOkJ0H9Pc5BonBVdffLGtw3SzpmJkpjz50r7Uqb737vryBF7PSsjLzkhuDVDhMs3TR6PM9fayFb7+bLi++9Irkbsoz5I/ksVOnDnL5uLFwS+hjdWvyc9XqNTIRvs1/z1sglZU4H5iG+MMSHRMtO/XvZ7ID8N7yJTfdeqfH75HnRDcXu6SlpjaLp73/9VdfYa6lvc2+TPym//izvPbGW7IOKYB4PLaRPCbEx5tUWOcC/9hY/1oSBktdf/Nt9mHl1JOGy0nDjzNtHO/tdz+Q1996V3hv8NkWgdx3bZHa6arLL5EBeB40JxzjV9wfU15/A9d6nbm3+AwleYyMjMJ90k3GXDjKr6sE91cC2RzK/+3thkA2c4r08TOJvY0qjIzSn1BVxu31khwfI11gzu2cFGuiq33ugfuPvRlMwn1C8DxIyoiXtMwUiQ1Cc+lz7K3USAK5fM4KkMjlUl5U6jo7mOmZCJzmbU6dScizsjKkT592+P4mmiNHwrzduX0S/iXDhO16QQ6BhpXWbKQfN785PgkkNZBI7VMKLWQ9I3goJIrAykusNvdnFPJnzpu0gxPIV/HAfuhRl4/jrrsMlOeffdINdLUcetTxwh9//ti/8NxTssugnb3w9LVy8JHHIs1HgXTP6irvvDHFPKSpzXwdOfjWb8g2Pwgzf/rWs+tDjz0pr77+lll/+P67xV9uOWuHmX/8KRdedJlZpbn9sYfuszZ5Ps+78CKZNftvSUxMlO+//tS0z57ztzz+9Hj5a9ZsTz+eV78+veW6qy+XnWzEgD8uT6DvF19PlaKiYk9/Eon99tlLrr3yMvOj49ngWAgkiIYk6ZxRY8yeV102TkaccapZfue9D/ED947Ql9Eu7du1k1NPPkHOPO0Ug6F9m305kDQ+n0PbfCO0zpTTTzlJrr3Khad9HPtyGYnYkcdJRWWlZHXpIu+99Yp9s1mmtprXmRh988VHSBQbJyTBvLd+/vVXQ16snWhOHjf2Qjn4oCFWk1RVVYMwTZH3P/zYkCZrA6/R7rvtKpddPCZg4mTt++LkV+TJZ8fLIUMPkgfvvcNqbvTJl6ennpsg7yFFDTV+Tcnug3c194uTePkiBtRG/fDN5+Y5dP3Nt8qPP/1iHn7O8Xv37CHjn34cPkiJIDYVcttd98o3335vvjvOvsT34tHnI2fgaeZ76dzOdfoy3//QozINY9QaTZ6vXi4NKL9DJHfOTAu8N3mPbi1pKg/kTLxcPPrE00gVtNiQRn/HjAeRHHHayXL+yHN8avrmL1goZ557gdfuRx95uNx5282yCUT88mtukHnzF3htt1Z4n50z4gy5bJzrO2m12z8Zif7EU8/BKX+RvdnnMgMPb7jmSmnTJsNru6/7hB00D6QXTP/pleYIJINhWGc5ET6NhkSSx5AnUixOY/FG22fbtFjp3jEFtZoT/BJIprKprK5D8m0QMozF+z4Kmss4+D9G4nhcb20xPpDr8yRv3SapqsCLK+ZZB81hWXGlVJRUmGcEs0gmxIVDuYAE6CCOBCgaEdu9eqDudvc2EuVOis62BCQxj0egDc+tWQIJqunB2hcQxIfA4X9DIHdkDSTfnPk2TG0jwX1l8kRDqCzcXpg8RZ56doJZ3WfPPeSpxx9q9gazCCS1Bt9+9YkwAvaV1960hmxRAslzmvHDN7Jm7TohqSwuLvHMw75ArcwL45+WQTsPMNqhc88f2yjRr71/p44d0P8pyUhPtzd7loMlkNSsUAv1yONPyxtvv+sZx9cC+14KMuXvi97aBJJz/vqzD4RvkSPHjIP2NtvXaRhN2N13/E+OOPRgQ9quvfF/yDP4o8++bExLTTHXqEvnTn772DfwJeCgw4/BA6NaHkZQ2FAbWbX3K8EL0tXX3yK//f6HvbnJ5eTkJJkAwtcTWklL/BGDVyZNECaWnzzlNaurz8/9993b+B4//dxEmfRy876afKHjC59TqL07e9Ro8xLn3OZvvW2bNsZ1hcTekpYikF9NnSbUdtIcHKiQ9PJl02ku9kUg+dL79GMPGWsKX2CbE75M8aXKKdOgEb4B2s3qmqZfMOz79endS15+4TnjemC1+7tPlEBaCP33Pz0EEiTEQ1YsYoImBme0S4xFcu8YjyYtEFTatUuQHj3TpWOXFLf2svFeVQgiKSqrk+Ly2gYuCjM2iWqgZu/Go27lFuBSi+9Zra3CTCXqXeetL5DC7GLZXLvZvFxXFJdKSUGRVFdWmQnEgCjSJ3KnnTqBTLrcUpITokzpxHT4hlKr2yyBtDSQzlPi9bHEIpAgpzu0BpImu0OPOs6Yi1hx5rMPvcsr0cSz95BDzY8wfzQ/x3ZWoGhKLAJJU9P9d98ul1xxjbkxe8BUdvaIM6Vvn57SLaurZ4htqYHkQV4FKb7w4sthwquU448ZJieecCxC/WNNUuTxz08y7ezXtWsXeRdm+osuvRJk4k/p1rWrXDDqXJgs+0l2Tq68MOllaNJmeDQkRx1xmNx9+y3ctZEESyCPGXYk/E4Hy8233YUUBNFGu0TCEx0VJTN++13GP/+i0SpZB2pKU7s9EMiJzz4h4ydOgvl/thyw/z5yNipspKWmyR9//SUPP/aUlMGES0kFKWSe0QegvXzz7feMFuzi0RcYYlRaWgpz44fy0aefeTRxJDh0pXASBwsX+ye1RcxfGB0dBS3059CMuh4o9j5cHo17wxd55MOUJJ0/+PweOIXX6fOP3oHWMMls8kcMqDGmlj8Qocbq3gcfCaQrNOb9QE7Ge/UtKyuXI5FNoQTYBStdO3eWd9+c4vkRaQkCyZeL404+o1mtr69zOfjAIfLgfXd6vUj5IpDUAJ595hnQhLv8uX2NZW9r17atua72Nl7/oXgZKSpusEbYtze1zOt/9RUNkZr+7hMlkE2h+N/a5iGQ1mnZiSTaomEa7QjC0w3pdaxoYqtrU59tM0Ege5NApkoo7bY+hGX/CkrrQCJBIHncf4lUIIo6b20+tJKFMGO7TNlFmwokPydPKkoRTQ2JBYEctEtn2XlgZ/zGu573KUj1kwmNbJvULSCQJI1OkNjGqHfQ7yikC9qho7CfePo5j7aD5kSm73HK6WePMqYl/phye3MmZotA0neJJjny9scffsBvOpltTSAHDdxJFi1eKlNeHG98Oe3nl71xoww/dYRUIFUA5ZijjpBPPv/SmLGohaC50BL+iHzx1TcgeXcaUkECQU1bHEy1TgmWQDKxdWFREUy1g+WOW24wpnf7mDSxUkP3y4zfTPMe6Df+6cfsXTzL2wOBpMl5Hvzunnj0QRns0JKRPI4470JZuWq1mfPxxw4z5lreV9dedbmXjyl/bJl/8BxohKuqUL0UJuGP3n1D2gOv5uT6m26TL6d+I1egHOfZI3yXiKMv2zi84FATbwnv87HwYTtk6IHmZYkvHixLaeVItfrxk1rjC0aeY5r8EQNuJBk9HJrWIQfsCy14qUx+6RVZn+1fGxYfHycXjjwX0YXt5XdoRt98531zDPsfzpPZEbp36+ppfvKZ8cZv0tPgXuDLHDXXfHFbvmIVcmK+KnRLcMpxeMG67ebrTTPHog8lhWSc96BdumdlSdeuDRpL+7affpnheTGz2p0mbPqYDj/lTNmIlzOnULN7xqknS0xsjPz88wzzEuHsw/OfPPFZONE3+KT6IpDcj315ffaDlvfwQ4ZCwxNlvksfffq517W3+tK6sMvABnedJ54aL5OmNHbb4PfwCPhzxwFfusy8+/6HjTSUxP7Lj98Vmt8p/u4TJZAGnh3iTyMC6TjraGggOyIYRglkAzAtTiDxzGhEHq3puIl3FLScOyyBpIbnYPi10cRHGf/UY7IHtGBOoUnteWjfKJn4Qfvw7ddhhg5zdvOsWwTSapjwzONCvzF/sq0JJIMPXsQPwoD+/XxO4aup38p1N/3Ps61jh0x5G1ouav+cQj+9I44djrxSRWbTXfCtGgYfK6cESyC5P/MTMk+hPzPC+g0b5IRTRpjrlZiYAK3aZ87DmvXtgUByIrfceK0MP+4Yn3P8e+58kMIx5seUHeir+j78KpnA3peMu/xqISmh2Embr75so6mSuR9JHD54+zWflWdoijz6+FPgb7nJaxh/834LJO4++BWSAFhCP8+vP//Q3Cv+iAGv5803XGO035wPha4Ux59yhhTAV9Ep3bO6ykvQLMbFxXo2ffLZl3Lrnfc00oTeeetNcjReeigcc9gJJzcieryfJ4FopSMwzpJNefnGMkCfQ7ukJCeblyKnhjfYKOxAShnOhJZ/9LjLvfDkXBjwQh9jfm8tYQlKWgbs2HMbnyt8vljij0BG4UXwDnxXDx16oJfGki8GfDFzCu9b3gcUl/bxaGgfvd1fxlwwUkaff57Xrgy+4jztwhfp9958Rej2QvF3nyiBtKP2315ujkBGQnvYFn6JneMiJJwmVTw3mDQ7EWl2otxJs30hlAofyMzOydIGpmw+d3iv1dTWww+agTOu51ZFRa3k5JTiuQcrhdGk+RgJx49DJHdsQqxfTSbHrq6skZoqaDKhXKFQ6xkB7WkErD2M7g5UauHfWIN//DSCXTlGJPxAQxEsQ6EvZGFOsZRg3iaYBscszC2S/A2bpBx+kZSo6DDp0jlVOndKQc7IcNOWgco1nRGl3R6BNpxSDQIjZ81eJTP/XCaFBeUGleLqGlmaVyrrC8tNuUPiHRYZK2HRCQiihBLJ/dw2A3KZvwH4f4cmkL/+NlPGXuJ62PHhRs2OL8nBDyx/aK3gApIcJqj2J3YCOWT//RDk0hCF6mufbU0gGWX99msv+TV7suLOUagBTg0X5R745R15+KG+pmra7nvwUWiE3jPLNIfffP01jfpuCYF89AFU/BmyX6OxrAZXsveTPBWCvvj4PWnrcNBn3+2BQPLh9c3nH6FKgMu8a52D/fMQuE7kgchQxpyPH+MLzrNv9lp+A1Gz9z/s0rjuCp82+qs2Jc9NfBFm/0lG48Zr74uUM8DnBGjAnOZpEnMSdKcwmIzfA6d5+PWXXxD6uvkjBnRNeA4vZ055HMEYk6EJdMqdt94MUuj9UsLo6WHHnwxtXY5X97EXjpQLR7lwY/DRHfc84LWdGts3pkyS7t2zvNq5Yg9Gs2985slHZO89drc3ybYgkCRuJHB2MW4B0NYl4YXCKc+itvyEFyY5m+WTD96SDu3bm3Z/BPLQgw8y7jQWgbcPYgXc2duoqX0XAYAUXlcGBfLTLrSu2Ekut/F+5n1tF957b7062WP98HefOAkkyT2j9QMVYmb3yQ10P+3X8giYROKO+8k+i/CQeknCv3bQ01BVw5Q1nbplSFafTJP025j17Du4l6Nhtk0A0YwF+aRPI++1sso6848VWCilSJ69atEGWbdio5ePoXsI80Fi1K5bO/PPn+sPSVwxcjSWgHjR352EKhykLxGELR7aU38mdPtxrOXykkopyS9DgAysIhiH39O41HgzFkkkhceoKq+WSvzjedWDFBfmgECuz5eyItf3BNQOJv/NEhlmsjma/TLbJUkv5Ivs3AlmfWCyGfPORhnJDRsKpJLVgCA5eQUyc/Y8mT1/ISwIOBd8ZyOTMyU6vatExuHF204guQOhxMGiMLcdVgN5y+13yyeffUE45PzzzpaLx1xgln39ueyq60yKDW5j9Oyoc8/y1c202Qnk5OeflYE7DfDblxu2NYEcftzR0CZc53cO9AOlxoTBFNSs/vbjt+YG9rfDR598Bm2QixQz0pJJ150SLIFMhh8dA46ak6NAIqygFPq/0Q/OKdsDgWQwErVeTQmDt5jSiQ8LkrDevXr67U7f04svu9ps7wAt+Cfvv+W3LzdYhOdFEE1/mQPonzlq9LhG4/gim1YnJ9lk+xOPPCAMgPFHDM4fie8W/DqdQq3a2EuucDbLD9O+RAR7rFc7xz79rJGyCOZ8u5x95mlyxaUXm6YbEFX/hTuXq9WnT69e8vqUF6zVRp/HDD/VUyzA2khT+3133Watmk8LT3vjPyllyPPZc39X8JR9TEZBX37JWHuTZ5muD4fAYlLpftGzNtCtxorm90cg+XJsaQCt/azPp8c/L8+/+JK1aj4ZADgd0fO+ZEP2RqQaehsa8V/xQ5TjefG0+jrvEd7ffOm2yJ2/+8RJIM8eOQbpl+ZZwzb7ufdee8gzjz/cbD/t0PoINEcgQ+FSE1NdJSk1VSCQSGUVESb9d+0quw/pI527tW3EZ7zOCPcb+Q7vO+Z9LSythc8jNHzQRFKKNhXJ4t+XyrLZyxs0fl4DiMQgHVCv3XtKr8E9oPGMcmx1rZpIafgk5q8tMMSOrVFxkZKKfJJMSh7m1hz63NnRWJxXAt/GAimGZpTfD2ovmZcyHdrEaFTVobCdxM3SpNIPsiC7CPuBQBa6NJC10CTSJ7IwJx8p2Fxa0S5d06T/gA7So0cbjyKBY5FIWrIWyoRvvvxSvps2TaqQ7kxCof1s30diO+8qMakdDVm0+to/d1gCmYc36mHHneTJ7Ub/QH8mXgL2MXyF/nfHPQY7pvv44qN3/Wr0LAJJ0w0rf9CE1pRsawJ5/TVXmFxw/ubAt/yjQSCZricFGrNpXzZN5KZO+16uueFmM9w+eGg/7eOhHSyBZG7BlxCt2ZycfPrZsnT5CtNt4jNPyG6Dd2m0y/ZAIJmSiKmJmpIzzjlfFixcZO6j96Dt6dxEdPWfs+aA7LmIUgbuv68+/cDv0CzjSK0SiaY/rTp3/hAvAre5XwT8DhbAhkceuMfkKPRHDPz5YM6Fj+hZIy/0OkIkzLYzfpzm1cYVjk2/URIku5x5OgI0kL+QMgZklAFXdvH3gmP18UU6O+D7+sl7DVkT2HdrE0ia7oce0di9gamM9oD/rC+hheDoE06VTXl5Xptp7j791JNMmy8CGYOclz9/97XXPvaVl155XR578hl7EzQLUfLr9KlebbPm/C20PixZutTrx8erk48VJZA+QNnBm3qc/ohvUkJOA/IXWlcrMbjfU1AP2mggQcZ22q2b7HFgX+mMFDW8pwIRXwSSZt9Fvy+W5bNW+CWQ0SiH2Gf3XoZENkcg81bnw7zs0uSRQKYhjVA6yB/z5wYqxZtcBLIopwTPOkAAApkOs3N6lzQPgXSORauMIZAgseVFlWZzNVzM8rM3gUTmI1Lb5dfeGWMMGNAR0eltjCbXOQ7X16xeDVekL+T7b6a5fLdZXCCzr8SBQEandcKEgDcJpx12tO2wpQyZd5HEjdIFka38AW9K85KXny9HHnMi3mJqzT5NRQFbBJJ+Rx/jhygjI93s4+/PtiaQjJRmxLQ/sRPINpjrl0g43ZQwP9/VSBhN2VoEcu89d5dnnsBDpRk5+XRo7ZYvN70mgEDuvp0SyHHQZo+CVrspsQgkXzQ+wIsGiYs/CZRA8oE5BlHVNM+eevJwk9/Q35hMJv2A2yzur08g7dT6UPvjj0A6NUvWmL4IJL8zvyLtlFMCIZDnj71E/vhzlteuvrSJ9g73PvCISW5ub/OlfdvaBJKaO0aLO4XuBv5qlVdDu3DsSafJRuxrl0svHi3nnT3CNPkikE35C3Onl199w+SgtI/pJJAMkLn0ymsbuS/Y9/G3vKUEklkJNiDIL1BheqsTjj060O7arxURaM4HkhrI6KpKEMhqo4EkGRswGBrI/XuDQLZ1zRxkhvcWyRb/8wjb3St8HhaU1EheEXwV3Rq5wk3FshRlAlfMWQm/wxrXvu6xrDFIIHvt2kN6OjWQtn6WBtJOIKOpgQSBzACBDA2GQBoNZKEU54JAgqgZDSTKE6bB7EyfT1+EmYGPhSCc+dBAlhfD/QznyvPZtCFX8jd6E8idUK2GZQ9pwqaQpNrFL4HsAgJJDSQRte/jGgYvmozCblpRYj/O1l5utUo054/Bj81f3j82wZzcIUMPRGLmO33uYhFIBqF8+uHbfgMjrJ2DJZDUslDbQmkukTj73HM7fBqPOJSLPmV7IJD+iKhzwq1GIKGl5XVlEFFzicQ55+bcHNhnWxBIplmhNplR9Qxc6NyJX37f8sFHn8rtd9/ntZFk1jI1em1oYuVe+MzyJay1CSRTFjFa2i4HDdlfqCH1Jzfecod8/pW3dq4dqrJ8DguDXbY2gaRPIe8np0xEEYPdUHnIl/jTQFIDS00sZVsQSLq2HHIUqxm5gg2tuTGdGbGi36bRUGBDHV6wFy9dZnUxn1tKIL0G0ZX/FAKGQJKQuImIOTlLy8XmzahshHspEppIhMLAnzBEsmDO7d2tjbRF1RjuFoogkeQ2iZKckeTR9oWhX2Q4/7lSkFFLt3LFJlmxPA8FClz3rwlG2VgsxSCSJIEka0wgTtLIABhKGEzmSelJ8EFM9gTMRiLnYRRqbVuEzheBjI2PlMysNGkPs7ExYeMcq2E6Z+5Jm8XYHMP+hxHWpQhoqSh2maK5LRzJwcMQje5fsYXgICREr4PPIs3ZlCrkg1y3ZJ1sWLHBo13ticTie+6eZbSQDX6hNVIGrallxvZHIBtM2O4LZb9mRgNJH8gdjEAyXczBRxwL8Fw+Agb5IP9QS/H91M98vhlsawI57bvv5arrXBpAJZAtY8J23TPHmC/c9kwgP/j4M7kdVVzok0jfxKaE1U8uvOhSry5M28TE81sirU0gfQWlsOQh86D6E5JtJh63i6/v1NYmkHz27LHf0EYpdJgSyVdZR86PPpDMGmEFu1lzvu+u20yKJK5vCwL5+59/yQVjve8THmvKixOQ07aXlysPI/oPG3YCN3tECaQHCl1wI+CTQHKbRVCoIsM/aJjMHqQvCeH10jaCnyCHWI+Cb2DXnbpI1wFdTD5CdoyODJXE2DCJRTQyk2YzEfesX5fJH78skSIEqdB/MDyMZDHGpMhiGUMSyESUP0xBsElMYowZuxbm37KCCmj2UPXFTc5iEQGegkjmeOZTxH6+CGRCYpRk9UqXriBtJIAkjWWVtUhaXofgFNe5cJ5OqcM8WTGLCcIp1EIyOKcIpu06kERfwu9VLKrnxKfHSwyILaW8rFKWIbp6+ZzlUoMIccqA/u3l4CG9Ya3riu+qK4gmB1hkbyrDnFxj+yaQ/SSOGsiUDp4XRDOg9WdHJZB3IVLz3Q8/NjCwukfPHv4jqi2srM/fYRq0SqNdc+WlJlebtc36DJZAPvbks/LSK6+Z3ZuLgGYnJp1+/c13TH9fP3bcYI+sVA3khQYr+x9W1bjquptM0/Djj5VbkGamKXkH+e3uvu8h02V7JZDUEB0Bsyj96+ykwt95MQ/liaed1ehFyl/ABUnP11O/NTWy7WMySIcJzlubQL6FzAD3wkfPLowSZuJ1X5pYXwSa+z54713IgTnEPoxPH8imAu8CSeNz+dXXy/c//OR1HOa/ZLECK2eifaMVWW9v4zL9rK0KOtuCQPqK/u7apRM03K82eoGehyjOEedd4DVFJZBecOgKEGiWQIKcGLFsrfiMwPMtqaZS4qCdpMQgzU7v3RDogmAXy08xNjpUklHeLz7GRSCZGmfm9wvll2nzJR8aRxLUSJiEU9ukgQxCS4gsDSSQyW0T4LuYKvEgiZQaRCfnwLcxH4EtddAeUhIQXZ0C03RKG1eKIF8EMjEpWrr3SZfuvdogDQ8IJIkg0gYxcXlldQAKKzfH5LM2l0nDbf6VZhK2P9QmJrdLNME2cZg3zfjlpeWy8LclsuSPJVLNEoiQgTt3kMMP6iv77JllzpfzXgtT+VpoYSuRgojin0DuAgIJK5Z1PUxv9x9iiSjs+ZNdPuj2TS213OImbCZFPmb4aR5HdJb42mfvPQM+33seeBjVQVwBDIxqpJmQZj+7BEsg7eUSzz3rzCZr0ZIcHIv8fsxhSVECuWUayL9mz5GRF7qCUvbdey956rEH7ZfQa5kJn6mpsnIWbq8E8ndoFC+ARrGpVDD2E6Mm68hjT5KCwkJ7s/GXvfHaK70SxJMcsszi9TejlJ3DlPn8c08iWfqgVieQTEdlme/tJ8Q0VkyMzRyPlrDvpVde16guNC0LrGPuTE9jFROw9udnU+bxQAgk83qyShWxtQsjyy+5aLTXc+X3P2dBC9j4Qd0XdeypYSVJo2wLAml/5lnzTE9LM9Vq7M8+mgvvvOd+E5xl9eOnEkg7GrpMBJolkOzEe9r6buArEoGI7ET4RcbV1xktoa9AlyYJZC4IJCQS1VNIHlNtBDLFTsRwXAajbFqVL5vsBBKaxxT4N25TAmlmiHgVfJeaI5Akvs55s072wt8Wy2IHgTxiaF+kJssyhSjqgCnJY2AE0qaB5GOKjxnrumB9h8sDuXzFCtS+PtdoXZhDkLkEgxGWSjvwsGGmbi3NfR8jPQZLhdklWALJWrjX3XSrGYIP5o/fe8NnuUS+lTBq9mN36iHuoARyywgkcyCeiAo81CZT2+PS+sTZL6NZ5o/7a9D2PvToE55t2yuBvOu+B1EJ5CM5/1ykzRnrrQXyTN6xQE3sNTfc0kgLSd+2c/Ayw3ynGxHI8N4HHwtNmU5h+U8GivFNvrU1kJzbg488gev1tnOaplLK2NHnm/Nh6qRnnpvoM8cgqwExQM4pfNngS4ddaMY6Dxjtu+9eJnk5o+OZD5MSCIGkSZovs04Cz/2ZfmjUyLOQzihevv1+ujCJu1NIzJ578lGv4gfbgkBORIqfZ5DqxyljR48yQSskkXwxfxR17L+e9p2zm1m/C4F8Q/bbx3zXgr1PfA6ojf9qBAyBtJ+BjZQw2zVN1/x+hWGZpIW8JXpzrSThX3yISwMZHRst3QZlSdaALOOXyOFiIkMkIRYaSJiwOWQNzL+/T18gv323QApgDqZQW5neIUPS22fA19HlK0lTcFxqrCfimSbl0oIyqSws9/gXRqOmdFxagri0fSB50C4akrcm32j7yK+SULu7Z9+2yFfZBlXcwo0JuxQayKJmTNhmYrY/gRLIxPQ4SW6fjKTn8EOGVJZXycp5q2T1/DU4d5cGshei1vcZ3FkG9s80vqSgEVJQjLKIyD1pBRb51kAiCrvLYHcQjW1yWOSzh99jE4U9ubF7i3fvbbfW4hpIRhL+8NMv5owOO3io3H/P7UGf3VlIJzJ3/gKzH2scX3HpRV5jBEsgmZbj0KOO94zhS7NRXVMj1+KHnnPng/jb6T+a/kogt4xAVuAHjzXQ+UJA6ZbVFZqc503daNPg/vMwIvUZrcxr8suvv5nyd9sjgTRVleDXy6cmI7oDKXVonedIpAf6C2mCgpUwPOAnTXwGuTj7m12DJQZbOwqbk6CWmFpIao2DFdaAfg+1sGNiYhrtyrynzH/alDBtE9M3UQIhkOy3ePFSOfPc8z1uMWwLVKj1ZTlPe9WcbUEgZ/89V867YKxHGWSfH6O1maydSf5r3Rkq7NutZc7xADy3GNAU7H1ijaGf/x0EXBpIUC6yPKegLRz/4lHXOQmJwenLSHNtUmyEpCFIJc4d6BKOz5R2KZKGf+Huqiv08YuKcP0j7aQP5NxfF8usHxdIMXwKKbGJsdKpdyfJ7JEJAgnrIRgVa0mXFZWaIEn2icBLUQYCdDIyEj35HKtggi6HP2OF2yeRJC8fybjz1m5C8IqLrCUh+XdP1KHujrQ54SCQNJlXwa+R+6J7wBIQgQR0kcAnFn6bxIIsm/tVI5CmqqLK+FHygDGhmyUegUVxyCpEtFnYJw4YJKTEGpLLPr4JpM0HEs968wDg9QJxtIRJ1ncYEzYT4LKaBR9glAnIucaaxcGK3eTMB+hXSHtjr9wRLIHk8Z+f9JI8/VzDWz61Gb2hhYiOjjIl2hYj9xrLBzJH3NWXXyqnjDjXTFsJ5JYRSIL35dffyI3/u8OjfUtC9RWaBKmRLC+vQJLvZZKTu8n4zzFP6ElnnCO5WN8eCeRLU16Tx5561vjCMRWM3bRobpQm/tCce+W1N8rsOXOb6OW9iSbeqy4fJycPP94TJRgsMdgWBJKzXL5ipXFPYER6oJKSkixPom55fwTd+JLFS5Yhan4kgl78/wpsCYHksd794CNhOiF7PXJfc7C3Mf8p868yb6ZdtgWBpHaR2Q/Wrl9vP5TPZbqDsGQkc4w6xcq0EOx94hxH1//9CDTSQFqnxJ9mcBTWwm4Pv77OSSA5IC/GTxG+h6lIbZMAwuRiQii3hwo1TPFDjZglXLRWqUlcBHPuApDI0gIXgUyAFrHHLt2l+6Bu8FMMNz6OaxavRVqfFYYQchxq9Abv20t22acngm1cASo52cWyclm+ZK8rNhyCFsH87DzJQ97FaotApidKr916SPeBWYjoxncT58NTsnEua5pNfgZCIDmAOVdqbN0nzMCdZAT6JLdFZDq0q5Tc1TmyBhrJjSuyjdY0HJj16dte+iG5eLLb59MfgYztvIs7kXgDvmZQ93XaoRKJ2yuoMO0INTVbIiYJOYioFQ352EP3GVOyNdaWEEhqxOhf9uOPP0PtzavjLbxB+KPBgBi+zVtJiJVAbjmBJMIPwjTNfHP+frxpkmRgUyekw6HJm6bv7ZFAnjVytMydN9+kljpk6IE8taCEdaQZnPXV1G9QstPlWO1vAPoUjr1wlLA8nl2CJQbbikByTjm5uYhGv09Y7YYPen/C79KugwbKrTdfbxKv++vH9mcnvCA051ovoM6+W0ogOc50fO8fe+IZWbFqlXNYr3X6tx53zDC54rKLG5FHdtwWBJLj8v44f+w4JBFfzlWf0r9fH2FVnFJo9c9Eknynr6wSSJ+w7ZCNzRJIaNQ6JsdJt5R4lOZzEUinv18gwLH83xLkfFw4Y5ExSXOfxPQEkLxe0oMEEiSPfVYtWC2LEXyyaT2S9OPnNx4m7b0P7Cd7HNTPlEXkfhvWFsmyhTmydnWhIYR8rpA8kkTWwGeS4hq7J8bu7iKQpjX4P4ESSOfI4VFhko5goAykPLK0suuXrUdQzTJZs2it0UqGI4p9APJCDtqli6RAC0nxTSD72irR2AikRU/QtEMRyOtuvFX+nD3bAEbT81luc5NpCPIPfRF/+nWG2euQgw6U666+3DPCKWeeA7+mIvgHRMkrkyY0WQ/Zs5N74fMvp8rT4ydKMarC8AYNxQ9cG2gjL714jByw/76mF8kOo20prNl7x62uaGLT4P5z+TXXI0BgoVm74eorZehBB9g3ey2XlZfL2SAgrHVM7cHrL7/otd258sNPv6LmsCt/4O67gtTeeauzi0x57U0kKH7dtI865yw57ZTGSZNZheXSq64zffyN4xz4wosu8/zIPoRo2YEoGeiUDz7+FNrciab59FNOkpHnjHB28Vr/86/ZQv9BuhLwi0vfm9jYWBl9/rly/LFHm7c7kgbWTV8GH9rOHTuaoAyvQbDyzITn5f0PPzHNI88e4akO4uxnrV982VUmZx61hSw5SH9Cf/I3yCG1hJS0lBR545VJnq7F0LSxLGIqMgo0d+08O/lZ4D1AXza6SpAA1PEexBsuiVYm6i2PPv88Y4q03njtwxCjCy++TBjdbZfRo86Vk6CpdMqiRUtk3JXe0e9REZGmtrOzL8ceh4CTxUuWem06ERH0Yy4Y6dVmX6G/4xNPPWdcTmpqXXnPaBLjw7V/374mZU6/vr3tuzS5PAfm3NuRxWET0tXUuSs9UDsSHhYu48ZcKCcOhxsBhBV2mCzcLqzxvdceu9mbvJb5fWdt7EkvvWL2rUUOPP6Y8X6MRjWZg4cMkYvGni8M9PEnxOfiy6/22sz+DPbzJ2+/9wFqbE/22kz/7k8d5TJ5DSa9/KopY0iTdb15PoXCTzNOLhh5LojtUR5t9A8//oKI+EdMeVTux+cYCSSzAwR7n3hNTFf+Ewj4JZDus4uGabQjyE1rEsi9SCBR+YZ1tSmGQC7KlbWrUBce/o/0gczfmOcikPg+UJwEkvc6xfXhWua69fy0PtlmFw+BNP6VNUaLabY3DNHQ3cbtaDZPR6APq+Gw/CNl/bINsuyv5R4CSa3tgJ06yMBBndwayBBZu2aNTEUpw+nTvoU/M9x/PKUMbRpIajnd52NNaIcLomlAfftdIkGkCZWf/KGLhU8Wf0RUth0C/KLTH5I/2iRLsTGxxjyy7Y64fY9MfzYmI+c9yHuPvi5MHP1vFRIeJtk1L2UgfFFR0fgXuUWnw3ulAj6W9Es2BA8PZFbQIeny94MQzIE4Ps3GrDzDZdanJ/bBuCUEc7xg+zLwrMJ6PuHlhz6j/FFyCjXZ5RXl5hwiwiPQL1qfY06QdtB1LwJJUmQjQYSEJuyOKa2ngYyDmXzX/frIrqh8E+3OsbgBUdlL56+Xtcs2GQLJ72ZpUYmUFCJXo/tlshGBBMmsRkqgaiQxr3HnXGRgUCT8O5mQPNTH94bnT4JKn80ipNthonAKj1GFcarhh2kRuHAmN8c4NF0TwhA+i5AUPRJmd77YUjatyTUa1uyVqOqEOZMHdugQLx07JUBR4nKBycsvlL/mLpK5i5dhnniu4ZkfgfQ9MendJDIhlSOT9Zr9zSfmR1ECaWDQP4qAIqAIKAKKgCLQEgh4CCRJCQXExi6tTSBj4APZf8/e0n+vXiZhOee2YcVGWTp7laxZvN5oHzlnlg7kP4vQOQkkX1hLkbSbJQeryivNKTJwJzEjwVTR4cuhLyE5ra7E2CCfVpWZGvhZklAWIwE4CSZfVuNSYsxYMaiiQ6HmsryoXMoRYU0LAaUwp0hy1myEpjTfrHOy4eGVqNZTiQAl9oHyZHOIZFeFSmE1EqSbSwGrSlSchEUnwJcSY/MyWdeKoyiBJAoqioAioAgoAoqAItCSCHgIJMkKNWVOAtnKPpC+cky6fAlpCl5jCJwvvJwEkkF3BdlFksd61YUuAmn8FFHjOgP/LD9FX2ORRNqlsqxKcmHSLlhfaEilCSxql4CURKkmtRD7knBuQvJxe/7KkoJiKcjJl+L8IjNcfT1IZtkmWBFyQYRdpvea8FipTu4oIUntoblERLfFiI3m0ezWQCDd5JGtqoF0Y6MfioAioAgoAoqAIrDtEehxpq1iFImSZR51H7q1NZD+CWRDMIovlPwSSFSVKS+yEUhHoIuvsZxtrJedx+o06xoIpDOwyFcC9KYIZF2di0DWRsRKVVIHCWPZwlC3VpT81a0gNnOxXyP3th0qiMZ5QXRdEVAEFAFFQBFQBFoWAUMgbRo2mmMZ3EaOQiGB7IT61FnIqxgODSVrVieh5jNT1MQkWr7YrvyQ9CO0fI9pwjUBLmZsBLogB+PqeStkxexlUgHTLnlPPCK7O++UJZ36djG5GuvQZ83CtbJ89grJW5+PPvWoLY0k5QO7Sreds0zlGs6JvoRrF6ySnJWudDjUmlZj32rkeLROxReBzIfGMHf1JilDUnIen5HfGV3SpW2XNJNGiGMHIhUwS+esypVNa1Fe0QR7sgRjkom6jkMCc0otclRSQ1mASjOWX2bRpkJEl2+UglyasHF2MG1XVRXBN7MIGkiY3zqw2PoAAEAASURBVCF1ETFSmdAOUUBtQBrdBBIJI0NIJnlRrAtjnajZaweLwnafs34oAoqAIqAIKAKKQCsh4DFhu48fA1KVhGCQCKSYIcuKRYLsDiCLHZHI2wo0MQTTHRjC3ULhPxgHMslE2lafKlRiKQPRqiqDZo1kB/8iKwrMv1BkYaDUIdNDdXSK1MQkgRiFGsJZkFMIzR5InptkMigsHkE8rDrDPJOUaKmWxNAqiQupNoo5ZqhYsaZMlq4pRbCYqzpOIwKJwBf6Tq5btN74InIcVsLp1LeDdOrTEeTUO48rt/uT0sIyQ3TXLd5gyCFJc3LbZEnLTJXYBFc6Hu7bQKBdI2UvXymL58yB7+ZiuC5uxtxDTOBbDDKNhCF7BKVGQqUsJELKJVLq3WSxHj6QIfCBDA13+0C6hvP6qxpILzh0RRFQBBQBRUARUAS2JQJ2DST5SgYqo2Sh1nQcK8NgPRpRyvTta4PE4SRwDEZhVHIh/AkrS6vM1MIQeZzWASlr0MfyJSzOL5WCDYUm0ITkkUHOAzqFysDO0GDGQaOGPfNK6mXumlqZvw5BMOR94JnU1rFqjRV4wiwU9BksRf7Tzcg6QOnTNUH23SVNBvXGnFDxprpms3w/I1um/rJRcvNdc3ISyFqMu3r+aln65zJoAaEBxLGikRao1+Ce0nNwd0MmzeAB/CncVCRLkc9xxZyVCNypBfcFgUxPMjW9Y0AgSSjDkLonpV2S+WcR38Wz/pBfkaJn3q/IMW00l6HSLrO7dOjcG0Qy3uxXVV0lRSVFUlxaAtigucVY1XEo0QyfyNDoxMZ+qm6SGYXsHPMmjQtg9tumS4uXMtw2p6GjKgKKgCKgCCgCikAgCHg0kCAiJHVtoenrCZN1oju1VlRcpMllmA6CaAgkiE8+g1GcvoSOYJRi1LvOW1cgRYh6pgKSCs3BPSNkr95RkpYUbo6VU1grMxZVyazlSK/jypDTaMr0JcxnknAEn2wGCaTs3DtJDtu3vew5KANRzKEoT1gnX/2wXj79fp1s3OSHQCIFjzNJOf0re+/eE/8Q4Q1tZKBSmFski35fLMtnrYCpGgQS2CWCQKZkpEETC20h1n0lEl/w+2/y06cfy5wfp7tN36HSsXNf6dJtgMTFQQsLYdqwoqI8/IMJH8DVQzNbGd9G6pM7SGhMsiH1JL8GQLMHl5EODa4G8yZdYrW0+KcSyBaHXA+oCCgCioAioAi0HgIeAglSwkIFbZRANnsxWo1AxoJAkjxSyPZBHA07R5sxYU9WAmmw0T+KgCKgCCgCioAisG0R8BBIHIZ8pC3KFgargQwJ3SwRMfgXh5yI7riP8oJy5EosNb6MzFUYgXrQ+w1Kl4MHt5M2adGG/2TnV8vPf5fKbwsrpApmaLIimsBZF5sVk6jJq0dBic3lSHtTWQqu5NJA9uycILvtlCb9e9KEDQ1kVa18Mm2pfPDVYlmfg9yMIFRxqN3duXdH6dArU8IwHoN4spdnw/9wHeZV5OoDbeFO++4iA/YdiCTlruCXQND2RSBjMVZiSiJyVboCiyJgUs7oBLN+h3Rjzua4i2f9Lr9N/ULmz2wwYQelgfRFIN0TVhN2IFdO+ygCioAioAgoAorAVkHAm0CGbJEJu6a6QvJyl0t+3kqYZl3paKorak3Vl2ok3abaLDIiQo45eICceMQg6dAuxZDVdTkV8u1vm+SHWYUmgpqNsfExMAMnSCRMyiSQkWGbJTOpVjom1aEWt0v9lpIUJZltYiUjlRWVQqQSORff+XimvPbBDFm7HuUNcURGWCelJUoCzPEM7GES8DIEvxTnFUslAnwoCclJsvuhQ/HvQAS/+C9Lajrb/jgJJDfxeJHRUYYAUznIUoZpmWkgkGkw/bsCZFbOnyNzfp0mS+bMNL6krCwWFIG0TNg8INm+TZRA2sDQRUVAEVAEFAFFQBHYtghsDQJZXlooC/76XhbN+RlVW8pcEwaLMz58VAdCoqIj5czhB8l5Zx4uWZ3aGnK4Zn2ZfAHfxW9/3SgVVa5SrYlpSagMg4TcCS5fQpa/3q1XhOzWPUpiol2kicSSxBH/m3EqQFJfeesbefH1L2XVGta9dx2TfULgQ2jUnZ752FL9pKbJAcefIPsfexyO5/JBNJNt5o8vAuncJRwayLR2aZLaLh2k0qWWXbt8viz86wdZuXiWwSZwAtkWPpCZ8IFktDpOmqfHk7eJMWG/qEE0Nkh0URFQBBQBRUARUAS2FQLeBHLLTNgkkPN+nyYLZ/2EOvduAumYcDQ0dGecNFRGjTjSRiBL5Yvp62XajI3QIiKtDciRMxiFBHLPPpGyRy+kCYoGGfQhhkC+OVVeeP0LWQ0C6aKPPjo6mpLSUkEgh4NAHr/VCSTLJKa2hQbSEEiXBnLt8nmyaPaP/5xA8jxUA+m4mrqqCCgCioAioAgoAi2GgDeBhAk7Kcb4QMZHRhrFXVRchKQyRY+JwnaZgguRHDufJQGLXabgwAhkpJw+/EA55/TDpGtHaiBF1maXyzc/Z8v033NdBBIm3USYnVMzmE8xzpAklpbevVeU7N4zqmkCaTSQXxgNpLP0oD8wE1NTDHnc92hqIJEiB0ISy2Tp1A76kyY1kG7FYDhM9iltUkAioYF0m7DXrgCBnPOjrFo8u0ED2amPdMrqjyhs1/GrqqqksKhAiksKTSqjesyjCml8XFHYbg2kgzwyfj4SJSfnqQbS3yXTdkVAEVAEFAFFQBHYmgh4CCTUdsxnmBIZKp1iwiWGiRtBhiJhio1PjZW4lFhDqqjdq62skxr821zr0vX5IpChqOMcGRmD4BmoEDFOOIJidt2pi+y5aw9JTXKRw7r6MKmqi0MKn1gQKnQCMYqNj0NC8ljjA8kdmd+7W7twyWoXIVEIxPEllTBhv/HhzzLl7e9l7bpco4GsQ85I+mbW1LjKFvrajwm8e+66q/QauItExrqCaJLTMqRtp04gfsi76IdE+iKQEUh7FIUE7OHhmLA5FVdAkMmL6TY356xfKisXzpT1q+cbAkmympLSTtIyOgArJgkPkTpEIVWGRksV/iEkybRtRv7HkNgUCY1EknI0GfbNE6J7gJtMqgnb1xX+j7WVl5fLGeecLxUV3jf1bTdfL3vvtcd2ebbZG3PknFFjvOYWAfX8lEkTJCUZaQVUgkagqLhYTjnj3Eb7PfLA3dK/X99G7dqgCCgCisC2QMBDIDE4cvlJzOZaSaurQbUXFzkMRaJuBoGEgVi6uAuqp4DkxSUkmNyJJEG+CGQUqqfExaUiujkJHIfED5HYoZX4VwVi5oqmzoR596D995D99xmEkomR5vSYazIMZJNR2BRyr1j4PsZEhSIZOWfQWBhE8/7nf8obH/0h67OhucPUSR7LSvKkvBxBNW4/TOee9JGMS0qCtrOhyk63fgNk4AEHSp9ddzPzcO7DdSeBJAZxIMVJackmmpvrtcg7WVpUjH9lJgKc+xXkrZLsNX/LppylZo5sI+EkeQy16l5HI7K8PfJSZvRA5ZkIF0cEGQ8xxBSYODAgIrxSUSCw8168mEO2imgeyBaAvbSsTA4/+gTc1BVeR3v0wXvlwAP282rbXlbWrd8gR59witd0IqCe//yjdyQtNdWrXVcCQ6CgsEiGHn50o86TJjwtgwbu3KhdGxQBRUAR2BYIeAgklVmgIpGohJJcVQkCybQ6jYVaSga6pLRB0mx3oIsvAhkTgwho1HOOTUg1JuHNm+uktCBHios3SK27lGGPrPZy1smHyGkIrolvIo2OW8nWeDLulsrqGvnwyznyziezZV1OsWmtriqXksKNUlIMjSTKBjYl9vF7D95d9jnqaBm43wEe07NzX18E0um76SsBemH+asnZsEDyNy13DulZDwHpju06WOI7DwSBhPaW7NDOm+2Tde/FzZHwMVUTtgfG/+aCEsj/5nUN9qyUQAaLmPZXBBSBbYGAh0BicENEQB6T8C/GH4EEgXGSpUAIJEsTlhRko8JKNgikK9VPj6xMOfuUQ+T0E5smkM2dty8CWQMCWRwggbSP33u33QyBHLTfkK1OIAtAIHMDIJAxIJAJnQZJKGqFK4G0X50dfFkJ5A5+A7hPXwmk3geKgCKwPSDQ4/RHGjRcMPVGVFdLQnWlRNm0dqFgMUzBSOUXzbNOAllRWiQLZv8ki2f/gjQ+5ea0EpOSJS29vSSnpBkTNmto5+dmS27uBqkGQaX06NoOkdlD5KRj94UG0pWA22wI8k8Vygl+NX2RfPbtIslGCUWSrqqKctmE4+Xn5SDnostk7hyWmsna2iqphcnekpYmkPVhNE/TT9SlZgyLTZWYjjtJXId+0EC6zPrW3Kw+1rqr+KRrLdKUMtQ0PhY2/8lPJZD/ycsa9EkpgQwaMt1BEVAEtgEC3gQSLnao/BJeWyskjfQdpCdiDNpi8Y/ud74IZGVFmaxevEDWLl+MhOAuctilYxvp37+rdO+G/IXwgWRQy5JF62XB/LVSUgIXLozdqUOyHH1YHzl8aE+JRQDKlkotkoQvXVUsi9aUSEk5imqDQBbB93DxgrWyZAk0nvBH9CUkj5ugFcwvWCt18P2ktCiBBGkMTcqU8NSOqFbjCuIJReBRZFI7iUpEpDr9QN3E0j5/EkdcHbdl20U8NQrbjtB/dPnfSCDL4Lf5yedfel2RMDj8Hn3UERKNzPsqwSNQVVUtH3z8SaMdDz5wiKSnpzVq1wZFQBFQBLYFAsaETZJiBZqYTxdFIRELgfYuFqQwGWZnkklfBJL+fpvWZcum7Bypq3Vp+3bunylDD+gje+zWFcEvoYiGrpNff14lP/2wSvLySSCRczIjUvbfO1X22R3BNtEcfcsEQ0mNxEttaLzUhyIKGpKzsUR++nG1/P7bWpBa3xrIisoSWb5qpqxY9ZfU1LqIb4sSSPyORkDbGN95V4mIZSJzMnSQ+LAI+I3ayKONRDZoHXnWLvLI83X5QGoQDbH4z8q/kUD+Zy+GnpgioAgoAjs4Aj3OfNSFAImjjahYsFAjGVNZKSmGQELrhT5OE7avgJGBO3eQI4b2lb33yDIpfKphZiZ5/O67lZK3yUXWMtLCZN89E5HaJwkE0neKHmseTX9CkxeVLCExSHUT5lJqbNhQLD9MXy0zfl4rVX4IZHlFkSxZ9ossWzlTqmtcga0tTSAjO+8iCd12l0gEzxghL6RY3JDXxCL3tuvTQCRd3Xd4Akl1OTUzObm58uesOfCVyDVOrO3atpHBu+4iSayPGYX6mC68Gv2lityZHocaMiuJJ3dgks4VK1fLzN//MMfq1KmDSZ8THxfnN+eT80A1NTVIelolf/41R9asWSMlpWWSkZ4qffv0kW5ZXRBOH+V3rKYI5AH77dMoOpvHZh6uSHeKA+dcuF6K4zvFed61MElU4CEw5+95smrVaiQpLZFkpODp07un9OrR3cyZqRN8yebN9ZiXy6/Fsx0XIQ45tPgwcQqvYzX8aPILCoHRLNm40RUFl5GRbq5jOrL/E6OWEp57ZWWV/D1vvqxYsRKmjWJJS0uRHt274/yRLgFzCWPOMz/CiHn671jC1A+xOHdLuK2ktFR+/+MvWbp0udHKMpK6d68eZmx/GJWVOTDFgDEx0X5TR1jH009FQBFQBLYWAp4gGsez3PVkB00hgYTPYnJNFTSQbgKJKOw0lBuMTXTVj67B73Ze9iYpyMlHzWnXs/LfQiCXLp8BAvmbh0D2GcwgmmNk5/329+IOdrx9RmEDk1QfmORvzAMmLg1oYcEaBNEsRBT2CgwHpggtoxeB5DXA760XyXFcF2seTgIZhYSZc1/YQTWQ6zdskJtuvRM/8KsMuXHmbeKPMHMO7rP3nnLjtVeZH1oLSOtzJn7AL7zoUmvVfN6AvqeceDyuSb089cx4+fDjz0BsCrz6MCVNVpfO8vgjDwjJqj8hUZjw/CT56LMvJCcn1/h0OPvGxsRIhw6Zcsf/bjLkzLm9KQK55+67yUGHDzPE1r7f/vvuLU9gbr5k0eKlcvrZI42vin37u29MAZntappef/NtefXNd0DkcuAw3NgXhGSzc6eOcv01V8ouPlLIBJPGh6TxnvseNC8AhUVFjebF65iUlCgDkOvw7tv/J4l4KdhWwnvodZz3G2+/K8xlSeLvFJLHzPbt5JorLvWZh5NjnHzGObJsOb/wLiFx/mHaF4Y8FyIdz5XX3ijzFy4yLydWH34mIk/a/vvtLTddfw1quHo7iKsPpB0pXVYEFIHWQsCjgXRMwKMaAPkJR9qdGPwLJbfBhkQEvKQh2Xcs6ltTaLYuKWTOw1JUT0EnyL+BQFZB65idt0RyC5cjkMZVVadr3z6yE5Q5PfFbyPyXvsQXgYxJiJV4EOqoGJdypAZKlNzstSDW64GP67ensrJIyktQdQe5KY0gv6O074ugmZ1dJmwLdD+k0ZqLkzzyolDRNO/Fi6wuLf7ZankgP/rkM3ng4celzKnl8gNBT2jMnn7sIaFGyy6+COQpJ51gyME9DzwiH3z0SSNCY9+/U8eOMv6pR6U9CIVTcnI3yVUgCnPnL3Bu8rlOUkqie/yxw7y2N0UgmQfy5VffkEefeNprH2rHvv70Q2Ssb5y0+5obbpGp077z6r/zgP7y0gvPQetWaUj5tO+me233t0Jyd9Ho82XUuWd5aRYDJZB/z50v19x4iyGq/o5hbydxe+CeO5E4u4+9eassk8jedOsd8uuMmQGNRy31mAtGmnO37+CLQHL7R++8DrNIjYy88CKjfbTv41zeddBAefTBe0CWXaWquF0JpBMlXVcEFIHWQMAQSLwoG2bomACJCtPv0A8ylJ9GNVYvsSH1kgyjTRwYJTkPFTTUQtbCTG3Jv4FA1kmtVIeWS3VYhdTjnCgZCP7p3CdL2mV19GtJdBJI7keyGY5ygrTkERMGE+WsXwSN41JP2iLGDoQhITj7sk891mvTuklYBv5FQ5liGrGBnxQHkXQ1WxtdXay/USDzc1/YwQjkrNl/G61hjQ/NmAWMr8/evXrKq5Mnepn7fBFIatRGnHGqXHXdTb6GadR2DAJD7rjVuy9NvyeddrZQSxqMsFrL6y+/iCi0LM9uzRFIau2GHXeylFe4/DGsHR++/24ZeuAB1qr5rECfAw45qpFW8X83XScnHHu0vPDSFGhdJ3jtE8jKA/fcIYcefJCnayAEkhgde+JpsmlTnme/QBZ6dOsmr7w0UaKaMNEHMo6zz6jR46AFne1sbnKdX/yXnn/Oi9D6I5B33XazPDP+edwT2U2OaW087JChcv/dt1urSiA9SOiCIqAItCYC/jWQFlFxRWMbMkOiCWGy8QS4ccXV13q4jvMc/g0Esh5VdiKSIiUyBa5xbheuhLQ4Se2YgkTpqE4TRClD5/kzkXn2+jkgkfNNqiButydXJ571iE6vSuog9Skgq5FxLuJI0ujG2U4gravRwC7dR+QGXJYdzgeSJsVjTzpdsrM3upFo+LD7jfFH3Cnc/t5br0jXzp09m3wRSPbjTUD/SPuY3MnXuPQ1/BHmSWoQLfn8q6ly4y23W6uez0DGG7jzAJk88VnPPs0RSM7ptLNGyuIlSz37cOGUk4bLDddc4dVGsyrNq87z+ODt14y2cgjIpVM4533hBtCzRw9ZuGiRzJj5h5d/H/vTf48VUSwJhEDS/+8Ch/sA909DsfqhiCyOhqmYOG7Ka0wwr73ycjn91BOtw/3jz1lz5sp5F4xtNE4g1ysJZa2mfvaBx/eF2DpN2ByYY1m4BzIu+3wIrWWnjh3MvFQD2ejyaIMioAi0AgIkkG4O4jm60TTimWWYidfPr4tMughkJQgkflc9e3kv/BsIpJBAJkdJZHI0cjFCpQpJSI2TFEMgE/4RgawCgdy4fjYI5AKfBDIEvIQEsiIxUySlE4KAYhtpHL0Rda15zNcG+IYrx1KGO5QGMi8/X4489qRGvmnXX32FHDx0iCTAh6wGZsKly5bLpVddh9xRSBBqk+HHHSO33Hitp8UXgbQ2HnHYITL2wlHG7E3Ic2GS/t+d98qs2XOsLp5P+i8eM+wIzzo1a2vWrvOsc2HfvfaUq6+8VNrAjM4alvkF+fLUsxPl8y+/9uqXkZ5uSv5ZASrNEUju/BsCfEZffLnXOJnt28unH7zl1fbuBx/JXfc+6NXWPStL3nptssybv1DOHjXaaxvJ8csvjDfBHdaGOX/PlXMvuMhDhtjOuf4yfapEQM1OCYRA3vfgo/LmO++Z/tafnWBKH//0Yx7/P/pf3n73ffLJZ94pgXYa0M/My9rvn36eNuI8WeQg4AN3GmDulXZt28J8ECZF8F18/a135KVXXvc6HP1IPnrnDWnr9oX1RyC5E7+wN99wrey522Djy1kLP6DsjRvlngceRvBQY+3noIE7yYvjnzbkUwmkF+y6oggoAq2EQE8The2ggSCP5I94f4bgj/XJNTSGI1l4fGUZckPWeGYdCn8+/hZaL9QDd8pEfsc+ss8eSOMDN6yaqjqZ8csa+Wn6KiT3dlnY0tMjkOYnQQYPQhQ2al1vuWC+kdAYRiMSmzWjQWs3ZpfKLz+slj9mrkfi8gbTuv0Y9SBxIdBAhiTGQAO55QSSmNSDTDNhuaVYqKkpl7yNi5E8vcGEHR0dL3Hx6RId76oPTgJZSQKZ2klCUDvcKa6rwr92Fu++Vu4PnisxpwZy7vONFSfOMbfVeov7QDLa+sXJr3idT1xcrIwbe6HnJrQ2jn9+sjw38QVr1Xz27NFN3nr1JU+bPwK5++BdZcIzj3v6WQv8ET8eGlBGJNvl2GFHyu3/u9E0kfQ89OiT9s3IzxQiF4w8R1JTUrzaqTU8FeTFLjEIqpk+9TOPRisQAsn9h586AtHiq+xDyZQXx8uA/v08bWePGiN/z53nWefC4w/fL4zm9qURZCDHx++9iQhk7/rVJFJViFK2y8nwHWWwCCUQAnnDzbfLF19PtQ8hBx2wvzwC3z+7LFy0uJFfYnJykhx3zLBG19y+X6DLDHR6+LEnoXFuiJrmvicNPw5R1928hqH5edjxJ3u18UH39msvS1bXLqbdH4Ekyb4Trg5HHn6o1/5cYXT1yNEXN9IiE//PP34X2QQS1YTdCDVtUAQUgdZAoOeIx7wPS65itI+uD0OIPPyFRGmz1BVkS2jBOomoKDTcJgx5C+PiMyQW5CgMlVUoA/tlyGFDsmSvXTvi9y8UWrjNsnxejiybnS0lRfy9qZeE5Ejp1idBuvZOhNXvnxBIDBdGLSKIIANTIEUF5bL8742yYv4mJBL3nQeyBgQuNzRK8kOjpQ5kkrIlGkj+7lQgMKasdBOUXmVmHJ5fSAgTslNL6wKwHmsoLwNgXUTb0kCGNEkg3cNhFC/xXCNX+w5HIO1g8CZlRGtBYaGJZnVGC0+d9j0CTLy1RSRw33zxkWcYfwTy2Scflb322M3Tz75w6ZXXyQ8//WxvwhvRYKM582p0rzAdTF5+nkmdQxO89bbBzbnw/3P6WjI445fvvw6aQD7+1HMyecqrXlMgCbrpuqtN20ZEgR9xzHCv7Yxu/vyjd43GbznS1Zx42lle27nCc7t03BhJA3bx8XgbAmG33hgbdXY3BEIgJ095TR5/qsFUb411+SUXyZD995GE+ARzPGrtmpMrr71Jvv1+enPdPNvpazrjh2k+z4PXiH6ZTLNTDW02H36WFBeXyLgrrrFWzSexePOVSTDxdzfr/gjkHrvtinuk8UuJNdiXU7+R62+6zVo1n7wX3kN0fKdOHZVAeiGjK4qAItBaCLgIpJ2cGAZpcUgzLReJRDuej/VI61O+YZFUrp4lmwtdcQEREbGS0b63ZLTtI+ERUWafnfsky2H7dZA9B2Xg9w8JgPBSX7amWMrXFsnmCpdGMDQ2TGI7JEhsJszFbhPyluOAcwAhtCZeU1qFYxVLxXooiFCpxpeUglfOKY2U+RVRUrX5HxBIYJKftxKJ1BeDROaYQ0VGRkn7zB7SrkM3YOL63atAxZ6SEswJnxRLA1kPAhkaCYWNmxRym2WqBmX3LLPdq4+tfySDaCaOMV1a40+LayCtkyRpvA3mZEbM1sJXkTernZhZ/ZyfjEqe9sXHnmZfBJK+jL/CHOvPGfaOex6Q9z9sGIOD9evbRxig45Q33npXnn5uoolursMbRyBz3FICuXbdejlm+KleU+jVs4chN2z87IuvTIS1vQNT47wMLSVJEOd25jnnywJo/JzC7dSgsTpATGyMIZWHH3qwOIN0rP0CIZB0Rxh2/CmNUtlwDB4n1H28Dh3ay/777guN41HSFamTfMnWIpBffPUNzMkPmdyg9IEN5HoFSiAZqU5NuT9hOqrhp43w2syx35jyovA6qgnbCxpdUQQUgVZCoNdZj/t8NvJ5RcFPCf/yjxESyJJ186R8xe8gkOvQxhQyMdImcydpm9kfmsRo02/n3kly2L7t3QQS/n5I71OzoURqQejq3Ym9Q6LCJLx9gkS0i/eYkF1H+ed/68pqpCa7ROpyQNbcqYWco5aAx/5eFCGzS6Kk8h8QyDpgkpe7DP6Oc6W0xEUgo6KipXOXAdIpqx/wcWFSWlqCPMT5UEAVmalYBFJSO8MEj1KGbsyteVok0qw7trHNukbcL5I+kBNHW7u2+GerEEgGVjzw0GPC6ONgJRACySCOqZ83aCmdx7jrvofk3fc/9Gp2EsiSklK56LKr4Fe4wOcXzWtnx8qWEkgOw/yC337/g2dEJpn+cdqXhgz7mveD994phww90NOfJlqSyECxTYBGcghSCV2PYB3LfM3BAiGQJGevg2DTfEx1fiDSpXMnuWDUuTLsiMO8um8NAknN4s+/zAj6egVKIC+/ZKycM+IMr3nbV6iNPmzY8fYmszxpwjMIUtpJCWQjZLRBEVAEWgMBfwSSc+Hz0PniTQJZCgJZpgRSls9aYVIX/RMCaYJoQCBNEI2LrXuIpIvCu7XDzRJI+EDuSBrI1WvWIuL4vEbVYwL9EgVCIDPS0uQrRNX6E19EzE4gWVFlzCVXyF+z5vgbosn2f0IgfwIBGne5y2RtHeSeO/5n/O6cPpLpOM8vP3mvkaaVmsFnnntevpv+Y6ME6taYzs99994Licvv94wVCIG0xvj+h59kyqtvyF8ITgqESFITyrRD9DvdGsJAliuvvQFuCb9s0XABE8hxIJBn+SeQ9O89/GhvFwNOaPLzzwoDelQDuUWXR3dSBBSBrYxAr7OewIi0qDUM7NFsoYnt5C4WkbQIJDWQdU1oIHt2gnWrX7IM6B4Pixd0aRgnDrqFWPxDpWdzMGogw1JiJCINrlTuIJaGWfyzpYqiSslfmiuFqwpkcw0OipMIQSBpCDSDYQiWpFRA67isJlpW1cWglrbLhB2dEC3JSOGTkBJn4h143jVV0GYiEMdKkl6cjxrac1bKmgWrjH/lPyaQKSCQ0TBhu8F2U0bMsGHJTNhBIs11crcZH8gdhUDyXr1gzCXyB0rd2SUhIV4uvWiMMG+evUrJG2+/J/c/5K7Z6d6hJQgkCdHlV19vn6IhVkcheGLUeWebCi6WeXwdzM5HO8zO/4RAskThwUceY3z3rAkwpyTJHc3Fdjn6qCNMUIe9zb5MEy5zbv74868y+++/TRQ6S/RRO+mL6N19+y1ylFszGAyBtI7JuVN7yohyBs5wnX6IZWUu3w+rHz+ZEP4TBPc0Va7R3r+p5SVLl5lAJuthZ/U9cP/9ZOzoUSYnJ0krheT6kCOPs7qYz0AJ5HnnnGnuU6+dbSuLFi8x6ZhsTeZt/o0pk2DC7q4E0g6MLisCikCrIWAIJHmKm0FahNHXhLitHpHXgWggM8AUuySLZKJ+AuJO4cYUKj26paN0bltJiIOfJNqYOicUJfhCY0Ep2WkrSkFOscyfuVqW/rkWWkI4O2L88OQUCU+HT2acqwLaZvwWVCUkSg0yvnCZEolk4NGxyA0Jn0LOiaSxJL9UivGvzh2MU15ULuuXrZfs1dmyGcFB/4RAViYyDyR8IEkgHdKACMGyNroWXLyR7a71HYpA5uXly6Ew8dl/6PnjPfGZJ1AveZCFlOeTKXJemPyyZ50LLUEgGYH96htveR2XZf/ef+tVj4bO2jh/wSI589zzrVXz+U8IJAeYgOjzZ23R5yQ/JyOYhoTaLr4Sjdu3O5cZpMQAk1Wr1xgNK+tD28UeSLQlBNI+lnmDw7FY53zSy6/i3yv2zfheh8DNgJV2Urzat2SFZvQHHn7Ma1ea/r//+jOv3J7swNRMTNFkl0AJpL/Ifmus95Bi6U5HiiXeC++9+YrJBakaSAsp/VQEFIHWRKDX2fYsI2SImA05iZtQ2udmCORmmLDXzm3WhB1RVSbx1cUSU1NqhouICJN9DuotQw7vL+ntEtDmIj5uxZ95wbYf658ub1hTID98tUBmfL9YqhC0Qw1nRGYHie7aTaJS0jA8CCU0oMkdUiUNeR/DMD8K5+XS7JGbhZja3rlr8yX//+xdBYAcRdZ+a7PuyWoMQhIgBAjuzgnHYcHd5TjcLVgghx0W3A+XwwIc7hoshiQQz26S1ax75v++6q7ZntnZzUR2J/vzXrLT3dXVVdVf90x//awWV0trk5O2qKmxWSqXlJu5v0kw14xAFoFAuhpIMwLnI4CPM6jO62LGZwux/CMSyHBRwqEpVBwYxQSt7H/wkUKzoFf6gkCGmypwh+22kXvuvM07FLN+34OPyIOPPB5UvqYEsra2Vv7KmWk80zwyVyEjiq1QU/vO5FeEc1pbeeW1N4QkxiuDBhXLxOuv9haZ9cuQJP1t+KJ6ZTQCcpg2iF+glRFIzkJz6hlnew83x12H2VqGwc/RK0uQNH6f/Q/2Fpn156mZG7lBl/JVLbgJ/rSc+9oroeme7L7Jb74t46+7wW6aZaQEsifTO1+Ojjr+FFlW5jhT2w5IZN9+/WWjWVcCaVHRpSKgCEQTgVHHTgJnJGu04q57izz7nSAaEMi5PQfRxDfVSwrmfk5qcQmkL1Z23Gsj2X2fTSSvkHkQbX+9syxZCAL5zk/y1UcgkM2IlkEwp2/QYEkGgUzIGWCeUSSQAwblyMAhOYiURnqdMLIC0eMkkJULq0BEneduM6x3Vcsq1wqBbIIG0knjE6yBDCaQhtFjdJ2gWZLrlMUgL3GCzPijBNHMX7BQDjz0qC6Xi6bB00460SRp5k6mWrnj7nvlFcxjHSrMschZY6wJOVwU9pr6QF565TXyznsfBHVNMztNkZzLmUING33uOPcyTbVe4dio/UpLc5KERpoH0rZB8/IJp54pTPjdnRx39BHCdDleYWQ5I8y9QgLzwKQ7hYm7rVRVVcupZ54jnNXGK1sjTc2DbpqalRFInv/uf9pXakB2vcKo7qvh3+idA/qNt96Wq67tStref+s1yUHA05rKv++8R5585rkuzTA1D6OfrTBP5sWXj4cpebktMkt+KTmP+Bg33ybPLdxMNKyciNl1zj7zNNl5h+2RWzPXRKD/9vvvcusdk4Sm9FDZbput5d67bjM/XEogQ9HRbUVAEYgGAqNPuhfWKM5z7UgXMhkgks6KH8my66CBbJz/A/JBMgobPo1IQZNfuDGI4UZI2eMoMnxINp7aUiPJ0ESy7XgQyB2QWHy3v46WvALYtXuZQZYuqpJPoYH86uNZnQSyeJBDILNJIDmmOMkdDAKJP6uBJCEz5M0dH9MPlZdUSwUIZFszCCRgsARyeXmVMXF3QCvrRGH/FBSFPXjoxjIIf0zpQ6ELV01ttdQ34FmJdmwUtpdABhFHcxQ+zFiIv71KWAO36BQQSLgCzHjwtM6iPl7r0yhsJlvede99zBSDoedZWJAvW2+5JTSPTfLJ51+GTQ1jj9kLM9accuIJxq+sNwgkNYrULIaTXXfe0SQTn/LdD9DSlYarYsoYbcyAC85PvaoEkg0wAOa8iy7rtv3QBOOsSEJ46FHHh/Vv5AwxG40aiXQCNfIR2magUKhwNqDDDjnIFK+MQLLSY088JXfd+0BoM5KCNEE7gWAxZydJ8M+/zupSh8TxzVdfNNMddtm5igUk+yT94YSa40LM6PPj1GlCDXh3wheDIw8/RI46/FDzchCOQCYhKXgzNK+RCjXRr/33OSnCvU1RAhkpclpPEVAEehOB0SfcJe0rYL7Fy3KA1HEdEkQmTQ5dRmV3SHNViTSVIwK5ocrUQ1psSU1IlrR4H2YHdIgNKJoMgY9jEUzHdG9kOrcNNi6QDTcrlvTMYG2baWQtfywpr5GPp8yWz6fOBYcA8UP/8Vk5kjBwoCQg4wiJWiySl6chWCY9Nw15KB1ylhCfCh/ILElKTsOIYMKGibqhqkFqKxtMxDWH2YF80M3woW+urkb8EXwgQarLqxdK6bLfpK7Rma6Xv/k5uYMkd0AhZj9zgnZaYxKkRRKlNdZH/mgIpD8lW2LScjAWzMfNxt1Ps2o23VKz4IeHSBpiiTPBkr6bfxgCSVyoWQydSo7l4YTpaT746BPzQA/dP+mOWzC/83bSGwQynF9jaP92e9TIEWZ8ofNYc78NclkdArkCX+aDDjlKFixaZLsKLHnjfPHRu5ik3ckzZXdQc8bZex54+FFbFPGSSbSZB9POBx4JgeQLwf6Y1YeBKasqK8upuCrtcSpBBhiFCwwKbae4qFAGDMiVadO7anetm0J3GkhOi8mpG6nBjUS8sxuxvhLISFDTOoqAItDbCIw+DgQyxjXfusSRvMSs4iOIRHIwKOvANH0dLU3wD2wD3cF2a5O0LJsj/rK5EtPuKCRGpGbKdjkDZUxGLkglSA54ZQqCZ1Izkkxi8d4+r1Ik7H5/3jz5dOECaYHPP8lxTAKCdaANjEFicwr976l5pCbSkue0jHyQvvUlI2uQIWas197WjnMkUXSIdWxbi8TVV4uvoQbR5Q6BXFK7RBZWLpLlMNtboebR5IB0SXVMZpHE520gPuZ9RJlpDbP4xIJ4x2AayLDCiwExJmtvBZ6PQd/Zx6CfGQ+c4q3Rp+t9qoHkmdGv7wjkKVy4sCsx8p458+bdfMN18rcDD+0ybzbr9SaBJIGgdm3S/Q+FJa92nPSJu/vfN8tMzEF97wMP2eLAck0IJBu5654HugSfsPyYIw+X8885k6tdhJpFBgFxzuxICBUb4BR+zCfJaG8rkRBI1p2PqRc5E8/ckCkYbTvhlodDy3nheWebxObh9q9O2WuvvykTbroVU2fhR6MboWvBdeMvN1/gq66Z0KXWygjk+Wf/Q7beais54ZQzpLmlpcvx3gJqqm9A+iVvbk0lkF6EdF0RUASihcCGJ9xruraE0TBHl7Rw3aFMICmoxS2HzpBHYg//UNDWVCt1c7+V5vnfi7/NscxskjlA9sgfIttSAxdkbu2bMy1pqJN3lsyXT8sWIUl4R4+d2tNlJRLHPJjjcwasZ0heuANJIFMal0syyGIsMKAGcjESiC9Yvliqm+vCHWLK4tBm6tDNJaVgw04TdIAIhsw4422FAzT13EJ3wIaEon+asxmF/YcikISCPgH01fviq6/NHMJezDhn8C47bS/nn3uWZGVmmrQw16NuqN/apDtuhQZy217RQHI8JF9PPfu8vPDfV4WperySADX1hjAHnwcSN3azTY0G7qzzLhamcfGStjUlkJPuexBR6E96uxYf3qYYvZyOFAQ9yQcffixPP/8SxjQbpN2ZxN5bn6p2RpYTQ2rW6FvqlUgJJI/hS8EDDz1mXA8WL16MLxbyb4UI/UFHjRhhzPo777h9yN61s/n6G29hKshnuswnTuJIDevpp5wgu2Gu7haQv/MuutykG2KqIyuREMhjjjrC3A/MJTp1+owuJu38vDykQtpbTjsFPr3IP+YVJZBeNHRdEVAEooVAgEBSu0ZiQlIYIiSLJI6WTjrrLHDqtjXXSu2cKdKyThHIWhDIBfIJCGTLSgik93QzsooDBDK2G61gLEhySiP8O1eVQOYOk5ShYyW1EASSaYOIq6ud9I6hy7qXQLrkkcw9oJVEGYNopv+RNJBekKgtogma2kg+5DfeaJQwEjhUSMq+/HqKLEAQTmpqqqlHQhAAMvSAtbzNKQZ/+HEa5rOsl6KiAkwDuIUZR2g3c+Bj98MP00x4f3FxsWy1xWZdiFnoMd1tM/3NgYcdJUuWLA2qQi3hC888YdTwQTu62eCPAM3rc+bOx7zjeHsCUSyCGXfzTccEgpa6OXS1iknOfvhxuixdthTEshlBMlmGbFPL2VfCGWGmfPu9mWc9L2+AbLv1VkH5Re04SJK/mfIdnK2bMX9pkWwxdlPJADEnZuF8IKmBJIG0wjnSv/3+B9y/i000PF8m1l9/mN2tS0VAEVAE1kkENjzhPozLIYKGD5qPMEN1y4O0kG61dmjd6hGV3bHgR9h7HSXFqPRc2WlgsWyek2+eUSSdNJTHg+zEruWcj2FGK6UN9fLhskXyWXmJtPi7t0aFHpuWUSQD8kZIVu4Ql1DD5xEEtAOmakugfe1tktnaIJkw5ccBF+5bXF8h8zE3eHULNZAOSu0ghytAQi0lT8gdKsnFoyUFZmxDIN3OaYp2rgGXrgSIorMd4DgewmnK3Hp/SA2kxUqXDgLU2HEe5czMDDNDz3dIxP0o8iaS4ITK+Wf/EyTmsNBi3V6LCERKINdil9qUIqAIKAJ9hoBDINkdaQ4TZ3e1GpnBeIilJVKmHB8rWhox5+2vkrZstsTBvEvJQ2LsYakZUpiCABVqy1CWk4C0OQisSVrLs86YDkM+yqEM+La6SqbWLJdWELxIxZeUIalpAyQZgTQc9QocS7N0NbSNbSsQjAOcMmNheUxKlpEIpkwgSUSdRY11MqeuRqpaHRN+G8prktOlEcE4/hhoGyFxaDMxM198aJ9BPVY66WMkBJJ1grWPbCcRPpDT7z/ZNtnnyz73gezzM+wHHdKkv++Bh610/mqmpHnqsQcDgS794NT65RCVQPbLy6aDVgQUgQgRcEzYlrhYXZlzsJ26r7Mph2Ra07VDOvEJ0piBAJLCyhLxdThBNIzG9sFMG+9qzOLQxTBECg9Hupl0kMjeluUIfPm1sUV+b2qVdg/5XVm/MSB7sRg3l0SlneSwBgEyy0ulsd0hhwVJqbIbtKs74y8JdTvQ/kJEev+GvirRL6U5ziclGXlSk5kH5ugEKTFQJgbr/POKRZ/E0IhZdJZiMM6egFbS3faQUCWQXkT/oOuREMgUmJ7vQsBOuBl7/qCw9dppK4HsNWi1YUVAEVgHEOjUQDqDIW0xBliXrDDKOh6ELxHaQx80h1QeMqqa3CWO0wPSHN3WKrEL50nq4gUSB/NuOGG1DZLiZSRIZDra6m2pwbSDvyOB+Fz8RW7A7jqqdpiv52PO73nVi0AgHe1qEQjkXgXDZI/CwSCQCUiD5JdFre0gkG1S2e6Q8Cak6lkA8liXXSh+EkbLBwMk0OnLpYLBHZu69gAcao8JXBPs47rdxqovUTWQwSD+AbdWRiAZ8PL0Ew9jPtHhf0B0+v6UlUD2PebaoyKgCPQdAmP/8TAsWbGS7IuR/AyfDMqMl4FpPsnF/NQD0+IlhaQRWjgYamUFiGJrMybLgJatHeuchYz+7Q2Y8GPh7DJZOr8K5R5zsVVoguiQQA4HgRwFApnWBxrIGsxRTQI5rwXT9rrjwBAiFjt0+j/OrymVeVUkkI4G0iGQQ2W3giGSDHJIDeSClg6ZAwJZ1eEY+JtBLBcgJVBNVgEcP6lxJOFzu3eJH7e6J5DuXk9dczS2A4E37j4STIdAnmSqRONDTdjRQD2kz+4IJJORH37oOPnTXnsiKTdmqFfpEwSUQPYJzNqJIqAIRAmBy/55rqyoLpOYmgpJwYwqA0AmM6AhJHHMwjp4JXSQJI/t4m9HpgqSSUtcMGaSl1awrYUNCbK42Qey5rCkhrYYqemIlYZ2ahtJekTyQRyLkXMxmWrMXpZGjKlkRYwsBfXtYP8geSkgg2n4S8L5dCdNMLnXw9TcaCKwmUi8Q0prlsriqlJpdglkJsjhxshzuRECLRNc/8YOaBw7YLZe4ebUbMJybmKmLE7OlHa2hfF0IKF4BxKGY+oeAufyScsq3RERKJrcuYSYBd0AAmXEEvu8+9GSEkgXvz/ygoSlFNHWnE+Zkemc8SQ/P09y18I0f39kXPXcFQFFQBFQBLoi8M5Bu0oqNGQpIHfUk4G6uMSma10+nwLmVM9uToRYA8t1LUgjyRplWXOszAGpLGlKQJtOWTIWqXCGNInFPcf3xmorfBPrEcjTAJcvP8gW8zXmI8n5IKTgyQIp7E4qECBTkpAkZSR5EGZ+qagpx0wzZdIKX0/iE4fjk9FOMkzaxsQPgjcsLVtGZQ2UPHcGm2ZUnN0RJ/P88Zh9xjn/usQ0qUnLko5kTOUIlaxT6nyazsyqZxuFQXjjPLzaR4dDOvXpAzntPtVAGhz1QxFQBBQBRUARUAR6F4EZR//ZYYxkRiBZJIlBwm0q7Kg0tIo7V4HImsEEx1GUsY0FzfEybXmCzK5PRJRyMCkKar+XNlb4oO3LyJQVmciTDIdNEsihmD1nQ0SM50HT6lDlrp2XYlaYWZjbe1EiiCd2k0Aur6lCKriKwLS/bZh5p375MqmrLQdeK0wk9rYDiuAXOVRGZmSbRpvgFzkbJu05MKO3uJCWQRu5FFHYLUhxFDyXNQ4JSx7ZFHa42kauB/A2ZNJ0ZeoogbRY6FIRUAQUAUVAEVAEeh2BGUf+yfRhAmdcomODaIzG0RAYEkN3J0ikWSevwT8/yKTDfcynUwbqNa8hVqbV+GR2A8y6rNTH0oHJGzowGYk/i9o+EEgQuqEgj4ZAIi+kM9qugyqBeXqWLxUEMsloLg2BXF4JAlmJmfCcCPM2tFMbQiC38xBIkrymjhUyyyWQNPFTypKzZGlWnjSTQLrR6S54Zn+AHBrq6o7QJY8Ga9SyxDPAKd0zSUxKhAbyRNNOND7UBzIaqGufioAioAgoAopAlBCYcRQIpCWH3jGQoaDcIYvOund3YB31SHVcjhRYn4NYmx+rE+SXunjsc8hQLEhTHNPjdLKfQDN2hbvoNbmmlNNoINMyHA0kGmWbRdBArg/Tcy40kM6IbK+dy5LYBPndlySL4atIhSs1jLW1NZg8pDowlXI7NJB1NWXSUF9pfCSZqmhLEMOdBhbKcJioKc3QXM5vWSELMIe29Qu1GshmTPPooIaKZiDOaIJwCQzQ1kQBwXGxcxa2EmaiMSZsJZAGfP1QBBQBRUARUAQUgd5FIDyBBGkBNyF5DBBIDMPSFTMiMEZapm2Zl0By/8yaVvl0WZv8WNWOKGXUg89fhi9NspLSkQ4owTQR+sG20uAjmYU/BvGsifgRuNKRnCh+aBLtKDknTDzOyZkbxo48uJcK+DeWQHtYBo0l/1GohSSRtDx7RUebNGP+7xZGpKMwFvVysSxAHTuxMHtpi0+WtrgUdE/6Sg0kTNhZ+dKcAQJpNJBs3xlHMCE01bHLO0ZeE2y7ZZ31nTpKIF3MdKEIKAKKgCKgCCgCvY/ATJiwHZrUGSBDosTpBplI3JIoOxLqw2x9p4wExi1xGRaJzrcVtfLGwmr5fFkdknGjPZQNyiiQoZmFkgofw3BCyljki5X1kO4nJx6ky8ufwh3QY5l7sEm2zeAeRGVDq7gAATLLSWBdIhbaRF1jvVRjRplazCzDs+K5pKVlSnp6BtIdIYIa4pBJh1Rye0VHhyzHnNuVpXOhlaxikfgQjFOEaRGLcM4JLmEuS3F8IDsJpDMMwhbQPoaMy+of7XhJxB1xls5xiMJGgvZp96oG0gVHF4qAIqAIKAKKgCLQmwjMOHJvECKSR9I3hy6SmpCYGO0jyI0lkYasoK7ZRooca2e2dUk4DcHBsVPKl8tr8yughawNEMihmcUyPHtQtwSSerrBiXEm4fgApBJyyNHaOXuGzcyLT5JZiMyuQKCMJWShrdfX10kNgmbq62vMLo4hMzNHsrJyJdFoM0OPQHqejnZZAvK4eP5P8JUsNxUSQRrXyxok6+F8rcbVIZAF0EBaH0iLu9smgXdYa6CTIAKJseB/oHInPkogLSq6VAQUAUVAEVAEFIE+QMAQSPRjeQn5C8VyGZpoA8TQ2QXG5NZiJWrEyGqoRrOC7SnLquXVhZXymRJID4FEEA2jsEEgwbRdMkgQIe7CrgQ2ucOyRiztaqCeKQCBTIYG8h7VQDpg6qcioAgoAoqAIqAI9CoClkAGOvESQbfQKMUYfW3UYyhEgSE4/ACB5FR+FS2tUtXchohrh0jOrG6A+boGPpCNThYgEJ0imK8HZxdLSkKy5T+BbrnC2aeLMCXf0JQkyfFhzuigvWu2QRP2QiT3ngd/xCrkiKTQFN2BqRc74NNoTgqfMa1tEtfSLLFt7pSMGHd8epYkZOVIrM8xYfNYr3TAhF1ZUSJlS+ZJfZ1jwmawUG5CmuQi92Mc/lHqU7OkNrNA2kggXfXtCuSb9Mcnwk2SGmBH32jw5gFEwDJGd+ksHGSMBtItZyLxafeeYI6KxodGYUcDde1TEVAEFAFFQBGIEgIzjoAJm4zQk54nFn6D1DqS44BjQbBOVkNtJJbkLMZUbYr9Uo9pA7+rrJGpVQ3ShHVWLkcKmwX1LbK0pQ1b1JzFyABM7Tcwu0gSEeXsUCW23Slsd0ByquSnpUs6JtFwaFLn/jVZ43SDFUjDs6SlRepgcqZwlpmmhhppQUAMySQlD2RufYyhODHF+G0ySXp1SrpUpWZIO1IDhRMG2TQ21sL/cTmmemw0Vfwgla212IZJ3O8mLvelZksiSHRCuhNEQ1xqMaNNK5KQx9CsDiHMznkTZJYAqYDfo7NtPl3i6BBM14R9zwncFRVRAhkV2LVTRUARUAQUAUUgOghMP3RPQ1qcD4yBvAXkxPg/2iG5WkWzSYYDYmkJIOtVgiS+srBcJi+ukjrMhc3q+DRzRJOHkuSwzYyMPMnIAoECgQwnpk56pmTB5zAlOXygTbjjIinjOGsRHFMN/8YmpPOhdGBmGuZzrK8tM2SSZRtDO7jLwMGyVU6+mTGnA+P+zZcM38l0aUjgXD1dhW07gTVc8oRFWtBHyYJfpGTRLMwP3mLKclNyZFBWsRSkkUAisAdm7BJoJKtzixB1w/N1jiVe5kLw06x2brMhHuvsMFumKqOwp046ngVRESWQUYFdO1UEFAFFQBFQBKKDwLRD9nA6Bnch+SE5cTmfISnG/xE1OssMXzEkkbSG5TRfvzS/XF4FgawFgQwnhhyCQKaTQHYTjMI66SCQmZm5kgwCaYhSuMZWo4xawlpoBGtqKqW52SGQJHZ1y5dKLXI6UhtJ2QQ5GvfIHyLbDiiUOGhiGUH+Kwjkr0lpUo8pHyOVFmgi58+bIYtBIm0C8oEp2TIkC5HZqQMR5Y7k5og0H7zFRjJ0m00kNTsTaZGYYAgzjwNCR4+LJfonJyXO1IZySW0qcyg57gJcgn+C3P7zwJ0jHd5ar6cEcq1Dqg0qAoqAIqAIKALrLgLTDtnTMBRHcUZ6Qu2W4Y5m3U82A+EeY0m15lQWmNKYTgK5CATSmLC5L1gMOTQayHyJNxpI0s9gYZ00JP8mgUxJoUauax0eYUo7P4Ib6WaLBLIOGkjOKEPtICXaBJJ0MNfXIDmJjSCrMKcjOKmVfplghI6RnaN0rgmVjiSdXJrZaLBCvJJBQuNRnpaaIhe+MJkHREWUQEYFdu1UEVAEFAFFQBGIDgJTx7kaSNO9YYWd/o0Oq3QGRsISGCL1ZJ1ErgImbGogXwGBrHMJZCwSeScgWCYBQSIkPfT3i4tLdLZt/p9Ae24XIKeJSckgj2ni6yZghTXj4C9IEhoPf8VIhdpVah4bkd+xHYEzlGgTyPiYFbJJSqOMTW2ULJ8He3tSKDKXAB/E0AESheT09E/FKstJJGOh1R373Dv2yD5fKoHsc8is3GdLAAAqJElEQVS1Q0VAEVAEFAFFIHoITB23e1DnnUSFBIWkhgwFC8NWnKp2k1usX4HI5Rfnl8mri6oDBDIxMVVSUnMkGcEnzDG5Apq15oZazOBS40Y9O22FfpJ4xsFUzGkPu5NE+COmpmdLEhJzkzxFIhw+8zXSVG39FNcVArllepNkgkDGEO4Q4elZ6m5248O4GqCerc46JJCbK4EMQU83FQFFQBFQBBQBRaBXEAhLINGT4Y4r6xEcj+TG+kB6NZDJyRmSDpN1SnqOMbmSuNVXL4MP4lJoAFtX1nKP+03bmWybCbkjI5DhGlxnCGRGk2TFO1rGAGl3B2zPzp6n2W/IvOMPaS9UHDS3SiDDXWUtUwQUAUVAEVAEFIG1joAhkJYtgoyRj9nNLp2RzVi1F3dim8TGEkhvEE0ogaQvZV310rVHID3ktMs4IyxYZwikRwMZwN+9CE46JZioucM6Dth9PE8T5g6zPnxGlUBGeOG1miKgCCgCioAioAisGQJTD9oNDZAJkgw6bRnSglXLFZ1yp46pEdjh1KcJ+78hUdiREsg4JPWOi0N0s2FO4EMgRH4/I6JtJ9wVZwJIOEZKUlKGpEH7mIy8ijZHIoNkrGnaqcXjSIjtjC+2tHPZjryQNVWlUoNI7FWJwnb6WmHGalvj3OFOX1zGSLgo7ByMexDS9uSnOjPRJMBmPTatSbbOaJPsBPqVOudstI2dp++cBzvi+RMfQxqpgaRnqSNGA/nCu+5W3y/UB7LvMdceFQFFQBFQBBSBqCHw48F7gZQ4Mb+GuJiRkL2AoEDT1YU82pEagoMPVKgEgQxN4xMJgWSATWYWckMidQ59H5m1vBmJvlsQ7GIDXRhxnATzbDLmsDbRx+g/IQHBOEir43PzSVIh14y0OfwjuaMwYjkJx/DPOQdTHPTR1tYsy0rnSfmy+QG/zEjS+HBsDMhhf9bkzHmyOU4naCg8gUxGEFEm/DfTfKmG+CaAAO6SGyd7DPDJwCQQXY6OmCNCxh+LJeYbpyuok7TdAO70h1M0LqKcj9yQTgQoZaTLZk+9GXR+fbmhBLIv0da+FAFFQBFQBBSBKCMw45RDpb2yzJAsEkjSFAZzGGLkqrdMudnhGaxrRl0TApmCGV6KBo3C3wYInEkw5K++vhZm7ippxXSClFhoKDORWDwzI9sE17AMtAoEippFDhB5EEEaa2urzXGWeMajPR6XkZHlkFMeGCLUEi5a8JMsXohk365fZiQEsgVjq6lBwFDdctM3x8H0QxkYo81fGU4DydHGQpsa5zJaH7SW+xRmyAHFWVKUkkjuCCH4OCvW4X8sGU5ktZMmApvVUGKIpRuRnVg8REbf87TZE40PJZDRQF37VAQUAUVAEVAEooTAr5eeIU2zfnbICIkZWQ45DNkM1yEOUXPWbZk1c3O7srVdXlxQLq8xD6SbSDwSDWQqIrQHDx0tg4aMknhoIx0iGJzsm+btrKxc8xffTSJvHsf8jvyzSbt9mHaQ+SSzOIc1tZthJBzJi4RANjeTQFYawupoabsmQA/XdugQfMBu38IsGTckV4pBII0YFtmp/UW6cbBOXA+YrR16j1q4NPY68BheptQxY2XUDXdzMyqiBDIqsGunioAioAgoAopAdBBYcO+tUvneZEMSXcVY0EBIHh1fO4fUkGF665FA0QfypfkV8ppnJprICeTGUjxkQ+R0hEEXJmxntpgqpPuBeRgjYTlJYFbWAPhKhieCDoGsAqGrkNZWJ8KbBJLHZGZmd08gWxplwbyZQbPFrC6BTEvjDDqYgtFNgN6CtheGtB0ELDaogdy3IFPGDc2VomQPgeSJe8QSeBJFQ+xdcu8E1jhlufscJMPOuMBzVN+uKoHsW7y1N0VAEVAEFAFFIKoIVH/zucz/1xVmDIaokKV4xJKXQJHdj6VDZhwN5Or4QCYmpsjAvMGSM7DYBNKwvabGemmorwtoEmNAGtNSkfcRJmL6NYYTHtfQUCcNmGmmo8OZkpC5JHlMKpKSW9/J0GPbYIquKFso5eWLTY5I7l8dAsnjOJUgSavVksbAJB5XUyrxdUs56TardJEEEMhtctJlh7x0BNG40yQa8ogPLg1jdA4zQTpuAc/Xj1lrYuNYwdFLDr9iomRvp1MZdgFZCxQBRUARUAQUAUVg7SPQWlUhM08aZ6gJW7dRzY7m0eEwQb06nMUpcjVlFW1IJD63DBrI6lUyYVOjmIRgmKRkBJUwKgTEqL293ZDHFSYSm/3HmMAUmri7kFk7MBzXhsAWRlUzYTmFich5DDWY3R23AmSzqakOwTANDhnGcatDIJmiqK210fyt6HA0oKkIghmL2Rg3T40RxMe4WltHm2vIoRljjOQnJUhBsk98Vq3rYuowSOf8LZu0VUwkNuo527wgIps+8ar4cgeY9Wh8qAYyGqhrn4qAIqAIKAKKQBQRKH3+CVn63KMYAbRageAUbIEYrQA5I9EjMSMRM3TFZTLWtF1upjJcdQIZxVPutuvVIZBMAdRYWwnz+zJEkDeYtnN8cQiOyZb98JdJ7SKAs0Q2wBFNOh5nKMQ1UG5W+OGUMj7bbBnwWRHIMxKbh0KLWXjkyVJ8xPHcipoogYwa9NqxIqAIKAKKgCIQHQQ6GhvkpzOOkI7a5Q7JMbwFlCWg8uK4HDITGKG7SXOqyQO5oFJehQbSzoUdiQ9koK11aGXtEchYOdAQSESQJ9B309C9LjAarug9f+BJIVW3+3hk0KUggeTlwb/4zEwZ89ALSCSeao6L1ocSyGghr/0qAquBgPkBcX+TVuNwPaQXEdBr04vgatO9gkDt1G9l7sTLBPbjYJJjfmNAZnBTdyEx7kiqoIGcXFIlb5aAQHY4JuSExHTxpQ4QX0qW0ZJRm1lfUy510NLZVDvhToSBIXHQgtoAETKldvx14Hgr1OTF48/rE8l1ukhaLZ+t29OSY2rFeNvaHb9J1t0IUy/unDdItswtMOl2uOe3hGSZjbm9G+IdItjSyijsKpwL0vhQFch2Gqqlub5COmDKpi4xGxpIRlj/tShH0uOt76b9wXYIoAMoaSLK3YVhhihxxK3vYu/of6n3dS5RDEz0G1x5k2RusY09IGrLPieQ9fUNct2/7sD9Gt7BlEgUFRbIReeeFhVQps38BZFgLbLt1psH+l9eUyvX3ni77LHrDvL3ffYOlEdjpaa2Tq6beIdJfXDCMYfKppts1GfD4DXjtRsyqEhOOeHItdZvXX29jL/+Ntlx+63l4AP2WWvt/jLrN3nw0WeQjDZJrrr0HOTqSgrb9u2THpaFi0q67GP9oYOLzbg23nAkfqjsD4HIFdfeLBuN2kCOPvygLsetaUFZRaVMvGWS7Pe3vWX3XXYwzVVWVcuLL79pyooK800ZoxBv+ve9cDZPlbPOOGG1un33g0/lf+9+FPbY9PQ0Gb3RSNlrt50kNzc7bJ3VLfz519/kjf+9L+f98xT4OrmO5GEam/L9NHn2hVfl4vPOkMKCvDA1Vr3o1TfelU8++6rLgT4f/JLy82S7rcfK1ltuDj+q8NGfXQ5EwSeffy3vfvCZXH/VBYEH3MLFpXL73Q/J8UcdIpttunG4w7RMEYg6AqUvPC5lzz3msJPAaDp/6zxGVmNGJQEisWxsXyFTl9fLzOoGaaJZFodUtsdJaVuClHcguppNoF4z/A3pc+jMNBPoILBC8peVnCw5DJpJcqKSSe4qEFRThb8OtEFJS0w0dTIR8YxDjCYuLTVe0tMS4fdoyVqg2W5XWpB+aN6SCllQVgUS6RDUAgT2jEjPliFIMUTCxlzd5XEJUhbvk2Y3CrwDfppN0Noa30m0HgdKNzC2VYri2iUzziGjaXGxMiYrBX+pkhh4XhAICs6Dp2I2nTKzifNzztBUshWQl9MpZU2zihViVXzs6VJ4yNG2clSXUSOQo0YMNw+ncGefihtkzCYbhtvV62XjJ9xmxnXYuL8H+lqXCOR0ENzHnoTqGjf1mNGj5Dg8nPpK+huBfPiJZ2X2b3PNy8oxR4yTLTbfJCxUlkAeuN9fEFWXYOrwB7J06TKZOv1n4UvPEYfsL9ts1flS0dcEcvbv8+S+h/4jF5x9mgwqLjBjXJsEkmSVRNsKndqnzfhF5i1YJDnZmXLZhf80P152/5ouX379bfnsi2/k5glXRI1A/n2fvSQFDy4Kf8JraurkWxDW6uU1stUWm8qRhx4Q8Wnecc8jsmDhYrlt4lVKICNGTSuuKwiUPPWglL/yLL4ImBoQgzIavQBzcUbJMv4uGsE+Tj/YBE0e/wwNA2GaDjL53pJamVLRIFa/R1/BwHHO0UGfTLA9dECejCwokryMTMOvGpGW55fSxfLbslJpwW8RpTAzS0bkF8nQ3IHmZZ7aysL8FCkqSpfkxO5fQoM6w0ZNY6O8//0s+WTab9LQ7AS/xKPXROSNTMBz1Zw76rXjVNtIAokDhOfbOeUiZsbBvu1zUmTv/HQZkZGEatCiol4SoqSTQSRjwKD5u2LwNC04DTmlpsD5cCH1lGAVdS2B5GGoE4Px5R18lAw+NjrKteDxOVtRI5B7QKvxl712DTemqJaFI5B8UPPhkoS3o+60WH016FvuuF+ojdpi8zHy/Y/T5YarLw6kEOjtMfQWgeSXsgZa3sREH/JpOQ/0tXEuV153i2w+ZmOZM2+hUMt53ZWd2iFv+5ZA3nDNJSAUnSSKdeobGuUaaJ/5pb/6svMw84Djc9KbBJJmm1rcb8kpmCYLb92U3iaQ1wKbDGgcvcIf/dffek8+/vQr+cepx8mI4cO8u9doPVIC2YIHSWNDE2Z7SOs2H9yqDsRqIMdffp5kZ2YEHd4Ozccj/3keLx5z5LILzpQBA3KC9ne3oQSyO2S0vD8gQLNu3YzvZe4Nl4kfqWgsifISvyACGXJSDkmKkSlVdTIZicU/LYPmMKROd5s0XW+QXyCjCwdLAfI3sp8GpNqZvni+/AwS2UzzOmRQTo6ps95AmJld03VxUaoMKWbaHl93zXcpr6xtkLe+mSFvf/uL1MPauLrCfI67DUyT/Qdly+hMRJSjIY6dfMExO5MDgkC6BJAs0JqjjcKW5TyGR7Ie13G8KXOXZoNEMs4nI6//t6SP3qzb9ESmbh9/rNMEsg1vHq9AU0Ez7agR68tPv8yWWdAopeMhvv02WwhNbJRZ+LH/ddYck4pgG5ieCvIHdoGRF5UmTZKJViRALcgbCDP12ID248uvvxOanH6YOlOyszJkvWFDurSx0cgNupii2pESgFpBah94nQcXFxpNlzf5KbU433z7oxzw9z/LCrytUcuxrKJCBubmYAxbdCEtXTp2C2hmJdk55KB9ZYP1h8nE2ybJX/feXf605y5dDvn082+Mn8ZuO28v5RVVOK8ZIFENMmRwkWwJ8ukdHw/mjf7r7DkGSxLFATBZbjV20wDGrBNKIN94+wOjnTvw738x5I91KEzqSoKQhYfzX/bezfTL/peVV0gC0isMX28ormmnhrm5uUVefeMd2QAEhX1aKSuvhBbsJ2iEao12jObU9dfrel1sfe/y6yk/yPP/nSxn/+NEodn/iadelHOwPmzoYG81s94TgWSF1996Vz765Cs5+bjDZfTGo8wxKyOQi0tK5fOvvjNYj9hgPXMMP157812Yc5plO9y/w4YMCpR/+PEX0tjUJPv8eQ9pwBvym29/KJtvOlo2HDlc3nrnQ1lcsgT37+/QOm9oSPaGuBeJodeEXbKEGtOfYGJpMWQvEvcGa8IORyA5uOk/QeP9nxe6aGA5xinfTcPLTJUk+hJl5Ij1ZOQG6wd+AHmscw/6Zbedt5NF+G7RPWTsZpsYzSO/L0uXlcNUvJl5GPwJL5PZWZk8LEjsd4f3Ee8n5nub/Nb7MmzYYPNyQFymzfhZSDRHwqqxCe6RlUlPBJLH8l598tmXce/uipfGJFmytEz2/etecBVAfg5XOI4XX3nTvLxRW8vfJmqqt4WWOgkvIQfs+2fze2JN2Lxvpnz3o5QuK5OMtDT8fm2J71ZXB/i+/D2x56JLRcAi0Fy6SMomvyiV776Oh4LRK5L3OOLwHEN2WMBnhk3/wyrUCJJAvg4C+VlZ/R+HQCJoZjRM1tZ/0+ACQBzY+Bmic3R2EMJuxRJJoCoD9jlA8vc9WJIHRfbs67bRXtixThNITrB+JXzNdt5xW1ycWPkeP+zUEJEQkeSddcaJ8GX6WqZ8P9X8uFdWLZdWvK2ccfIxeJh1PrTrGxrk+Zcmy8yfZ0luTrYhjVXVTuTZaSceDbI42DyUSESX4geeWp8sz8OsA6SP5aE+kGzj8adflNKSpQFNBbWD2dlZcvpJxxjTH6+Z9eM69cSj5DUQJRJNSkVlleQNzJVzzzw5iIA5e7t+Uhv01Tffy4TxF4MAxgq1Hg3QkF0KTQm3vfLgY89IY2OT/BkP5qeee9lol1paWo15bsuxY+RwmGTjrW8HHoZPos50mCzp6xYHVfnymhokLI2Vc/9xEsbo5JkKJZAkxc+99LqchvPaEP6AVqyZ/dgjx0keiPqDjzwFctRsSCkfvBXAiGT8JBAyOkGH84Gc+csskL6XzLXKxITxJP1Vy5fL3rvvbEiW7Svcklqk62+6E6Qz0WDD9ifcdLfsuN2W8CH8U5dDVkYgP/j4c/jrfSDHHX2IIS1sYGUEkm4P9FUl4f3nacebPnk/Xzb+X2Z9L5zH3/6yh1nny81V0JYWFOTLWacfL6E+kI9CI0YSY++XBJjZSbx23mGbAIHccosx8vqb7+GeyzL3RG1dveyy03ayP0zTXqdz06HnY2UEkvvf/eATmLDPwncHjvEQkqVH4UZBfKm1NNemutr4DR58wN8CL2W8B0mW9959J3nimZcwr22G0DXklclvG40ztbv05+T4jjnioMB95hle4LtjfSDtPUj/08HwxSW5JvEkeeML0p7oiyTc/ph727LrKyOQPL+HH3/W+J/yvqbrAM3de+y6o23CkF+Sd+6vA9bl8FslDsVFBdCGpMgZpxwTIJB8ceRLI79/fHEj6Wbi4YvOPd1cL9toX/+e2H51qQiEItC8tESqP/9QGn6eKi3LlkgHEnZ34HfUj99vPsC8HMiQHZBL/JcplSCQiMr+7I+kgSyGZhR+j8SBGNgHvPOcd5AK4BVY6dQ2knAawW9DXGqaJKRnii+/ENrGzSVnlz0lqaDY2b8OfkaNQDI4Yfh6w7pAwouw1x47mR9aSyDT8cY+fPh6cvRhjk8StZAPgJQUFAyEz5pPzoR5jY74JFMTbr7LaCDPAfGx8h88vKbP/FWOO/LggG8lH7D/uu0eONG2y/hLzzVaTdYPZ8IO5wNJMyMfIDS9kiyShFIWg0zedf8jWIuBQ/2F0M74Ag9BmmePOuxA2XjDEaYuyeALL78hO2y3lRxy4N9MWXcfvMkm3HSXMaGe+8+TzY360SdfCrWAV8MUF2p+5MN7LrStxIUPX2pt2cZTz71iNCxebdrHCCgg+Tjy0P3h+7WZGQL9wG5AIEcmTIdXXnwOvhxdNZDUmF3/rzuNOd07/udefF1IACeMv0juvO8xKYGW6JLzzzDknY1/DeL5PIgnAz/Wh6Y3lECSAF581Y0g8j70fbbRuPE79vTzL8NsP0OuvOScAJkJh1cZNJ03/fs+aHz/ApK1tTnvf92GawVN5ISrLwoQZ3tsTwSS5G7CzXdjvtUanMM/JD/PIdMrI5Bs+98IoOBYrr3iAvOCQI3bzbffKz68oPD+54sOhVrxSfc/ZjTLO2y7ZRcCyTo9mbBrausNHvSPZKAPr/NDjz1rNO4kKTbohu2EiiWQF513Ou6RThM2yc63eDH7AJrRjXC/nnTsYebQZWUV5nuzCf1vjzwkEGhCX9Enn/2v/PVPu8teIHEU3oPUEHbAB4ovSdS4W4nUhG1fvkIJJO/H7Kwso1UmAeV1uv/hp2Tu/IUgu2cG7jXbn3e5MgL54itvyZdffwsSeKx5EZ146z3mHqQG28pX0HC/iO8ucStE4E1PJmx+7/cDAaW1gTJn3gJc78ehzR4JrfYRpqyvf09Mp/qhCCgCisAaIBA1AklNQjjhw2DitZeY6YEsgWS2+usQ3eh18r8bxGQRzISXX3SWMW3Ztqg5oKn6pusvN2/51EowgpoBFKFO8Taiee89d4Y/5m6miUgJ5NJlFYYMHITAi52gCfLKzJ9nyyMI4DCaUJje7UOQ2q/dd9k+UJUPej6cqDUdjyjhnjRFM2D+o9bn8EP2g5lsrGmDhIQkdouxm8gxh48LtMsVPrxp8rwE5NFr0m/ChPDX3nC77AqzIh/2FOJAs6clR6YQH88g+pWaE/pZ8iFotT82Cpvjn/TA41K6pMyQRasFpeaNvmNnnHwsSNSDxuxIAmCFmhpqe/ngZb1QAkmt1eXX3IRgphFy8vGd0d7UqPLhS9OvdV+wbXqXjO4l8bn0AhI+x53BakUPO/jviLJ1HuT2mHAEkue2rKzcmJKpud4RJP9gD8mPhEByDP9790OjBR0A8vTzL7/Bv+452QnR5tSa33jNpYaYvzr5HfnsyynYvsQQzVANJMfZE4GkRp5R5l4TcEnpUrntrgflWLw0bd5DBLAlkBaL0CVdHngN+AJCoQl+GsjiFZecbUzP3vp3gxTx7dtGhJt7ENHWZ5wKIoYXQK+sKYHky2LoOf8+Z77c8+ATctpJRxvTv7c/73o4Aolhm+/BBx9/JnR/YCaIc888yWgVXofJ/PMvvzHXy0Zm33Ln/cYScuPVlxgS3ROB3AIa/2M80fq8t+649xFZtKjU/E7xJW91fk/2x+/Jbqv5e+LFQ9cVAUVAEVgdBKJGICMJorEEkn5r1gxoT/I/T78kv82dbzRUDL6wQl86mrWvg/aPDz0SIBKh006CmRVm01ChBm0Q/BaZEocSKYF85/1P5O33PjYaiCKYHr1CM/aN0FrRr4smZEsgqRUdNrTT743H0DxWCvPk+MvOhX9g95Fk9zzwhPEhpLbUPsR4PAkcSdW1V5wPLWQ6i4zw4b3UbdeWcUmyej0I3lgQ6oP2+2tgF8129P+sBZmkNodCkyk1tRbLUALJOgvgl3kH/DJJzmlWtQ9xRoeTuHzz3VRoWScbk/VIkGliVQizZaonWCaUQLJdPuQ//eJr40O4PnwmeRw1aT2lfOFxJJ/XTrzduBFcdM7pRiPHchKE6/51uwwckCv/gGbJK5ZAesvsOlO77LDd1ibgy3ufRUIgqQG+G5rF43FvbQY/XppueT/yXmYw1FmnQwMLEzfJhx/+RkxpQ1lVAkmzqJegsw1euxuhQR6HtEgkv92JJZAkXV4fP94DNKkyNU1jU6NcCO0mA4h4v85fsNh8Z0LbXArCzTYYsU3hPUjfR2riQ2VNCST9IS84+9SgZkmab73zATkSWv6tEUXdnVgCGXY/NJtbbDZG/g6fxyy4yVBonr4RL3p77wH3Cbx00Z2FGm7vC2FPBJJme/q8esW+nE3Ayxm/C6v1ewKC6/WjZfuR/p54x6LrioAioAisDgL9gkBuPGqknHicY0KzJ/nkM/+V30EgqQmxqVe4jxoSRo3aoICPPv3SmGfPx8OGAS6hMhFmbGpuTscDlBIpgXzxlTdg5vreaEHod+YVq9lkXkNqKC2BvPCc04yPlLcuzW4lS5YaM3p35Ihm9quRXogEyuYFtG3wYf7+R5/JsUcdLGMRdGGFD+8qEFn6R3qlDQTyOpBmBmiM298hkAx2ILkZCG3ggNzcAOlagjQ2VdU1PRJItk0ylA7yejpIOv315iNA4prLzw+0Mx9BRF8gSMkQUphbSUqZguiwcfsZjVs4AkktDYMjfpzGIJoaHFNnIqL3QF5EkvLQICB7jqxPl4XdkbOTwTpeee/Dz6AtXYZ74/wgbbYlkHQvSARhNAIbaQp82ahtDXddIiGQ9PGjbyODWfiCcuOtk2Q9vAwxJdBVE26VLUFU6B/Ha7sZrgfvFcqqEshweSArK6vhgnC3HIRrTI1nd2IJpP2+hNYjAaQpfmMEp5xy/BGG7C6D5nv4+sHY2uNIuugHSeE9WAkiawmlrcPlmhLIYmgITz/Z+c7adnlteS8egZeZbfAy051YAnnouH0lDdfYCK43XxAGFxeFzbRAywbN48SJL6j8zlGDbHOD9kQgw+WBpO8wfYjp5pEK0r06vyfh3BMi+T3pDhctVwQUAUVgVRD4f08gGRjy2FMvIOHzgbKlJ8LXgsSH9/Dhw+RY5AmkREog+RChtjNcZC/9xGhaZtJxmqzXlEB+DvPmf1/7X7ekiYEpfKB7tbSREkgStRugLWWKIhJcrzASlRGpPWkgWf8tJKKmP+fV0KLecPMk42dqyRA1Wca5mE5rrlgfMGosqbkMRyDDHUcz78vAgfkad0FgVThhjswZiByORSBQOCFWu+y0rTBy3IolkOHS+Ng6octICCSPYdskNlfA1YKa0XPgCzhsSDFcHJ4zJlOmx7ls/ERDMG3U9LpEIBlAduHl15t779Ybr5SHQKQqoJHji4lxnvcAw/lzqeq1rhjd3YM8ZF0gkOHS+HhOJ2iV7iCP4NwvwXm/hOhravK9PpFrSiBX5/dECWTQJdINRUAR6GsEQCD6VBCx6L/oign+/7338Ur7hb+e/4LLrvM/8vhzXerChO0ff/2tfqTvCNoHUuc/9+Jr/NACmnJo3Pzwp/Pfdd+jQfW48fW3P/jPu+Ra/1dTvg/sA4H0w7wU2OYKNGCmzdfffDdQDi2a/8LLJ/hfevXNQJldmfzWe6Y+zLumCGZcs42AAlslsLzvoSf9yFfoh19goMy7wvJLrrrRD6KLc6r1QxMX/IfzxEPdnAdMeIFDH3j0af/EWycFtu0KUuyY/l569S1TBELlHz/hVv/jT71gq5glAodwnW4w4+a5UjgWjvVBtO2V6mrgAxzhO+Y//9Lr/PBvNLtBAv133vuoH9pNb3U/rwmv0bUT7zDlPCduIy2K2YbvoR9+lH5oE4OOa8b9wHpPPx98fWwl3lsgO34EWPlhig/GibihDBpn/5XX3uKHz6c9zA8Nm2m3obEpULayFd5TCBpZWTU/0uqYtqHpw3WciHRroFkQbvNe++yLKQY7+HcG2kK6I3PMh598ESib/ftcUzZv/qJAGa/djbfc7b8LGIdKRUWVuSdAukN3BW3DdGratd+XoJ3YgNbN7L/trgfMLo7pgsuu93OMoQJSHHRvdHcP8jjeE7yWCMQKbSZo2353QMJNub0H+b0JFd7/bJPH9CSvTHZ+I6rwvY5UeH14j0OLbX6/QnG9895HTN+wFgSa5Pef45kach+zwrMvvmb2IXrc1F+d3xPv9912urLfE1tPl4qAIqAIrCkCUdNAMhG2d2YPL3Fm5DLTYVgfyDUxYbNdPPRMGpbNkFSaASeJiNz+HX6D78OkSf+6U088MmAGv/n2+4x2Ydz++xiTFqOEw0VhA3gTSUztInNSjoGZktoXBlzQXLv5ZqMRNX4QNDexa6SBtLkf90deOebTCycgC8gJeQ/SHW1j8s+xTnfan1ATNs+DDv1Ll5abnI2DBxUa37fPvvxWknAd6CZwPNLXELtwPpB2PE/AJ5UmZ5pTx192jglg4j5G5s746VeTiol5Hv3IoPrjtJny3Q/TTRAPc1iGaiDZD33ZaLbee49dcC/kmxQon2LmkjlzF2A88CkcA7xDhBHpH3z0uQl+GOrJseit9hHcG97433smKphpYCi9qYFkcBK12sz5R1cLRnJTOEMOCJYMGJgjmTD/e/0yw2kgmcaH9ybTxvA+oNsFA3Oo6V4bJuwTEWVNU6oV3hcMzvkI3x3m4TwbKbM4Aw5ItvG7ZVQ6r92gokKTv5JR2FORs5PfG2sy7+4eZB9T4BsLEmXuC15LmqSpBQ8Vq70PjcJeGybsVdFAclxM5cTfEqb5YuYDr08sI7K/hBaegVaFyEPL35WepjIMNWGvzu+JaiBD7xbdVgQUgb5EIGoEkiShO7FzYa8tAsl+OG3axzA7k5QwZUZKUrIMRoQpTdfe2WVI/jg3MKM8OfcuH1zhCKQdO9Pf/DANSbrrGkwRgwiYNJhpbayJzz4EV8cH8uXX/4cI0G+NyTAPOSO7Ezr10zzrTDkXOYFkexXwl6PplylnaDpmsATnAyYpZroR+gAyEKInAvkTIowffvwZY7ZnvkwrxJp5KH/DVHyMoiYmDBpg0memDaK5M5RA8lgmqqaZl8SJKWVYjyRsRwS02DQxtg+7JJmiWJJmy71LTk94y+33yyZIoXKSm0KlNwkkrwkj7RlYxUToJ8OPkMJgH86UQ7yZGJ7pe6yEI5AkGE89/4rMBBlnmqM9d9vREP61RSBt394l803Sp5G5N+luYIU5Fx+FWwiDtEiQ+ZLEHI+87kxJZaUnAsnZhxgAZucgP/+sU8KmG7LfnXWBQDY2NuNl4FaTDP0oN6WYPVe6rdyP1GJM68UAHwbFrQqBtO2syu+JEkiLmi4VAUUgGgj0OYHkSfLh0ZPQXc6SL9b1btvj+EBlK6EJg005dljndlufS3sMDwzXpq1r2/DW6W4ckbRr2+tpTKHnETqWcMfaOoExeM6bfVIsjmbD/aCvGj0SvftsfR7mPW9bbuuGO5bNwryPqOkpcjkicHPchNNud2ZhMeCGt31bpzt8A8fxnjDH8jO8dDe20Nr2/rOY2j7sdmj9cNuR9sVjbfuh5x06Dm8/K8PDtsW2Kfb6RNKGt44dm7fMrrMPSri2WR44tptr09PYnOPRhpuSeFXu/56w7w439mfFjntVrjePtVpTvgTwZSBUbLv22nC/Mx4kGA65bW3dcGMw+3hwyHeRRZRIju0OT6cF/VQEFAFFYM0RiAqBXPNhawvrAgLUSP6MnJs/IwUQTdJ0STgU2rTuCMe6MGYdgyKwqgjMwCQE8xYuMlMzclpKJuHvLgvAqrat9RUBRUAR6K8IKIHsr1duHRg3p3BjSiC6AHB+bebFC9W0rAPD1CEoAmuEwOXX3Izj/ZhBaqRJfeV1eVmjhvVgRUARUAT6MQJKIPvxxdOhKwKKgCKgCCgCioAiEA0ElEBGA3XtUxFQBBQBRUARUAQUgX6MgBLIfnzxdOiKgCKgCCgCioAioAhEAwElkNFAXftUBBQBRUARUAQUAUWgHyOgBLIfXzwduiKgCCgCioAioAgoAtFAQAlkNFDXPhUBRUARUAQUAUVAEejHCCiB7McXT4euCCgCioAioAgoAopANBBQAhkN1LVPRUARUAQUAUVAEVAE+jECSiD78cXToSsCioAioAgoAoqAIhANBJRARgN17VMRUAQUAUVAEVAEFIF+jIASyH588XToioAioAgoAoqAIqAIRAMBJZDRQF37VAQUAUVAEVAEFAFFoB8joASyH188HboioAgoAoqAIqAIKALRQEAJZDRQ1z4VAUVAEVAEFAFFQBHoxwgogezHF0+HrggoAoqAIqAIKAKKQDQQUAIZDdS1T0VAEVAEFAFFQBFQBPoxAkog+/HF06ErAoqAIqAIKAKKgCIQDQSUQEYDde1TEVAEFAFFQBFQBBSBfoyAEsh+fPF06IqAIqAIKAKKgCKgCEQDASWQ0UBd+1QEFAFFQBFQBBQBRaAfI6AEsh9fPB26IqAIKAKKgCKgCCgC0UBACWQ0UNc+FQFFQBFQBBQBRUAR6McIKIHsxxdPh64IKAKKgCKgCCgCikA0EFACGQ3UtU9FQBFQBBQBRUARUAT6MQJKIPvxxdOhKwKKgCKgCCgCioAiEA0ElEBGA3XtUxFQBBQBRUARUAQUgX6MgBLIfnzxdOiKgCKgCCgCioAioAhEAwElkNFAXftUBBQBRUARUAQUAUWgHyOgBLIfXzwduiKgCCgCioAioAgoAtFAQAlkNFDXPhUBRUARUAQUAUVAEejHCCiB7McXT4euCCgCioAioAgoAopANBBQAhkN1LVPRUARUAQUAUVAEVAE+jECSiD78cXToSsCioAioAgoAoqAIhANBJRARgN17VMRUAQUAUVAEVAEFIF+jIASyH588XToioAioAgoAoqAIqAIRAMBJZDRQF37VAQUAUVAEVAEFAFFoB8joASyH188HboioAgoAoqAIqAIKALRQEAJZDRQ1z4VAUVAEVAEFAFFQBHoxwgogezHF0+HrggoAoqAIqAIKAKKQDQQUAIZDdS1T0VAEVAEFAFFQBFQBPoxAkog+/HF06ErAoqAIqAIKAKKgCIQDQSUQEYDde1TEVAEFAFFQBFQBBSBfoyAEsh+fPF06IqAIqAIKAKKgCKgCEQDASWQ0UBd+1QEFAFFQBFQBBQBRaAfI6AEsh9fPB26IqAIKAKKgCKgCCgC0UBACWQ0UNc+FQFFQBFQBBQBRUAR6McIKIHsxxdPh64IKAKKgCKgCCgCikA0EFACGQ3UtU9FQBFQBBQBRUARUAT6MQL/BwAA//9dS8d6AABAAElEQVTsnQW8VMUXxw+hhDQK0p0igjSohAEo/hFERUBEQUqRDunu7gZppCSVku4UaaS7u2P/5zfPWe69e/ft7nu7j8dyhg9vb8ydO/OduTNnzpyZieJgR+KEgBAQAkJACAgBISAEhICXBKKIAOklKfEmBISAEBACQkAICAEhoAiIACkFQQgIASEgBISAEBACQsAnAiJA+oRLPAsBISAEhIAQEAJCQAiIACllQAgIASEgBISAEBACQsAnAiJA+oRLPAsBISAEhIAQEAJCQAiIACllQAgIASEgBISAEBACQsAnAiJA+oRLPAsBISAEhIAQEAJCQAiIACllQAgIASEgBISAEBACQsAnAiJA+oRLPAsBISAEhIAQEAJCQAiIACllQAgIASEgBISAEBACQsAnAiJA+oRLPAsBISAEhIAQEAJCQAiIACllQAgIASEgBISAEBACQsAnAiJA+oRLPAsBISAEhIAQEAJCQAiIACllQAgIASEgBISAEBACQsAnAiJA+oRLPAsBISAEhIAQEAJCQAiIACllQAgIASEgBISAEBACQsAnAiJA+oRLPAsBISAEhIAQEAJCQAiIACllQAgIASEgBISAEBACQsAnAiJA+oRLPAsBISAEhIAQEAJCQAiIACllQAgIASEgBISAEBACQsAnAiJA+oRLPAsBISAEhIAQEAJCQAiIACllQAgIASEgBISAEBACQsAnAiJA+oRLPAsBISAEhIAQEAJCQAiIACllQAgIASEgBISAEBACQsAnAiJA+oRLPAsBISAEhIAQEAJCQAiIACllQAgIASEgBISAEBACQsAnAiJA+oRLPAsBISAEhIAQEAJCQAiIACllQAgIASEgBISAEBACQsAnAiJA+oRLPAsBISAEhIAQEAJCQAiIACllQAgIASEgBISAEBACQsAnAiJA+oRLPAsBISAEhIAQEAJCQAiIACllQAgIASEgBISAEBACQsAnAiJA+oRLPAsBISAEhIAQEAJCQAiIACllQAgIASEgBISAEBACQsAnAiJA+oRLPAsBISAEhIAQEAJCQAiIACllQAgIASEgBISAEBACQsAnAiJA+oRLPAsBISAEhIAQEAJCQAiIACllQAgIASEgBISAEBACQsAnAiJA+oRLPAsBISAEhIAQEAJCQAiIACllQAgIASEgBISAEBACQsAnAiJA+oRLPAsBISAEhIAQEAJCQAiIACllQAgIASEgBISAEBACQsAnAiJA+oRLPAeCgMPhoOs3btK1a9fpzt176hWxY8WkBAniU/x4cSlKlCiBeK2E6YYA8gHsxQkBISAEhIAQcEdABEh3ZOR6hBC4ysLK+Em/0YmTZ2zflzpVcqpW5UtKKAKNLR9/Xzx67AQNHDaOKn35GeXL85a/g3/hwnvy5Ak9fvxYdYKiR49um/5HfP/J4ycULVpU/h/N1o9cFAJCQAhENgIiQEa2HHlB4gOt42+z5tO2Hf/Qw0ePKFmypJQ/Ty5KkTypInD6zHnavG0nnT17nl566SXKkysHffn5p6KNDHD5GPPrNNq99wDFjh2L2jSvTzFjxgjwG4M3+Pv3H9DwMZPo9OmzFP2l6JT37ZxU9pOSSlDUqd65aw/Nnvcn3bp1i+LGjcuCe1nKkimDvi2/QkAICIFIS+CZCZA3bt6ixctW0t59h+ja9RuU7PUkVKhAHnq3cP6AwLp77x6NHT+Rcr+VkwoXKhCQd0ig3hGAVmbStDm04+/dlCZVCvq4ZAnKnCm97cMHDx2hRUtW0PETpzjvclCViuUoatSotn49XTxw8BBt2bqdUBYyZ8rI5S0fvfzyy54ee2Hunzt/kXoPGKGE9MePH9E3X1dg5m/4Lf2HjxxV/K9eu0avJk5MRfg7TJ48md/Cj2wBTZw6i7bv3E1vc+cHJhqHjxynujWrUqYM6ZxR7dR9AD148JAK5MtN6zZuofjx41GLRnWd9309OHX6DK1Zt55ucv2aJnUqevedwhQ7VixfgxH/QkAICAGPBJ6JAPno0WMaPGK86pknTZqEYrGW4/KVq4ThzDKlP6ASRYtwI+Yx7j55WLtuA9Vr1IyqVq5IDX/+0adnxbN/CSxetor+XLqS0qZNRbWrV6EYHoQ4CHzQ5Jw4cZpKf1ScPnr/PZ8ihCHE8RMm07BRY9imMr4SGi9cvEgF8+Wlbp3bUzy2s3zR3RPWCA8YMoZOnjpDX5YvQzPmLFTax3a/NAi3kI0Ow4TJ02jQ0BGK9SuxX6ErV67QY77esV0rKvlBiaDE37ZzHyXIdWnXjA7+e4R+nTyTKnMHKG/unM70Nv6lk9I4fl/1S+rVfzhdunyV+nRr47zvy8GCRX9Sx649WGCMTa+8EpvDukypUqSgEUMGUOLEiXwJSvwKASEgBDwSeCYC5Jr1m2n23D+oTKn36f3i76hIYkizJ1eg51kL0qZFyNBZv0GjVINT/n+lKHmy1z0mxs7DtevXadKU6TT210mEd4gAaUcp4q7dvHWb2nbqrWwaWzatR9Gje2fzhU5H116DVCejY5smFDfOK15Heuu27VTzxwZUtcrXVP/H2uq5HTt38bX6rAUrSAP6dPc6rGD1iBGBjt36sWY2A9X8rhLNX7SU/lq1XgmTGBkIjzvEwtNXVarRVxXKU7PG9VVQDx8+pErf1qCz587TmuV/hFmrHJ54BfpZaBRnzlmkNLqoe+BacZl/9dWnwtzAYWPp6LGTTj+5cr5B31au4HPUzp+/QJ+U+5IKFshPg/r2UM8fOXqMvq5aneLEiUN/zp9FL7MpiDghIASEgL8IPBMBEoLhCdZ0dO/0i0n7tHX7Lpo8fQ7Vr/u9qvQGDR9HN3jo5yW2H6pY4X88FPSmT+mG4NhnwGDTMyJAmnBE+MmEKTN56HoPfV/1K3rzjaw+vf+fPftp7ITpali1aiXvGtlHbF9Z6n+f02P+XTR3JsUyDOd17dmX5s1fSMsXz6dXYsf2KS7Ps+cdbHe3cVPIUP5dnvV++/YdNayPNNWp8Y0yJ7h37z516jGA7ty5SzFjxKBX4sRWv7CNzJYlIxV/r7DXCJo0b03LV66iv5hzwgQJnM8tXbaCmrVqS53bt6ZPSpd0Xg+mg+Ur19KCP5ZzuYupJoNlzvh0+BrpvHzlGmt7F9CBg4fprTezUznuLGPlAV8chNMq39VkM48TtHDObzwM/nQG/dwFi6hD5+40fvQwypnDf+YIvsRP/AoBIWAmcPfeA9q5+ygdOnqGbt66Sw+4fbp/7yHLOtEoOk+kixUrBsWLE4vy5cpEGdKGTXlmfmNgzp6JADls9CQ6eOgwdWrblOLwUIt2GzfvoOmz5lGDH6uz/U5KwtDXcR62HDluMiVOlJCa1K+lvXr1e/7CRR4mP638YmmSxi1aiwbSK3KB89St92CCLqZlk5/C9JLOPQdSNLaB/MXL5w8c/JcqfvMd1arxHdX+4XvTOzdt2Uq1f2pIjev/RFUqfWW6F8wn/QaP5lnvId9FarZBxQz3VxMnpNfZnAQTPbTbz0LN4aPH6dKlK3Sd7ZRPnz2n7PXisPa3Q6tGXmsNp82YRRcvXqZ6dWvqoNXv1m076Ie6P1PDej+ydrii6V4wnTRs3oGSvJbYbZmFLfCEKbOo8c81KWUK321C0cmG9vHdwgWpa6d2JnQnTpyksl9UUtrfFk0bmu7JiRAQAhFL4Nbte7R5xyHasfsIPXz4yKuXJ3k1ARXJl5UyZ0iuRiq8eiiCPD0TAXL7zn/UJIqi7xSgUh8WpxgxXuYG6qayi4QdZFsewjbapQ0bNYFtiI5Svx7mytEXRhcvXqKPypQTAdIXaAHw27JdD8qWNRNP0CjvEvq5cxdozIRphOHq2qwJS5rkVRc/aGj3s1DYtX1zl3t2F1auXkMNm7akMSMGswbbvCzNZbbD+6B0WTWZZujAvnaPB+U1aP+Hj55I0D5Ck+tpogxGX8EKgicqvc8/K00F8uYON5uRY8bTiNHjaOqEsWroPNwBRtIAurDpxZ3bd6kKl3ljh1lHd+Gfy+nQ4WPUonFdeu3VxPqy17/nePi67OcVqU6tGlTtm0qm5+7cuUNFipekTBkz0G+Tx5vuyYkQEAIRQwB16NnzV2ja3DXcCfdOcLTGLEvGlFS6xNs8EhR5TFGeiQAJMKPGTaF9B/5VS7REjRpFCQ0Ybqxa6XM129YIr3ufoXTr9m3qzBrLsDoRIMNKzr/PQRuD4c//ffKhS8CYkXrl6jV1HbPymzWs4+Jn3sIltGL1Bq87Ewv/WEyt23emBb/PoBQWO1pMrslbuBilS5uGZk+f5PKuYL6ASWs9+g5TaxR+XLI4vV8sxBbZLs2HuPM2Yuxk5dfu+7R7xtO1f3bvpRp1fqL06dKxADnGk/fn+v7WHWyaw6sOhObSpElJ9et8HyYNw2meeQ0tY+tfmtJnn35ieg1GcfIUKqpMB2BCIE4ICIGIJ3Dg8Bn6/c+N5HjCkmQ4XOKEcem7iu97PXcgHK/y6tEIFyBRoS1bsZZWr9ukbK+MscSOI9A6fVn+U27UUym7rKEjJtCpM2fpwxLvquVejP59ORYB0hdagfPbpGVnKpT/bdZifezyEnQq9u4/pK5j6ZNvvv7cxc9vsxfQ1u1/U8/OrVzu2V3AzNQ2Hbqw/eMMXirKbEuiG9fUqVLS3JlT7R4P6mtneI1NzAyGMPl52dJqGS1rgjGEPZKFR2gea1T7mrKz9jg8Dp3EcRMm8aS2yZQuTWrq37s7JUnyWniCfC6ePcva9UuXr6iJfMtXruPJQxfoi3KfqNGXuHHjMItUYU4Hlu75rMLX1KZVcypbxvxdwT7y7YLvUTxeY3LVskVhfoc8KASEQNgI7D5wgv5csZ0ePXwctgAsTyVLmoi+/bK45eqzOY1QARKV2byFS2nV2o2UMGF8eqdQfsqRPQsliB+X1bsXaf3GrbRpyw4lXdfi5V2SvPYqdejaT9lCYp3Ar3gh6UQJnxrh+4JMBEhfaAXOb5uOvQm7y/zAM32tDkLK8lXriFtZpRHD5CmrGzFmMp3ihZk7tW1ivWV7vnzFKmrCtq+Txo2iN7KbJ+3Adqzohx9Tntxv0ejh5slWtoEF4UXYOY7gJZKw6wx2n7G6TVt30LQZ89TkjveKhG/91NPcEezZpz+vU7iBihd7j1o1a0yJ2Lb5RXOYCAatbuvmP6vldsKbfsxkL8sCJFYYqPz1l6bgMBmqUNEPKC0L63N+m2y6JydCQAgElsDtO7z+9NTlhF+4uDwxpsQ7OenE6Yu079ApuseTaUJzrydJSFkypqDYvNTh4lXbeceqEA1m9syp6NOP8oVpxCK09/l6L0IFyGPHT9GAoWPUjEQYjGNijNX9vWsvYQFeGJP/zLOxsezLLF7yZ9++g/Qy20q2alYvTAvjigBpJf1szvvyDHxovNrzJIyXorsKiKHFCjvWtO/SV5WbRvV+CM2r8x6GSqtWr0VNG9WnSl+ZZ27v3ruPvuHZqzWrf0d1apon2DgDCPKDzVt30tQZc6kCa4SLFMqnUguhQ+9A8y/b5g0Z+St39vLZao29xXPm7Fn6tkYdntV9hxrxOqzly5WlKN4+HET+oPUeNX4qL91zQk0kM9p6hzWZ13hh9jLlvqJSH32ghrGN4Zxj4bJ02QpU5uNS1InX3BQnBIRAxBCAwmz89BV0/uJV5wvz587MAmTIajKPefvSP/7aThiWTpvq6SjMnbsP6NjJC7wawyuU962QXanu82YDQ8YuogesZIGLGi0K1aj0ESVKEMcZ9rM4iFABciYvTrxh8zaebViL13VM6ja9o3k7tT28nZpeUgQZgSV+pvz2O0/AyMjr1FV2+6y7GyJAuiMTsdeX/rWGFi3+i97jCVTlPi3l08vn8JZvMH3AzjUwafDG3bt/n94tUUoNky6YPd3UYxs2ciyNGjueliz8nWchP12bz5twg8XPzLmLaN36LWrtVWj3YSKATlyyZEmoetWK9MTxhFp36MWT2uLwzOvGYUr2Le4ElvuyMts58/D1qKFKGxamgILgofGTZhCWo4Igidns6AiFd5932PJ+Wv4rQiOzdOEc0+z4tes3Ur2GTQmTxLDzkjghIAQihsD1G3doxKTFap97/cYyrDXMkSW1PvX6F4Lj4DELnQIkHkyUMB7VrPKh12EEwmOECpAdu/XnSu4Bz7JuoGx/3CVIaz2wgDF2xYB7wsanI8Zi+Z8jPFvxR9sZuu7Cw3URIEOjE3H3MEwNLSQmyzSqV4Pz8WnPK7RYnDx1Vs3Sh5CDRtdueNvd89NnzqbuvfpRW7YRK/e/kPJ07PgJqlm3Pu+9nUwJNe6eDfbro8dPowOH/qUSPIlmLS/wj3UfsW/zI84nMM7Du6Zgv2Ys/I2Z72HZ+nHQ0JFs8ziRhg/ux1v25Q12pG7TB63j4BG/qiXKsrBJzpLlqwkrUfzvk4/cPuPtjXUbNtHPjZrSN5W+pgb1QiafYbelOvUaqbpvIU8ig62lOCEgBCKGwPwlW2gP2z8a3ZvZ0tAnH/heB2IIfNiEP13sKKuyLWRytol8Vi5CBUjsQINhy4I8icKTW8haqqyZM1CGdGmcXrEe3V+r16sZvFjc2BcnAqQvtALr9wB3AjAxI1q0qFTz+8qUMX3aUF+IJZxGj5/Cs4CfKP9ofH1x91kL2aRFG1q3YaNaTBnDhhs3byVsozmgdw+eCfy0jPkSbjD47dF3KGEPbDjYHBcq8DYVLpCX9rDJCGyVsV4kRgCwUkLrZvWV7bIv6caz733wsRq6xk40WE3hEQujuK5dqlSpqG6t6vo0aH9h440tImEukD1bZureZ8h/2xj6Zw3Snn0GEDpLmTKkZw1yMt6Heyd/Y9Gof6/ulPNNWUQ8aAuWJCzSEbh3/yH1HznPFC+0d1W/KEFJX4tvuu7NCerL2Ys20qEjZ0zeixXOQQXzZDFdi8iTCBUgIzJh1ndhHbuvv6lOFcqXZZu3atbbch7BBHazicKvk2eo5ZsKF8xLH/Me11gPFA0eHIbl7t9/QIuWrFCTq7Dl4beVv1CTrsIa1aXLV9DEKdPU/sQlihWl6tW+Ieys8iI7LJ105+5dwgSZUh8WMw3xg8tOHs6eyTulYHgUdsuvJ/VOY6yZQnP5yWfmiR36nv7NyjO7B/bpqU+D9hfluW2XPvSAf+Gw6gRmYod3q0gjsO07d9HQEaPoAq97WyBvHvqx9g+UIIHvDZYxTDkWAkLANwKnz12hiTNWmB56NXF8qv71+y51rMmTh5O+w+eahrEzpE1GX3xa2MNTgbv9wgiQgUMoIYeVAJYyGcsLh1+6fFWtB4pFlqP/N7EGE2Zus7YKQ96JeZcU2ONhbUhx/iWASWrY2Sc0QfoBC4+3efJLgvjxwlX5+Tfmz2dox1mjC1vwW7x9ZGkW2PPkftPZaXo+UySxFgJCwEpgz4GTNH/JZtPlooVyUKG84dMWjpmyjC5evu4MN37c2FSnWmnneUQfiAAZ0cTlfSYC0FBBG4lF5TFL/xpvmQcHYSUtL66MfZex1NNLL71kek5OhIAQEAJCQAhERgLb/zlCS1buMEUNy/fkz53JdM3XkymzV/ESQJdMj7Wo57pesslDAE9EgAwgXAlaCAgBISAEhIAQeLEIYK/rxSvMAmTRwm9SoTyZwwVi1OSlvAxeiJIFAcGusmndcuEKMzwPiwAZHnryrBAQAkJACAgBISAEDAQO8mSX2Qs3GK4Qr/WYlCp+5n7LWJNnNydYyufWf4uSw0siXkOyZpXwr+Lg5nUeL4sA6RGReBACQkAICAEhIASEgHcETp29TJNmrjR5jhnzJapdtTTFjBE2c6yjJ87T9LlrTWGmS52UviobPqHUFKCPJyJA+ghMvAsBISAEhIAQEAJCwB2Bu7xF4YBR811uF8mXjd4tmN3luqcL2PIQw9d6S0TtX5bx0STkVwgIASEgBISAEBACQUDg9z820v5/T7ukpBjbQuZ+Mx3FeNk7TeS167fVjG4sDWR1lT8vSqmSv2q9HGHnooGMMNTyIiEgBISAEBACQuBFIADBbyS2MuRd9H5gO8UzLAD+sWK72toQu3zlfjM973WdkeLFcV2LGM+cPnuJVm7Yq37teMXh53767mO7WxF2TQTICEMtLxICQkAICAEhIAReBAIQAsdNW67WbYwdOwZVKvceXWWhcg5rJp/wrmpwMWO+THWqluJNNMzayMPHztGM+evcYoqKXW0qFKfXkyRw6ycibogAGRGU5R1CQAgIASEgBITAC0Xgxs07SoiETWSC+HGoRqUP6O+9x2j7rsP0iHdbK5gnK+XOkc6FyZ2792nwuIUsaD7d8tXoKWO65FT+44Jqi1nj9Yg+FgEyoonL+4SAEBACQkAICIEXggAWFV++5m96wvtZly1ZgLJkSME7eoWedGwdO2D0fFsBMmWyxFSlQrHQA4iguy+EAHmbtw3Dnsq79x2gqJxzud/KwduIFefdTaL7DTPU1YcOH6UsmdK7DXPm74t4a76H9PUXZZWf1h17UdMGtSl+vLhun/F04x7vq3vs+EnKmjmDJ68v5P2jx06qPbebN6pLsWLFfCEZRIZE79t/iP5ctoq3rbxCiRMlpDKlP6DMGZ/2vLluVd+P8VpkiPfzEIdbvB1lz37DCFtOWl3+fLmp/P9KWS97PMd2iw+4rqr05Wce/YoHISAEQifwz/4TtHDpFooSNQqlTZmEMqVPTg6u9FIme5WSvua6V707ATIub10ILaa3E3BCj1X47wa9ALlt5z80e+4f9Ea2zPTWm9np8ZMntGXrTjp64iTV+q4ypUqZPPwUOYT5i5bRtRs36JuK5d2GN2/hErUReoXPQgxfm7bqQq2a1VPb9rl9yMONqTPmsh1FDCr3qe+NhIegg+L2kaPHadT4qdSmRX2KHcvVWDkoEhnJEzFjzgL6+5/99PFHxShBgvh07sJFWrx0FRV7tyCV/qi4iv36Tdto6/a/6ec630fy1ES+6GE/8y49BlLpksUpaZLXTBFMmCCeyzWTBzcnU2fOo4cPHlDVShXc+JDLQkAIeEsAwuIRXsfx9z82sRLpkfOxUiXeplxvPO1I6xt2AuQbWVJTiXfepFdiRx5FSFALkPfu3adOPQZQiaJF6P1iRXTeKMl/zvw/adOWndS+ZUO/aKbmLlxKN27eDFWAdEbgvwN/CJBTfvtdxV8ESCvdkHMRIO25RNRV7G3esVt/qlf7O0qXNpXztZu27KDfFyymru2b83BOFFq3cStt27FLBEgnIe8PtABZq0YVSpfmKWPvQ3D1KQKkKxO5IgTCSwDrOK5cv5sOHD7NIwaPyBsBMnGieJQvV0Z6K3taVVeGNw7+fD6oBcjlK9fRspVrqXObJrxnZDQTt+s3bhKEL2gDX3s1sRr+Wc5+12/eRg4ejs6fNxeV/KAoq4pfVs9huPmn2tXo8OHjtHj5KqWKrvJlOcrEw3CDho2jozyMDBeVVdS1qlehTBnSUfM2Xall03r02+z5lCN7Vjp+4pQawv7m65DNzyFANqr3A61Zv4m279zD8UhEX5QvQ6n/04piSAph9OvRToWNP1euXqMuPQdSswZ1aMLUWXT23AV1D+9t8GMNSpkiGV26dIVmzVtER3j4NmH8eFS+7MeUMX1aFbe79+5Ru8596ZcmP9L0WfMpf55c9HauHM7wg+3AToA8fvI0a6UXsSbsEs9ie40qVvgfJXs9iepYHDh0hH6fv5iuXLtGaVOnpC/KlVH5gs7IL+26m/IC4YwYM4naNK+vhPhbMJX4cznt2LWHXuZyU/y9QvRekQLMPWqoYQcbc2N6rl67rgTIWt9XpixsZgFhEQ498hs3b1G8uHFo3MTflHkJrkVjVhg2fTvXm3T6zDmaPe8PAufXEieicjwUmznjUxORlu17UIdWjWgua/aJotAnJUvQn0tXEkYd+JTeK1yAPij+7jM3NFcJDuAfbwTIy1euETrNMLOJG+cVNWKRLUtGVTYRNWtddQx1lUEDuXHzdpq3aCk1qFuDkiRJTKg/F/CoC8yCYsSIwdrl4pQvz1vO/A1gciVoIfDcE4Dp2cZtB+nNbGkoMW9HaHWwl/xrzS6WBV6jzDzcHWkdV9pB63r2H+bgIV6v0sdCoKNLr8EOHl5zXLx02dF/yGhH975DHY8fP1bPt+rQ0zFk5K+OZSvWOrjydKxcs8HR+JdODhbgHLfv3HXMmLPQMXbidMfNm7ccjx49Us/g/ohxkx179x9yPHjwQMVlwpSZzvg0adnZMWz0RMehI8ccrL10cGPpaN6mm+Pu3bvKz/37DxwNmrV3+sfB5StXHY1adHCcw3tv33GMnzzDMW3WvJD3cly5weYwujr+XLZShbn/4L/qfMv2v1U4dzjsRi06Oobye1lYcrCdkyn8YDs5zGxbtO3GeXRHJe3c+Ysq3zZt3em4wfm4bsNWR/PWXR3Xr99wsLDpYKHese/gYcVu0eIVjo7d+6sycPfuPZe84EbWwUKl4w7n/+PHTxxdew92TJo2S+XBqTPnVHnizoN6b2hhBxtzY3rYNtgxY/YCR5OWnVRZRzlEuTY6lEnu7Dn6DhqlyjHbCTtwrRmX4zXrN6t82rR1h6NJq87qW9PPIl+5E+hYy3kI/9NmznV06jHQcenyVQfyuUvPQQ4WKLX3oP1lQVyV4SPHTtimkTuNDha2HSxoq3INfzhfvW6T07+1rprC9eavXLfA7d57gPOvs+PwkeNO/4OGj3OMHDdF5c3J02cdbTv1cWzZFlLHOD3JgRAQAkFNAJqAoHVtOvd2cK/ZY/q4V+5o2a6HU8jAAxAEIcwd/PeIeh4CJGtKHE/QIrJ7yEJih279HDwUp85/X7DEwRpBdaz/oFLesHmbPrUVILf/vdt5H2GjUkajCOdJgISfydPnKMETx3Co+Mf8OtUZT1xbsXqDg43scagaWgiQO/7eo86D/Y9VgGQtsKMZC4wQ2OEgrGzf+Q8L7fcc/+zZ72jfta8TCfiDE/LFkwAJwaj3gBHOZ3EAAR3C6R0PYZseCsITdML2HfjXwZpdxaghd4C6sbC9YfN2Z2rXbtjiGDB0jPOctWqO/SzIG12v/sMd23b847wEAXLqjN+dZX3k2MkO1rI570OI3M/vDXanBcjxk2ZwXfCn87+u+3jynmP4mInOzjB4rN+41dG11yAnGmtdpQXIg/8eVcIjvg2j68H1CZsdOC8dOXrCceLkaee5HAgBIRD8BIJ6CHvAsLFqCNeTIfj6TVtp5eqN1KJxXeeQDgsN1KFrP/qYh8UK8ExGDGFXKPcJ5eKJOHC4j5mPRQrlo3cL5+dhNFcbSO61E2b/YmgabhoM03lmo3EIu2XTnyghTyzQjrUC9NeqdWyb2UgNq4c2hJ006WtqGB6zi7UNZNvOfehzHrJ+681sOkjCEFfbTr2pT7c2dJ+HpVp36MWTd36mRAmfvtfpOcgOrEPYLMxwPsyns+fPU8rkydQkqvRpU6shbBg3T5o+h65evcrXU6h7GdOnoVd5+NR2CPsED2GPDRnCxgzjdRu28HBeiMkDMLLcSY8fP1JD3DFjxnQbdpAh95ic+/fvs2nJOlqxaj01/KkGpUj+uosNJNZIW7l6g5pYA9MAropVHnzJJh74HuFgUvBDtUqUPl1qdX6YJ0xh9nCiRAkoVYrklCZ1Cl6dIGPQD6vqIez0XFbjvvKKYoE/0aJHI/DiThGV+qA4Fcwfwg33wLQN12m9u7Zh856oZK2rYAN5nM1yLl25yvYGRK3YFCehob6ADeuqtRspyWuJ2WwmOaVNk5IypEsT9KzBTpwQEAL/EQhmGZntdlTvmRt/l2Sev3DJ0ZiHZU7x8MuGTdscnXsM4KHnkOFqeMYwdJtOvR2bt+1Uz0IDiaEc7TBk2a33EOcwkDsNJIa7tcNwunUIm5c10bfV77IVaxydeg5Ux1oDCQ2YdhcuXnI0bB4yhI1rVg1kh279HRieNTq8A8PeCEcPYfPSH0YvQXts1UCCAQsnKr0wV5jPGmpoX9huVPHRJgunTp9zsI2oA/mOsqA1kMa8gHZGD2HPW7jUMYI1YFan/ePXXdjWZ4LpnJeYcoxirTqGUa0OGrClf61Rl60ayOVsKtKa2R9mzZZm2I+HuPFNawcN5HnOQ+3098sCqmPnrr2sYRvMw7BPTUa0v2D71RpId0PYPJHQwcKeKdlsS+2AJlizxTdgrKuggcQ17hQ5erLmF6Mi2i8C0qxhRgPzAu64OpYsX2V6h5wIASEQ3ASCegibtW2qYpvDQ2dGh4pw+JhJbBvXnW0THyohEjY+19h+UDvYUcFuSw/LeBIgF/yxzDF+0m/6cfVrrZTtBMgly1c7n4Fg05mFR10RI56I17+Hjzn9oKGFXSRsIOFYq+n4bc4C5/0/lqxgOzAIwyF2mLgxcepsx1C234R70QVIXo9QDaMi3+FgigCeGKID29Hjp6rr+IPyo1jzUCjyAvmpywPuw6ZMC5AHDh5WZQ0dC+0wXN6jz1Blqxpa2Np/MP6ePX9BCSo8ocuUvOvXb6qyvWv3PnUdnbh+g0c7/YyZMJ2/pxAbPFyEcIPvMTQBss/AkQ6ecOMMA+YHyDOd184bQXbgSYD8a9V6B8+EZ3ONp3UChrVh562dta5SpjATpqnbsPFF/QdTD+16sH04OrPaITzYkYsTAkLgxSEQ1EPYULJiBudEnq2M2Z6pU6VQ60BicWme1EK1vq/CixqH7CW5mIcg127YTDlzZOdhGKJ/9hygvG/npE9Kva8WH8cQNhYAx3qScCxP/DeEnVcNYR87fkoNZ2Im4juF8quhHQwLtf2lgXo3nrEbws7D78Bsx3i8mDgLisQ9e2r8c02KzsNPcJhhupnXrcSsVBb+eGX6x8SNrpqFjSFstgmjWTyjGLPGi75TkGLyjMh+Q0armZZIL2ZtH+SZxbWrf6OG9DALG0PYHVs3pldeia3eEcx/rEPYLIhQ34EjKVmy1ykZ87tw8TKxnaualY7h7YE8oz4dD2mjXLB2Wt3HLGvkx4Qps9Rse5gHXLt2g2dav0Sslf5viDoGz7ZfQDzRgLJlzajMD9j+jgoVyEsflnhHLaAdWtjBnAfLeah62V+rmUsmteYpFvbfs/egWsHgm6/LK7MRHhGgvoNHUd7cOakgD1FfuXqd2L6RcuV8Q62gcPLUGc6D6PQS/69erSK9/NJLaggbQ+BJXntV4eMJbmrY+62c/A3zFe4UUE42Ofm8bOlgxqtMVLAOpLtlfLiTRAOGjqXovBIFllLCN4Cy+d03X/FqEWkVG2tdZV3Gh4VQYiFfmflgRYtJ0+aoVSWyc55itYi/d+9VmzO8WyR/ULOWxAkBIfCUQNALkEgq7Nd4kgOx9kjZ6KRnWx00VFpIgx/uMxAb+ivhjHVIlIMFxTffyOq06cGC3e+wvaNeeBz+sdxLVl4KA8thYMfKNWwTdIKFjo9KvKcESB6uVsvA6B1QYCMH2y4IenAQSCCU8jA5wX4LtpJF3ynEC14/XSgUNpMrVq+n8yzoZOElTHK99QZN/W0ulS3zkWqMWdOoliq6fPmqsteEPSXesWbtJjp55qza5abYu4Wcu92gskdavqrwqRI2VUSC+A8PcRIEC9iv6iWZIETD/g72XYkTJlACf/z4IUspYN3CVWs20HVeYiYpCyZFCualOLzsCdxdLkcr2D71MgvlOblsYAmn3+ctVmFDmGQtJe34ezfxLG4l6ORm4SezYWei0MIO4ixQScO3h+WNIHhj4Xt0xPBfL+sDT7gPgRzfB5ay2r3voOIZJ3ZsKsZLIrGmjdZv3MYCYSm1TBLsVT/lHW30Tk74JndyGLzqgbL/y5opIwugITbLwcwX5XkW73L10fuod0KEaWt60TliLbjqUMdhO0kw1p1n+LXWVfCLziwWe4cDW15pQu0eBKEeZR12kLyCBMVi+16U9Yz/CaPqAfkjBIRA0BN4IQTIoM9FSaAQEAJCQAgIASEgBCKQgAiQEQhbXiUEhIAQEAJCQAgIgWAgIAJkMOSipEEICAEhIASEgBAQAhFIQATICIQtrxICQkAICAEhIASEQDAQEAEyGHJR0iAEhIAQEAJCQAgIgQgkIAJkBMKWVwkBISAEhIAQEAJCIBgIiAAZDLkoaRACQkAICAEhIASEQAQSEAEyAmHLq4SAEBACQkAICAEhEAwERIAMhlyUNAgBISAEhIAQEAJCIAIJiAAZgbDlVUJACAgBISAEhIAQCAYCIkAGQy5KGoSAEBACQkAICAEhEIEERICMQNjyKiEgBISAEBACQkAIBAMBESCDIRclDUJACAgBISAEhIAQiEACIkBGIGx5lRAQAkJACAgBISAEgoGACJDBkIuSBiEgBISAEBACQkAIRCABESAjELa8SggIASEgBISAEBACwUBABMhgyEVJgxAQAkJACAgBISAEIpCACJARCFteJQSEgBAQAkJACAiBYCAgAmQw5KKkQQgIASEgBISAEBACEUhABMgIhC2vEgJCQAgIASEgBIRAMBAQATIYclHSIASEgBAQAkJACAiBCCQgAmQEwpZXCQEhIASEgBAQAkIgGAiIABkMuShpEAJCQAgIASEgBIRABBIQATICYcurhIAQEAJCQAgIASEQDAREgAyGXJQ0CAEhIASEgBAQAkIgAgmIABmBsOVVQkAICAEhIASEgBAIBgIiQAZDLkoahIAQEAJCQAgIASEQgQREgIxA2PIqISAEhIAQEAJCQAgEAwERIIMhFyUNQkAICAEhIASEgBCIQAJRZq7c44jA98mrhMBzSSDLW2eey3hLpIXA80Bgz8q7z0M0JY5CwIVArERXXK69KBeifNDoVxEgX5TclnSGmcDXddeF+Vl5UAgIgdAJjGtwOXQPclcIRFICibPvi6QxC3y0RIAMPGN5QxAQEAEyCDJRkhBpCYgAGWmzRiLmgYAIkB4AyW0h8KITEAHyRS8Bkv5AEhABMpB0JexAEhABMpB0JWwhEAQERIAMgkyUJERaAiJARtqskYh5ICACpAdAclsIvOgERIB80UuApD+QBESADCRdCTuQBESADCRdCVsIBAEBESCDIBMlCZGWgAiQkTZrJGIeCIgA6QGQ3BYCLzoBESBf9BIg6Q8kAREgA0lXwg4kAREgA0lXwhYCQUBABMggyERJQqQlIAJkpM0aiZgHAiJAegAkt4XAi05ABMgXvQRI+gNJQATIQNKVsANJQATIQNKVsIVAEBAQATIIMlGSEGkJiAAZabNGIuaBgAiQHgDJbSHwohMQAfJFLwGS/kASEAEykHQl7EASEAEykHQlbCEQBAREgAyCTJQkRFoCIkBG2qyRiHkgIAKkB0ByWwi86AREgHzRS4CkP5AERIAMJF0JO5AEXmgB8sbN245AwpWwhYAQEAJCQAgIASEgBIKLQBQRIIMrQyU1QkAICAEhIASEgBAINAERIANNWMIXAkJACAgBISAEhECQERABMsgyVJIjBISAEBACQkAICIFAExABMtCEJXwhIASEgBAQAkJACAQZAREggyxDJTlCQAgIASEgBISAEAg0AREgA01YwhcCQkAICAEhIASEQJAREAEyyDJUkiMEhIAQEAJCQAgIgUATEAEy0IQlfCEgBISAEBACQkAIBBkBESCDLEMlOUJACAgBISAEhIAQCDQBESADTVjCFwJCQAgIASEgBIRAkBEQATLIMlSSIwSEgBAQAkJACAiBQBMQATLQhCV8ISAEhIAQEAJCQAgEGQERIIMsQyU5QkAICAEhIASEgBAINAERIANNWMIXAkJACAgBISAEhECQERABMsgyVJIjBISAEBACQkAICIFAExABMtCEJXwhIASEgBAQAkJACAQZAREggyxDJTlCQAgIASEgBISAEAg0AREgA01YwhcCQkAICAEhIASEQJAREAEyyDJUkiMEhIAQEAJCQAgIgUATiHQC5OPHjylatGiBTreELwT8TiAiy25EvsvvoCTAgBKQshFQvBK4Hwg4HA7C/6hRo/ohNAniWRGINALkkqXLaOy4CbR79x4qVKgAde3ckV577dVnxSWg79216x+aOv035zvwEXXp1MF5LgfPF4Fr167TgIGDaeGiPylmzJj0Y91a9NWXFQKSiBflO+nZqy8tWbJMMfzll2b0foliAeEZTIHu23eAhgwdTitXraa0adJQ587tKNdbbwVTEk1pwXfXq09fevLkifN6ndo1KXWqVM7zF/WgV59+dOXKFWfyS5X8iIq+967z/FkeDBs+imbNmkPnzp+nil9+Qc2bN6aXXnrpWUZJ3h1GAgERIFFwD/17mM6cOUPx48en15MmpcxZMlN0N5rFe3fv0XvFP6Q7d+44k1Hh83LUvl1r57mvB6hUbt9+Gh6ef+WV2G57POgN3bp12/SaOHFeoShRopiu+eNk6vQZ1KVLd1NQu3dtM51HthM7nohjoBhFtvSHFp9x4ydQn74DTF6W/rmAkiVPZroW3pNAfCfhjVOgnn+v2IfOBvC3aZMoe/ZsgXpV0IRb+8efae2adc70oN5dtnSR8zzYDg4cPESfV6hoStaUyb9SzjdzmK69iCf5C75rak+bNGpA1ap988xRQHlSqUo1Uzx6dOtMn3xS2nRNTp4PAn4TIM+eOUv9WAuzceNmZ8VvRBA7dmyq9m0VqlH9O3r55ZeNt8iuUOXLl4fGjRlp8nfv3j36lwVT7VKmTEkJEsTXp6bfpcuWU8NGzUzXVq1YSokTJzJd0yfLl6+g+g2b6FP1u3njGkK8/e2eRwFy9Zq1VPfH+i4opkwaTzlzvuly/UW6UKvOT7Ru3QZTkseNHUn58uYxXQvvibffSXjf86yfP3nqJJX++DNnNHbu2Oy28+n0FKQH3tZ5j9j0J1fu/C4Utm5ep7TiLjeC4IIIkO4zMbIKkBhl7NvP3Nn+6cc6VLtWDfeJkTuRlkC4BUho7n6fO4/atO3oVSKzZM5EvXp2o/Tp0zn9Q7OSt0AR5zkO2rVtRV9UKG+6Zm1Av/+uKjVq6CrU4KHFS5ZS4yYtTM+HJkAu+mMxNWve0uRfBMinONq260iz58x9euG/oxrfV6MGDeq5XH+RLowZ+yv16z/QmeREiRLRX8v+oOjRozuv+ePA2+/EH+96lmHMm7eQWrZuq6JQongxGjigz7OMzjN9ty91nrUj83HpktSzR9dnGv9AvlwESPd0I6sAufPvv6nKN9+bIj53zkzKkOGpPGC6KSeRmkC4BEgMazZs3IygvfPFYWhlyeIFpuFkVAYYCrx2/TqV/PB9Kl2qpEvP2apV/K5aVWrcSARIX9iHxS+0G4WLFDMNiehwoAX+c5GrYKnvvwi/4PPrr5No46ZNlDFjBvqs7P8IHaVAOG++k0C8NyLDbN2mPXdK56tXtmjWmKpUqRSRr49U7/Klzrt+/QYNGTaCDh06RIULF6LP/vdp0NqRI5NEgHRfVCOrAIkYo0zPnbuAYrNJWRkeun7v3XfcJ0TuRGoC4RIgoZGCZsrqoIHJ83ZuypQpI2E4asvmbcpgVvubNHFsmIy7J02aQt17PtVGiACpiQb2d/PmrfR9jVpuXzJr5rSACUxuXyo3gpaA0f5xxrTJlC171qBNq6eE+VLneQor2O6LAOk+RyOzAOk+1nLneSMQZgHy8uUrVPqTsi5aqa+//oqaNm5gsnPEMPc0TBzp2oM6d2rPGppPXTjBj9HZTV7BzDJoerT7lm0qYRysnfGZQA1hG+NpfJ+OA36NfnBu9ReaDSS0CHv27KWHjx5StqxZKUmS1xDEM3U9evWhiROnOOOAPJ46dbrz/Me6talO7R+c59YDIw8jC0yywszRx08es0lDesqYIb161J1/Y7hGP7huDFf7M/ox3r9w4SIdZI33vfv32OD+TVvGsD3bt38/nT17nlKmSE4ZM2Wg2LHc28Ma32UXH+N9Y1zgFxPOTpw4yRr5KJSZO13Jkye3TQ/8GsPBuTUsqx+7+1Y/voZz5MhROnrsOMVgW+a3385layd89do12r//IN24cZ3SpUtH6dOl9WpI/8TJk/TxJyH2j7A/Xr9uZaj2j5cuXab9+/bTjVu3KHu2rJQmTWpbJkgjnJGfkQ0m8O3Zs48uXb6sOkPp0qV1CQfPIk0nTp6gePHis7+MhM6ytw4mCP8ePsyd6tNqlnQmLlOezBx8qfMQD3fpcxfHsMQptPecPXeeDnN5vn3ntvqm06VN4zGNOm7379+nY8dP0PHjxynOK3FUmUmSNIlppEr7xW+gBcibN2/R0aNH6dTpM/T660lUOU6YIIExCi7H7vgjrP37D9DFS5dUfQLlSqxYsVyet7uAZZlOc1159OgxwnG6tGkpVaqUoXINTYA0xhHvM34Hdu83+rfzi5HIC+cv8HdxSn0/6XgFgPQ8JB0jRgy74Exl1NP7r1y9Sqc43NM8xwKrsmTOlIm/vbi24YbnItqEo8eO0TWut1KnTEVp06XxmD/uuNy+fZt2/bOH7nP7gjY8KZfhYHVhFiB/adWG5s83z/CDPSLsEt05FIZECRPa3nZX4FGxf/lVFbpw8aKLsGoNqHvXTlSmzMfqciAESMychvCnnd1EHyxN8MGHIXHQ/oYPGUjvvPvUxtMqQKKhxEzTDp260JYt2/Rj6hfD/d26dfL7hAzTS0I5QeVQrERJ58QoxHXmjCnORh6Pwn4Fdix2zprW0aOGc1repu7de5lY6qFwu3zbsmmty8dc6uOydOrUKecrrbaY1veOHD6EJxnkpK5dezqHR/XDiH/LX5pTgfz51CUMn3bt1tOlvDVt0pC+rVpFP+b8tb4LN6yz6o3lO0eON2jalAlq8liHjl1UQ+gMjA8w/D14YD/bWdzGcPCMdXalv8oo7IeRF9rBHhjCVatW7WnHzp36svrFaANs7VBRPnr0iJc0GqLMUYyeUG4GDezrZGy8ZzwGewxhw4Vm/4hhsB49+phGNvAMBLpK3MGp+cP3LoKHVeCoWeN7qlevruqUDh0+0pTfCOcHnvD3zTchw+e7/tnNdt7t6fDho3iN0338cSnq2K4NxYwV03nNenCEBe5OXbq5fNvwhzqk3k916O3cuZ2PhbXOs+YZ6hzUPXbO1zgZw7C+B2UDK1h07NRVLSFk9Osp39HY/jZjFi/r8jsLj8eNj6pj5APq9cKFC7rcs+YnPIR3FjY6teN+nUSLFy911nnGF2PCYLeuHSlN6tTGy+rYWg8MHzpI5e/AwUNNig/9oLv6BPdhFrN06XKaMmW6y/emn2/WtBFVrlTRdt1kd/UEhJ6ixT8ypQ1L6bRubZ4voN9RqUo1VU/pc2t9g1n//QYMcqnD4B+s6v1UlwoVfDq5y9s8w3eGpdH+WrFSv9r5i7biO55R/jmv1OJuZRen51AOYI85bvxE2rBhk+nb149A0dWieRNeaSSOvuT8teb1kMH9KUWKFNxW96RNm7c4/eEAbXiXLh081n2mh56TkzAJkLe4t1+wcFFTEgFp0cLfTZpHkwcPJ+4K/I0bN6nwO8U8PB1yu03rX5zr79kJIuGdRGNtnDG0hiE2owuLAGl83t1xp07tqBzb1kW0Q8NZqfK3zteiwezZvYsSkpFW7RbMm01pWdtgddYPrVuXTkqzN2GimZsO1y7fNqxbRXHjmj9iXwXIqt9Upk2bNttWdIizFoyxPhkmxbhzdp0kaxrxbGgCJO7Dts9ojoFrRof4rPxrsYt2z913op/1Vxm1CgloOKxCln4nftFYDOzfh9CxRIXszk2cMIZy58rl7rZ6XndMW7ZoSpW4gTS6u3fvqpEMbSNpvGc8fv/94tSja2eTYGdtvIoUKaSWGVvE63e6cxB6Hz58SI0aN3fnhRDOiGGDbe9jxARaRE+uVs0aSpCEv7DWedY8cydAhiVOxvhb3+OpbOBZu9UaRo8dTyNHjrFtvI3vw7GdLaw1P+EvrAIkBNnu3CGZ87t39tx2ZljWegCdjx07/lZrGyNudq5pY+6U8kia0a1avYa6de9t6iAb7xuP3XWyQqsnBg0eRiNGjnYGg7pm/doVLhpNjDIW5eX1jG7G9CmULVsWdcnY2TP6sR7ruh3XvckzjMiUK/+lNRiXc3T8fx03xu1KLC4P/HchtM6T9RnINbNnTXfRelrzGnGxdi6tYXVo34Y+Lx8yumK997yeh0mAtFvSJbwCjrsCH9bK1E4QeZ4FSBQwrOmGAh2RbsCAwTRqzDjnKzt1bEvlPivLixR3p2m/PdXGWnum+gHrh4b4GwVP7U9XpHb55g8BUr8nvL+obFfzclBGjZM1jXiHJwHSm3i0atmcvq5orkjdfSc6vEAJkDr88P4WK/oeDR5kL1BZtSPGxkq/t1uP3jR58lR9GuqvdXkQu8Yr1AB8uDl96kR6443spiesE2BMN21OdH6Htc6zCnZ2AmRY42SMrvU9xnvujj/84H3q17en6TZW7vBWYMODq1ctM41g2eVnWAVIdBI+LVvBK6ENcUGHafLEcabhX7t6AH5Dc9CwLluy0KR4QQcKHTFvHUZXrBra0OoJo5mIfoddGAsWLKIWLZ/GA4vTL5g/Wz0CU4UPPzKPtOmwrL+6XOO6N3lW5tPyttpoa7glP/qQevfqZsoDqx+78+MnTtAnZcrZ3bK9ZuzcaQ9hyWs8u2zxQno92es6mOf+N0wCpN3CybNmhm8ihbsCD1u0YTy8BDd12gxTbxUawMIFCzgzoXjxos7JOXaCCD7Wl92seG8n1FiX8fFX4+yu8EEzU/Kj99km8AnNmDHb5SOCFg3DFhHprJo+aJmx04O1IdLDsta4uUsr/CH/3siWTdn3YPcW7Jphl2/+FCBRBkqW/JDuc7myW5ZIxx8NXlq2p5vMtp4YUjQ6CEAQhLSzS6O3AiTyHEP6ew8cMC0CjbDRSEFzY3TuvhPtx19l1J2QgJ420r6X7Q7daRohZH/CmmoML4GN1a1d/Zet1uAY21WW+V955V1pRSz2j1ZtODyiEalc+Sv+rl9WZdKoPUYYy5f+4dRe2zVeOm5Y8iYZV+zWOkbfx6/OK2iIEJbRQYuETpB2sGX+tOznpqFC3INWCmV+H9vD/TrhqT23fg4L0CdMlDBMdZ41z6wCZHjiZFwU3/oeHXcMLZbgOhha4hkzQwQNfQ+/mzfxuroGO2KjEIKO5SeflKKsbDMWI8bLNHv2XJfh8B/rmm2t7fIzrAIk4rds+V/UoGFTHBLqM7QnMCe5zcPz2D3FOsQ+dvQIyp8/r/KPP3b1AK6jHH7EK4u8mjgxTZn2m0t9YhXeYOdYvsJXTo0WdrXKkSM7vZb4Vdq0ZauLeQhMSH4d/1SjiHd6qid+qFXX9P2WL1eWOnZoi0edrknTX+jPxUuc5zC1gDAFZ7fs3YB+velNXsT93LlzbN62UPHASED/vr2cQp6nPLMbwcN7MVv7DtsQr1u7Xo2ExIsb11Yz6IyshwNjRxRxzJfnbWWXDOG6P5vgWOv8TRtW80YkrzhDdZfXntpwfP/NmzZ2hvO8H4RJgMRCoFgQ1OiswtbevftCHbr5mW2PAFs7TwUe/qw9E19nYet3eftrTZO/Gme7wle3Ti3+OKs77VlgL/rll5VdtHURuaiy9WNHJa93tkD83iv6gQmlXe/KLq14yGhuYAwkkAIkbBz7cWWmjbCt2lXEAwLmkMH96M0cIbtZ2K1bZuxR4xm7NHojQMJuEIILHLRv1b77gbZt36HO8QdxWb3yqR0irnn6TvxVRu2EBHxvDer/pMoobGOrVP3eZB+F+Omh7FdfTYxTZQ5gXCMT19x1NqGN0uvJolJHg2R031StbrIHMw6NaX/WeMNk4tNPQzQl1vKMZ1CmhwwZoAQFnK/lBqp23Xo4NDmtecfFO3fvULHiJU2NjFXDZh0mxHPWHTewLaV1aBx2l/WZsXa+1HnWtFsFSH/FIN3ZKgAAPptJREFUyfoexBUCdMMGPztt0obyckJDh4V0/HVaFi6Y42I7iG8nZswYVObj0qbt7CBEFX+/lEkAtw7X2uVneARIfIO9evej93jLv4IFQuyhddwxgQUdAqOzmljY1QOoc/r26cmmEvHUoxs3baEaP9Q2BkN2o3dbtm6jrVu3qxEI62YZzVq0IqvZhaf6xjpCZK1nIeSuYQ2vnvgCjWzuPAVN8Zw/dxZPJEqrrlnz166zi6HopEmSOOtbPOgpz+z4bN3Ei+HHempjjKF1TNIKz5aV2C1vGJfPypW/Jqvp1azZv1O79p1UOvUf62iIXV5HxjZcxz9Qv2ESINt36EwzZ80xxclagI29OZPH/06sWhxPDSMe86UytX4gdnHwdC0iBUgrP8Rt5OixNJB7Q0YXiC3yjOEbj2Eng0ZHOyzsjgXetfuiYmXat3e/PiWrYIUbdh9aaL0wu3zzlwZy5/ZNJjsfO42WdcIT0mAtm54m7OAZa35awzD25uEfDhopNGBGZ42zNRxrwxAoARIN4ZjRw41Ro/FsgN67b3/TNWtP3c6eyY4xAsFwGYbN4Frx/teY7a+dXYOG9Ueh9TI6q11W3To1CRU7nF3jBc0NNDjaQTDOmcssPFjzG36t2hmrBt6q4YEmC4Kz1VWsVNVkI2ftNPhS51kFO6sA6a84Wd9jN5lw9+49hLQZ3fhxoygva3o8OQzhHz9xnHr37m/qUEH7bZysZ5ef4REg3cULWrFTPHO+7o/1TZ2GqpYRIbu6zvr92pUvu7rALi6YMX+cNWQYObGacaxZvZyMM8Q91RMPHjygd95735QeY5tsXbrNWn7tOj+o17+tUjnUIVpPeXbx4iXuOIR0qjUD2Bj/zJNx3njDbCKi7/vrF52Wkzzje9eu3c6NDHTY2MwAHRjt7PLaWufD77Nuw3V8A/UbJgFy8JBhNHyEWWVuFbZEgHyaZdYG09vChxnZ31Wv+TQgPrI2eKabfIJZsN99X4vuPbhnvaXOE/De5KNGDLW9Z71YtlwF5zAK7vXt04OHYp5qHSHc4gPRzq4hsUtraLaogRQgrR84ZnFjiN7oICTp2dj6urURh2ADAUc7uzRa3+WpQkdYVpsjXNu4fpVpFqCncAIlQFqFEcTNzlZr25b1Ti0G/NgZ4lvLEfx5sn/89/AR+qzcF/DqdIUKPTVf0RfPnjlnGmo0aik9NV46DOM6lLgGARSCqNEZh8Bw3WgfhnNrPlmHX+EHDhNJ+vcfFHLy31/j9oPWshfaqItVsLPmmb/i5Ok9SMbp06epZGnzpD9rPagTDaFq7br1ahvcdevXm+oc7Uf/Gr8rT/mJJcLadnBdp1iH9W7hwvTzzz/qU+cvhuAXL1nGGsBttJpnGUNbZeesWmdv6gGEg1U6jCZT1b//Vmlv7d6BkbxVq9cym00mYdrq16rVt+a1taOJ5zEyYDT5wAommPEO16fvANNQufV5MMF3YucwevBt1cqmlQW0P095Bn9WxYR+FiZP331bVZkDRI8eXV9Wv2HNa+TD0iXLCRrfjTzJ0jp0rV9iVY54m9dhacP1O5+H3zAJkHOwdWGbDqb0/T5nhnMdP9yAnVDTZi2dfqwZY+ztwJM3Bd6XytROENH2Rc5IGQ6WcCHS26fpy1ah2F+Ns7eF7+Chf6n850+1MIhXzx5deNizlI6iyy9sRvPmL+JyXV/AUAXS5cnZGVpDOwLbE+2sNkG4bhUOvU2rDtMu3/ylgTQ2Pnifnb2NnQD5eYWKJpu3QAmQf/y5hL+ZXzQK9RuZBUg7OyirAGk3IcROgDQOEaKMbli30mnOARB25cIEys2JUYjypvFCMFa7XzsB0trAGgXICxcuUokPzN+ocQjcGFW7ToO2M4Y/X+q80AQ7f8YptPfotJ0/f4He/7C0PlW/dgLk+vUbWVjpb/q+TA9ZTozfsKf8tBsONQZn7FzgOpbOge0mhjbdCY3G560Twryt66zly06AxPfQn5exWb58hfGVbo+xDFz27Nmc971pT43fnH5Qd16s5W7xH/PUMjXaH36xhE/tH382XjIdY1i7Oy9BZxxq9pRnCABLKVWs9K3bPIDZSXseCcO3rZ2veY16aRQrPzCfwxsHu0VoWLXzNq/D0obrdzwPv2ESILHOUfUatU3pc7dAuPaEfabR4Gj3LARIq3Cj44Jfu8bwWQuQu3b9Q5WqVDNGk7C22DvvFDZdM574S4DEMjs9e/U1Bu3VsdWex9sPTQduJyiIAPl0CSNPDYO/OjneCAl230xYBUij3ZGd/eOiP/7kveqfmk/o8uLp17gftDeNF8KzNvC+CpDnzp6jD0p+YoqaLwKksbG2NuRh1UD6M07elA1vBMiVq1bTT/WeTjzSwNCBwFD3edYOIc+MLpACpLVToN8LM4mcb77Bk3rWmDRUgRIgob0t93lF07t0XGBugckcWAnF6MIiQOL5b6vVMGk2MaEH27EaO0B29o363dD8DeJ1Lq3x0fehdBg3ZqRzr2tvv0F0eMaM+9VlqF6Hi98+vburSXQ49kWAxIL1NX6oa7KnRhhwGKrHRCCriV5YBUjbNtyyLnTIm5/Pv2ESIO16s/jIFsybZbIxMyIJRgHSapOD9Npptaw9b2+FKjthyqidMPLVx+hFz5w1W5+6/MJI2pv1JCG4ovD76owaHzzrbVr1e+zSbF2+A36tjbzVTs2b99rlVbBpIMNaRr0REvwpQBonBliHi5DfdpOZevXsRvHjxcNtt+7115Pyjijp1H1vGy9r2fJVgMQ3mCt3flOc3A1hYwjROslo184tzkXQ/SVA+jNO3pQNTwKknWYaWtwmTRpwB7mImoyDBcaxOLnR+SJAYpb3qtWrjY+bjrHjiF7+xk4AwR7NMF3IwTOy4ax2r9ZJPd7UOQjHWr6sGkjrZDE8g0mHmIkM4dHOnMO65aenjibChLN+w5hUkuutnKaRELvvMeTpp3//2b2bJk6a6jK5Bz7Kli1DXTqFjFh6+w3qkJGHU6dO453sZroI1BBOV61YomZ4+5LX1glAeBcmgX1T6Wun/aaVn3UdUm/z2q4989SG67Q/D79hEiCRMKtAiGt2iyzjOpzVf1g0kFabPMyuxCxLO2eXceHVQFpnn9sNB6NH9sVXT1XdiFtYBUhrhYWwImIWtl3lj8o0TtynmjDEBQ42Z9adSdavXemceefthxYSGq/1xj1rGKsb3bzfZzqFAFyHMflHpT81DXGIABlCzF9l1Bshwdr4IAZh0UDC/rFAofecDcSsGVMpS5bMIQn6769dmbQbCjc9ZDnxtvGyNvC+CpB4rTUM6yQEHTXrJBqsTIHF1rXzpc7zlGf+ipOn9yDudvllrAc3bNxMP9Sso5Opfq31c3gFSFPgHk6GDB2ulurR3qB1m/DrGOescly31seBECBhf5mvwDs6Gup3KK8SgPpXO38KkKhL3+PFwrWJGYaHixZ9l6b/NlO/jv5a9qftdq9OD4YDCHKtW7cz7caCdhKmOFGjRrWdyObNxCesfDBkyAiXpa+sbYMhKm4PrQK6VYDHg/4SIK1lBmFb23DMW8A2l3Co91566SV1bPzjLz/GMP1xHGYBErNvYexqddj+p2XLZqb1vtD7rcNLYxjXjQuLAFmrzk+0bt0G5yuNBdN58b+DQAiQkyZNcdk9xLjDwslTJ6lyle9Ngg2iY6w4cW4nVM2Z/Rtl4qED7ew0LtbGRfv1969dxW2dTajfaVy7T18zLk9jl1ajFkE/o3/tylXjRvV566qQGZ2o8Oo1aGQqS3hWBMgQgv4qo94ICf4SILGDAwQlOHzTVvvHkJSRMucwasWhgZgzazolTpxIe3H+Yo/sV/9bSkhfjEgBEusGQigxOqv9snUtVfi1DlH7Uud5yjN/xcnTe5AOTwLkVF4PsUvXHvCqHPJ93Zq/nI0nvvNfWrVVa3tqP/g11h12M/wxXJovXx7jI14d12/YxGRvaBUOIRh9931N00LjVj/e1nVWQd4owBw4cJA+/+JrU5ytS8hgCT10FI3OkwbSnQYcYcBUybozmA7bbvUF3EOnr/8AmFMVcdlmd+u27WpJMh0GfvXqDN58g1hJATOiIUtE47VktcPM8bfzFtKn6tfatppuujnJkdNcPqzLMWEpNQztG503Gkhv2nCrOQB2QKrGE2X1aiYYMRo7eqSpTvOXH2N6/HUcZgESETAOO1kjBLX/G/8Z9a5jQ2njvsXwGxYBslPnbqaeEcKBjVMZnj2GBiMvL8isDXYDIUDazSxHxVeJdws5w4unrly52tmTQ9y0sxZyu4oGfr/+6gvKzgvGHj96XM3O1M/rX7vhVX3Pn7/W5T7sbNKM77POKsTizrBPgbNLq7ERMIaDY+RjsRIfWS8rNri4ghlj6NnqRIAMIeKvMuqNkOAvARITF7AnOJx1ZmtIqkL+YkIBGnqjw/fXqNHP9NabOSn6S9HpOO+nPJPXcYOBv3WoyJvGC2FbG/iwaCDtzHwQNgzxM2bIQEeOHHXRpiAtf/4xz7Tbii91nqc881ecPL0H6fQkQFqXicEzqP8+5FUezrGw9uuEiS72j/BjrDvs6grUPagLMGPXF2cnXEOwyMwaITTug3jlEa2l0+EGwgbSTgMJIQ5DrNBCYeUDdDyszmoDaTV9gHkAhCDjxBMdhp0gru+5s93FLmTYjQwO7S/a4cxsP4gyhu0pYd+qHczbsOQWnKdv0DiCBxni26pVeHJQVnr86LFanNy4KxrCC8vubFa7T2hdGzaoR4l4ofeNGzeaZqbjHXDe2EDCn6c2fNTIYaa9we02ZalT+weCwK+dv/zo8Pz5Gy4BEj0CqGjtNjz3FEmrWt6qMrYuG4Dw7IY9jO8xZnIgBEhUIMVKmBcQNr7f3bG3AqS753EdQxhgFmh37dp1Xh+shOk1WPsRa0C6c3aN3JZNaylWrFg+C5B4h1WAdfde43URIENo+KuMeiMk+EuANA7zhGZvBa0EJtLg2/bGWYVRT42XDtMfAiTCwnp9bdt11MF6/LVqKPGAL3WeN3nmjzh58x5PAiQ0jHkLFPHIxOrBKEDa2XXCf2h7k1vD0+d2Wid9z91vIARIvAsTVDFR1RdnFSAxOckoxOmwrMOn+nolNzbvdrtGhSZw6vCMv8bF8UP7BlEmPuNVR6zKJmNYxmMImNOmTDBe8up4xKgxNGiQd0vZ6QCNsgWu2SlGtF93v3ZtuN12ntby6y8/7uIVnuvhEiDxYgiRHTp1oblzF3gVD/SyWzRvotTTsInQzhsBEn6tvQf9PH6Nmq9ACJB4B3ZXgBGuOwe1e2w2dJ4yZZrTiycBEh8CFt5156D2xnZQSZK85s6L367bre1n1eRYX2an9dILr9p9aMZGwBoWzj01mtAufPF5eZOBvQiQT0n6o4x6IyT4Q4DEGoAFCxd1anes69k9TVXIEWZQ1m/U1GXbR6s/nKOuWcp7z+pdQEJrvIzP+0uARJhYLxfr5npy2MUFQ5l2zts6z5s8Q/jhjZM37/EkQCIedpMZcF07mOxY7autdYfd8CtMG6w7OOkw3f1iofq6P9V3MY0x+se6o0YzrEAJkJ6Wx0H6sJyacRk1qwC5/K+VVL9BY2P01bHdbkC4YVfv2wk88IsRoP4DBjsX/cc1dw5t2wRerP/ll19WXkL7BrGCyFieeW3dwcgubHzbc2ZNc1layM6v9RpmuX9b7QfbkSzt11r2witAgsPA/n1c2nA7kyPrMnH+8qPT5s/fcAuQOjIYkkHmw37BziHDP2VVd53aNV1sk+DfKkBad6LQYULF37VbL8K2Z1YHwQK2IHB2Qo3VSNv4vF1jaN1CCf5h+zESPZjB5kYBavBKlSqyDdM3ai0x4+xB69CzVahCo3nt2jVq1aqdS6HGkFfD+vWcH6AxzoE4Nu4GgvCRLr19obv3YY/dIu8WN92u+OUXbEzdguzsKa2NgOnB/04wmQaaKeOwEcpQqZIfUosWTXitsHOmhaWtw4zevNdukWtMYEDlYXTW3rn1A/fmXd6U7+XLXYdorWXQm3D8UUatk97szBjs4mudRIP8Q5yNzjj5xajNQP66s380Po/0YRhv4MChpkZU+0EDC61HhQrllBZcX7edfDB9CmXLlkV7Ub/WiSv1eWtBhGd01m0BjetAGv3hGHabGAI1Ch/aD5Zlac0zbI32z/qe/vW2zvMmz3SY4YmTN++xW2ja2pFGXKy2kLiG/KtZ4zu1E1G172o6hUiUD+satpjN3bT5LybbeIRhnMiHc28clCHtOnRSwpTRP+zSmjdtwgtj5zJpTY0KC/j3ph6AP2v5MtpA4j4cBOdateuZ6j9cR73aoMFPyvwBw+7azWZb4MyZMupTZUMILRsWqjc668ifvnfr1i3VkdPn+LXTiBvvQxjEO+w0ncirutzWV2SzhJiGbQi9+QZRL4/heLuzy8Te4LVq1nARxoxx83R84cJFNS8DaTA6aP9a8iYRaF+Mk7zQloG9dtY2HGW2Q/vWvAViZ5c5EJjZ3rjhz7ZtOEb8qteo5TTXQDhTJ483Ccb+8qPj7s9fvwmQOlIYVjjP9oCnT5+lS5cvE3Y+SfxqYl4HKr1pRpv2H9bfmzdv0eEjh1VG4x3JkyejNGlSOzdtD2u43j6HhvHffw8rgQ+2nilSpPD20VD9HT9xgv49dJiSJ0tGmTJndLssUqiBBMlN2PwcPnKUjh07xratqdnGJqPJqDpIkhmwZASqjPozwpjtCRMIOGuD7M17YGB+5OhRHvY6Q0mTvqZ2hEElHBkd6sbDvKPOSd6ODh0z2EIaG1dPcQ5EnRfeOHmKszf3ISAfOHiQsI1d1qyZKRUvr+OL01vQgS1cylQplTAVJUoUX4Jx+oXwu3//QV5Y/JFawidRwoTOexF5oPNG13+qPTBMKvEmLtAEH2Ih6TbPYk6aNAnPS8junKhkfN5u9Qs98cXoz+4Y5fIEt1unWLMXL1583l40GSV7PVm42y6MNpzkLSSPHz/B9X5U1cam4nbWl2/GLr76Gjqi0EYeOPivGqXIwWy8DdsqQCJMKEZQFo8eO87f+WHCMlHetOEYut/x9y56+PCBUl7EtVntxF9+dNr99et3AdJfEZNwhIAQCH4CxuHQVq1aOCdLBX/KJYVCIHIQwNDxZ+XNtoeYvNK0ScPIEcFIGAt3AmQkjGpAoyQCZEDxSuBCQAi4I+Cr/aO7cOS6EBACvhE4w9sFwtYcQ7lz5y1wmbhi3A3Jt5BfDN8iQIbkswiQL0Z5l1QKgUhHwGhQD5spvdhwpIuoREgIBBkBTPLs2r2Xbarq/VRH2Rja3pSLioAIkCEFQQRI+SCEgBB4JgQwEQ5LVMCFxf7xmURaXioEgoBAw0bNbNeTxDqRQwb2E1tzD3ksAmQIIBEgPRQUuS0EhEBgCGCS1I2bN1XgsWLGNM2YDswbJVQhIARAwLqaA0YAGvJqA1/wDOfoPk7UeRGJWgVIuxUCXgQuIkC+CLksaRQCQkAICAEh8B8B7OJz6vQpdZY06eu8KkCSCFvBJBgyAfbbT3gWt3aY72/cdlFfD/ZfESCDPYclfUJACAgBISAEhIAQ8DMBESD9DFSCEwJCQAgIASEgBIRAsBMQATLYc1jSJwSEgBAQAkJACAgBPxMQAdLPQCU4ISAEhIAQEAJCQAgEOwERIIM9hyV9QkAICAEhIASEgBDwMwERIP0MVIITAkJACAgBISAEhECwExABMthzWNInBISAEBACQkAICAE/ExAB0s9AJTghIASEgBAQAkJACAQ7AREggz2HJX1CQAgIASEgBISAEPAzAREg/QxUghMCQkAICAEhIASEQLATEAEy2HNY0icEhIAQEAJCQAgIAT8TEAHSz0AlOCEgBISAEBACQkAIBDsBESCDPYclfUJACAgBISAEhIAQ8DMBESD9DFSCEwJCQAgIASEgBIRAsBMQATLYczgSpu/sufN05NhxFbNC+fNS1KhRI2EsJUoRQeDAgUN06epVihsnDuXMkT0iXinveI4ISPl4jjLLT1G9c+cu7dj1jwrtjaxZKEGC+H4KWYLxNwERIL0gikrst9nz6JVXYlOt6t+qXy8eEy9uCCxfuZrmLfhT3e3drQO99NJLbnz697LD4aBfJ02nfw8fppIfvU/vFi7o3xe8gKGF99sYOmIMHTh0mJK89iq1at7oBSQYepJf9DL7opaP+/cf0MVLlyhu3DgUP1680AvJc3g3tHJ96vRZ6tVvkEpVzepV6Y1sWZ/DFL4YUQ6zADlyzAQ6dPioR0rZs2ai76pW8ugvMnvoM3AonThxSkWx4hflqVCBvJE5uipuS/9aRUuWrVTH7xTOT2XLlI40cX5WAuTho8do4JCRikPMmDGoR+d2AWPy8OFDatepBz189Jg1rETtWjaj2LFjuX1fy7adlV+jBzyXkHvfCRImoHRp0lDhgvlZU/eK0Ys61t9i6lQpqF6dGi73A3khvN+GvwWEFavW0qLFy12SHDt2TEr2elL1P1OG9JQ9WxYXP5HxQkSWWaQ/POUwEPz8XT4CEUd/hXnlyhWaM+8POnrsGN28ddsZLL7594sVpXffKUTRo0dzXn+eD0Ir1yJAPj85G2YBsle/wXTq9BmPKc3IlXVEN2oeI2Xx0G/QcDp2/ASVL/sJFX23iOUu0W8zf6d1Gzer6y2bNaSkSV5z8RPZLrTv0pOuXr2mogVhqXunthQlSpRIEc1nJUBeu36DOjCXJ0+eUI7s2eiH778JGI8df/9D4ydOdYb/5edlqUihAs5z60H9Ji2tl2zPv638Fb2d+y3TPf0tolyifEak8/Rt6HS1aNKAhbckLlHzt4CwYNFiQufJk3s7V06q9GV5eunllz159dt9T/WM3Ysisszi/Tq/7OJivGZXDo33vT3W74uo8uFtvCLa37btf9OkaTNU3eTu3cmTJaUfa9WgODadSHfPBOL6n0v/oj8WL6Ns2TJT7erVwvSK0Mr1sxIgYVY1YPAINSKGkbFAu7DUB4GOk6/hh1uAjBcvLn3NWjl3LnHiRJFe4OrUrQ9dunyZyv3vYyr23jsuSYG6/fCRo5SEG+h4ceO63I9sF85fuEhde/YzRav+T7Uofdo0pmvP6uRZCZBI79Vr1/n/NdbopQ6oQD18zHjat++gE3Ga1Kmo0c91nOfWA92Q5sqZg4oXCymDd+/coxs3b9Lfu/bQnn37nY80a/wzpUj2uvP8WQqQoX0bDx7cp6YtQyriFk3qK+2fM9L/HQRSgGzWqB5FixaNHnOH4fbtO3T2zFlasWads2NVvOg79NmnH1ujFLBzT/WMuxdHVJnF+8NTDt3F3931Z1E+3MXlWV5fvXY9zfp9gTMK+P6zZcpESZImodNcZjdt3kq7du9V9xvXr0upU6V0+n0WBzPZnGvN+o2UJUsmqvvDd2GOgrty/awEyH/27KXR4yZFmAAZ1vogzMAD8GC4BchnofXwNwcM29y+c8etAOnv9wU6vPkL/6RlK1ZTWhaS4KBdLVwgH331RblAv9qr8J+lAOlVBMPp6cGDByw4tVehoFMyZ94iddylfSu32gPdcBd9rwiV/98nLjGAAImhari33sxB339byennWQqQzkjYHEADDk043LMQIPv26KQESGPUkDdde/VXQmSiRInYtKCJ8XZAj5+HeiY85dBXeM+ifPgax0D7x4SRVu27KM0jbMF/rPU9pbPp6G9kITJa1GiUL2/uQEfJY/jjJ06jHX/vCrcA6e5Fz0qABOOpv82OMAHyeagP3OWRvh7hAiS0MvcfPqBsWTJTjBgv04WLl+jvf/bQ2XPnKCv3ut7IntU0SQXaNAwHnj9/gVKmTE55cueiBPHdGxVDI3Lw4L9qlu85fgbG+WlYkMqeNbPLbN+jrLK+e/cejRo3UX3Aed5+i2eCvqHYRIsWld58I2RWKCq64ydDbCDfevMNW83Vvfv3ad/+AyysnaLrPFSKuGZMn9YpxGng+leHmYjt29CjfPz4Mcf5BGua9tGNGzcpVYoUlDdPblubNx2Gu982HbupMCC8YNh69tyF9PLLMahnF/th7JMnT9NlngmbmuOMRhVpOcAM9+7dr5ilSZua8nNc3M2WBvMzPLP6JDM6fvwk2/I94jSlYH7ZKGHChC7RtBMgoQFGxQGH2bju3rV33wF6wPaFryZOTClTJHOG/e/hIyrOKE+oiDNmTE9vcV7GihXT6QcHuvyh4wObOKPD0PZOLmvHOB1Xr1xT7HNwGrJkzugiiBifsx5jOGrClOkqHj27tKNmrToQbCI//6wMvfdOYat3de6p4YYnaJXxPVgFH28FyIcsPO3ZH6IVhTYaowdGd/3GDba/OqEuZWXtQswYMYy36QqXkRNcVlCm8B3A6XKMY/1tQLN08tQZOsX/Z89biFv0WZmPKWGiBOo4Pr9XN5JaA6k7or6WPRWg4Y9xCNtOgITXuQv+oL9WrlFP9eranr8N12HsO3fv0r4DB+nokeN0595dSssa5KxcZ6E+sTrr94Pvd/PW7XTmzDl6I0dWSpQggVf1jDVcfe6uzGr2/qxDfC2HbX9pTLv37uP664kaabJ+UzoNV7nsHOeyA5c5YwZV30dU+YhMdbPmoX+nz5hD6zdtUafVq1UJ80oEYHmI68ATXHfFiROH0nCbAjtfd3bXukzpdvgaj8zs5fbr0L9HKD63r1kyZaRs3GYaHdrT6+xv1twFqh6CSUqpjz5wesEzqG/RSdvHE09hr4kJMLpN3rJjJ8V55RUqUfRdVffoOFjrYqMAWbt6NcqUKQPH6zDt5zbp5q2bqu7IxvUT2gCrQ/1/5uw5isHftDX+8Gus43R9hWvnL1yijZu3EOputD3fVqnoDBrtjPVdsFfdx/HByGQMblsxogXe3pgXeCt3OCMQiQ8iXIBs2Ky1EtZ+ql2DtmzbQZu2bHPB07xxfVVRj5swRVVORg8QDurXrUmpWECxOggho1kYPHvugvWWWgqg+reVTep/XVm6eOYLKET9enZWt+wEHuMzmIk6+tcp/OHcN15Wx7ABrcaFEbPpjE6HmTp1SjYB+JyGjhhtMpyGXwh9GPa0sx0zhmU8Ps0fT88+A9Wldq2aUhT+p7VAP9X5gTJlSGf0ro51I17yg+L0OgtVE6f85mKLA/ubhvVqqzgZA8DQCjRs+KCsDgyhKdOCuL6v045zPQtb9/5wDTPd7SY5wG6mXafu8EIVyn1K7xYppOI5fPQ4Fh4Pq+vGP3h/2TKlTGYJuvxBkINApx0a4/5DRhAqUqt7JXZsqla1Ejd86a23bM+HjuSZxRwfDEdjApnusadMkZyaNvzJ9hldFt1pIPGQHha3TgDyVoCEYIPOBRzy+uNSH6pj/ccofH391edUMF8efUv96sYORv2dWZsKZ5eXmFw3eNgodd/uj9EuWpc9sPmgRFGaMHm612XPLmxjGtwJkNpuE3WJna0TZoVjKMvue8aQN4a+jU6noXTJD1S99eukac7b6JDu2r3HeW49MNYz1nv63F2Z1ez9WYf4Wg5hW92qXRc1ghPaTHp0qNA4o06rybbHg4eP1slz+fVn+YhMdbM1oRCsGjQN+Y4goLRhYdxXhzI6jW30wdbqUL4rlP+fy3cMf7pMoU3Ywx0ATD6zOthsw3ZbO13P6HPrb5P6P6p22SgA4vvCc+j4agetPzrBOg7Wutj4/Kcfl6RVPMSPusvqMKKGkTWj0+UMdXbXjq2Nt9TxMraPns920nC6fjDWGeqG5U8ZjsOHXDdpt2LlWvp9Qciokr6GX/CuVYMFXps21uhPf2PGa/rYm/pA+40Mv89MgARsaGUADMAhHOhChnWfUABg/wF/Gfk+ej9o5OFSpUxBTRr8aOJnNMrVflKzv1McxvETJ5VfvKtZo5+dAhlm5N65y7ZR/wmcaBjjxw9Zcwo9mJ9/rKme0xU1TrTAo27wHwhQY8ZP0qesrcrAM2cT8tIk/zrji4/llyb1TMKXDhNxgoP2C2nGsPPJ06edH0wW7n3VrVXdGb6nAxRsFHAw7NC6ufKuJ9Tkz/c2Vf6qgksQugHUeQIPqNDQMzzIPT/kExxmcpco9q46xh+jQIJ0pEieTAnoV65dddr/4ToaGWibtdNpx7nmiXdAUwcO6LVi+QarW7l6rXM4uFvHNqp3jeWAEB4c4oxeJXrA23fuUo0atMpVK33lDMpdpdWz7yBV3uAReQANHJbR2LHzHxWnb77+kjXCuZzhuDtAha7t/qpW+Yry5HpLadD1hJpO7X6xtaPVlUpoAqS2mYHA0Pjnus4o6Ipda/GcN2wOdFmw+4Z69BnAvffz6ikIPtWrVTaFoJ8twIJlJRYw4ezyEloACFH4XmEaAoe8geALBwEB2nE4XfbUyX9/vCl7Rv/GY2NjoBsI431M/OszYKjbcrabte6jxk5Qj0DYKZAvt9LEYpQE6YKzTiDRaQDTk6dCtGwQiOEwc3bz5m1e1TPqAZs/7sqsZu/POiQs5VBPqkDU7SYZQlCCSQe+cQglxdhMIyLKR2Srm61ZC41+hy691GW7jonVv/UcXDEqocsl6vysrAW8znbTGEFCXQpXpeIXLkPfukwZ63zUK7H4GzV2xps2rOcc6fl9/iKlodSTZ/Es6hztoLVDJ8IoAOJbx+gQvqVUrMmDNhi2yXA6DqEJkDpsjJZk4g78tavXCTO4tUMHHR117cIiQG7b+Tf9tWKN0lxqZvr7Rbjvc5unJy5C+7p6zXr1OrTrufndGHHbvHUb3bsXokBqz+0uVs9w57yVO9w9H5muh1uARKNQlLU5dg5aJG2Hp+/rQoNzFK5aLCjoIaQx4yebeuu538pJ31T6Qg0fImP78wwpLQx2bNvCtD7W0FGshWJNIJxVewJhQmsF0DgZe3rGBt/dJBpdUSNsLfDgGIIKNDooOPiYGvxYSw1d4x4+bhhGr1m3AadKWwatmXbGMHENHx9mhsI94qVfevcf5BRse3VtZxI+lSc3f1q376I0mcaPEh8+epiII4bsrLOxdQOIICHE1qv7g3N41yiYW9nB/8I/lrCQcJc+Kf2hehbX4LZu20kTp/6mjjF8qSeG4IIx7UaeWsMFPz27tDcJnbjWu/8Q1UBnSJfWKdxrocYaNzBcv3ETL7mUT6Ubz8Pp8mfkg+HKX9p0UvexNiR67drdvHmL/uEeurWnq+9bfzdv2U6Tp89Ul3UavCljnhpubeCNgI1xx7kvAuTMOfOdZbJP9448zBQdQShtmxZ8cY6ygrzRDpNQWrbrrE6/Z00+BHU4d3mJe8YG3JMNJPz7WvbwjNUZBUhomKNx+h5zBQ+DfQy/ozGDQ73Vunlj08gABBwsvQShFw1jg59qO4cAUf9AKwlbVDRmHdu0cH5Hxu8Hwhzs2FC3GZ03ZcDo33hsV2Zx38ge5/6oQ8JSDvGNtO7QFVFQ2lnrxCQwHzQsROOotVTwG8jyERnrZqTZ6GCOM2LMr+pSWNY7NHaoYRsJ5YCu26EU6T94mFOo6dqhtck0TJcpvBwT/OrwZBht7mOsa94twvVhuaf1Ifx36NpbjTi5m0RjFCDhH7O1q1etbKqHcV3HwVqfWZ//qsJnagkzPAOHYXatwbbW+2ERIENC5dVWZs2ldRs2udR9+j461+hkw0EZg8nDuvMGW9ZuvfsrpYpVaaGfN/6Gpz4whvOsj8MtQIaWAKvqF351oUEF+1Pt6s4Cj3vHTpygfgOH45DsMsG4NEoDnlWs7aiMBU4PG6pADH+Mwkl91iymT5dW3fUmI40VtVHgMV53tz6kFnBQ0Hp0busUlo3PNvy5NttY/b+9M4GxpCjj+INEBRLlWpTLA40GFIKSaIwHQdB1g4JRgYiKQUQCEtEgAsuyyywLe7CAsOFQMRoVBLIKonLsLohyX4JnNJgoeHDsAipLVBIB61cz/8c3NVXd/V7PG2bnfd9mp/t1V1V3/7v6q6++q15l7rYT/WK4Z2jul7/Y2TZE5NURfjDLzzkvFkN7iqAFEURDygDoc0d8JmpJ44+xPxoAGVQXzP3yOEZDkW8G8/yvfvPb4odl29I+AvTx806Ngslbg//kJw8+UKfGDXwWT1aoWXrm6Ad6UGAa7wx5D0VWgIFR8gFDckRumlJC/c8yLTRlvCeolMopnmzwh4GSATPVEiplA64AuGikpIEbQXW/YHaH/h0EmX/888nOPcGf7o4xVw8Eu3khVc+WwXdW1IsAySSLyRaEZhsNN6RBA+2vtM422ptZ+ndCEnZoWfDrlH+k7cf2XVKuFwFhsvqeFSC5hxLlNMp2QCapeerviBA6ctqy2KRNO6PvhxMlPtCEz5TuNddnKWuxnywe0m8//Oo3QtaB4F/Le0xThl0eTKy33XFX9CmW6wP3P8j+YbEpvZOp5M08b0r2HnOa27S8/Q1/PfaE+VHLyMTrtJGTusKMyv3y17/t4AYGvf99e3f2DS4WIvUpxmEmPBKEdP6EkxdG4TPHV3sRILHqLQyTLbIhpKR7sLyYMnY8x3qELJASk3Qm6xAaTaxf0CAFSCmpeKaRk0+ckJNTyoN08h1vLPnThh8kTb2gP1sLkHQ8HEhzhDlOmgqdL3UazpM8FQ0alJpLOWYFJKu6xglZwpad4VJHhI8eHR/CnwHhFmryIu2HbgdJCVZggDYn/QhpH8YJA4WsD2KpzVgw/Lk/zLLOH/MTsgO9zue2aDxJCZFqGq0wlxPMNQCWfJismfic5aePE/rT+yAoCSdhXA6uXf3TiK/VGFK+6tllRoUhyNRBHYuj1cjKv5AymIvnvH+fCQM/50Sl/idBlHJzZu8TteolB3S1lW4xz5wQzPBQKojaVB0w1DQQTAN32qb9Tf86MviHMvO31IsAiWb2SyfOj9XRCqMdhjTB4r5/F8y4+AHaCaAYdmomr3qXvQgIk9H3eA4rQKKV2XijjTkc0/jgLC8TM8f4FpiMaHBjsGXQLQn51EFLC884/NOf7Pr26vvJCU/UgZrwmdGSE/+W+mwV9rTSDw/ptx/aicnRwb/d+gtLGMH9xS5oMMj+Md1488S32umsCvkUr1l1fTyVm7Dk6uiYNX/b71Tn2cL3T5x/ahQEU//rUp9Sfbn0pHyY870IkKkiQO2zLd2DFSBLmln4E98ddOghB3fesvtucX+QAqT6seWb8aJjf4jBwM0IsmPU2Olxmzb8YFxDL/CP1gJkOqDUPU+p01CPKNHjThqJTeQESPuCrLnm+1eGvFS33hHrWQEvHjB/xBwxjR96yGiUVZMXWWLU8kmrwsBqVQ8+6COdt4e1n6FSm7pdounw1YLItZUKDSpntxKC0E5herB0w09viqY5hEsig62wqwGwNIivvuFn0VRNewQW2bocw+SHczIaYvmpclyU+ttVPTuatksv/0GsShDQVmNR3PiN4PuSzoiZdJxx9oquzygVmVUjBOacmUv9D6F3xQUXdf2GaAdfv9nv3WtCBB7ncnT7nfd0Llt5RTy157vfMU5IxBVAvjP7fWBO573v2XNcE+qb4w6GHwglRNnuFnwSGYCl+bPlehEgqScsCc5CkwadEjRrBBChdfx9MK3haI77CYFTkCL7UyGg6l1OhoBQ1/fizZk/VoDM+UAi5FNG/GKfvfbs7D+m8dX3THNodXIkn05SLTFBhuq+H8o04TOUy1Gpz1ZhTzv98JB++yHCioJpLH+195Bq2QbZP/Qupwtvzr3Xe+/7Vefbl4xq9Y/8zKGRt+XK5Y7JYsC5UtAh52T5oD/boJJSn6IOlOMRo2d6EyBLAiBtle6hiQBpZQECbQjAgwYlQNrvl/Fv0002idezf5559pmuy4C1UNgy2rftlVznVHY6b2eEAEl+PHyTeLGKnM6BLu0BzrhEgUNNXmSJUau9VMNmrz2uoxvBodSm6lrG20SAtOXVRmmbMpy6AbBqEEdtf2kQmuR8jGPxLiHtzY4hSn719TdGgbIXAdIG08zeZ6/gWzm7w7qwx88biY9j/e/0fEw8br7tzq7GU8e57tHBTCvfHo6XmBbn0FCtWnNj5/ag0dbzcBxT+oEhGlH+RRzLEasYsJpBHeUGNQ3cmHMUYML16q7JtXoVIG0UITPl/wQf3gWnLu1qrgleo03orKWLYgDI/IVL4u9jgn/s6167U9znT1U/HqSA0L2BZKdOgFRxDax20qTvWWWqttYsWvf90E4TPlO6XqnPVmFPW5YnNOEh1GnTD6VRgw+fEdx1WOWHNE4/v+nWCamnuNYg+4fe5XTgzTxrjkj/dOa558dTVSm+cnXxrcefGapKLk6AJzinY2OpT+la012AtBZFskmQVQIalABJoNLpy84WPLXbkaD8yKWwU8U2/EBtTIftjBAgbWDAkkUhOnfTTSdgi0DARwOR/kUBLU1eZIlRa5aLxm9k3vETrskBa0b67GGfCkvo7RzLldpUI70yf60OAKNI0+aoTWat4GA1BJyrGwBLAuSfgkbw3KAZhBiI0Qrb6DUFvfQiQNKWzKkEKyxaMLejmTrPtnzxwgm+J9SByKVJOotrVl/f1YT2arqhHbRMtwSBdE3QvCLQQmgM0RyWCCfquQtGA3EwgW4z6/noRNVZu25tNzAqZTAauKuisNVOuu1VgLTMEM3Hk0+t73wvaH3lFI82SVGzmCPXhxQaMGbwT101qvrxIAWEFAP9bipAXnPdms6qMMGBlAtS37PVvKrdqm3d90PdJnymdI3SYF+FPW31ykOo06YfWhck+a5Jc20Hea4DDbJ/6F1OB948+rQT/+Lug4kZypmKJ9Z4/ojNFmBNuM+XGN2TKToNNin1KdWf7gKkNWFbpYIESCw3y047RY/T3ebS+OhkVRCNtY7iS4pPaRtqww/aXHey684IAdLOxqxvkgXLLt5uTcn2RabRwqpfYtTSfFIujXJTXTtQIWQq+KHUpur1wvytr0spBQ7tEvFH5B+CAKZ++X7VDYAlAZKs/eRvxCy+eOFJIUBoNE2LnqFfAZIIwqUhog0ijcSqNTfEwYYodYTUOkKQ/EaYefOskF0Bpo5x2ratedymRbJltE/0HgwIKvkzkaZKS0yiWUXDKmozcPcqQHJN+fNwDySRR/C2WhD1bUy8//nvf6MPak6bU9WPrYBgA3L0zGz77Xu2DbvfVIDUQMO3gKkbTa+emf5MIAiJkJtQ3TPQRhM+U7pWqc9WYU9bvfAQXbtNP6QN5SolOAv/NwQ5KJfaZJD9Q++Sa7+QvJnrV5E0hJSxgY9VdThnJ4G5SGnK0OdOOHlRVmlQ6lPUgxoJkCFlHUGZKTUxQVOndA9N6mu1NdqxrhG4P+EGxXeds0auCa5W8AgodXGRAFmq20SrHRtu8KcNP2jQ/JQVmREC5FPBD47loCD8uohyTU1/Z6+4sJsCiDQ+zMgghC8lc80FmFCmxKgtA8Tn7aMf+iDFu4TplftCi5X6oJTaVOVemL/VBCr3oNqxW4QEBk7ICtp1A2BJgJQZUJpCey0+kNPPOCf61fWqgaQdBdNg0r0lrLuK5jRnhsNvD+EuJRuBaNcBLzGtUjvShtL+uWeOpipJr8Xvs1Zc0PnLX/42Lv9mrpw0MqlGoM3A3Y8AKQEKf9FHH300BrBZwVdBS2hG6L8MWDm/5Kp+bBOK53LRgU+/fS+HLceaCJCY6Jnc0KfsGuX2e67TONvr1z0DZZvwGdum3S/12Srsqd8LD9H12vRD2rDBNAQrMmCXgpIG2T/su5xK3szklRyM24fvJg2UE8Z2axd+gI+SIURjky0HVlde9ZPOUUcc1l2dTFpWBB4sNekqKNeuvqFzXfgPkbcVn25RqU/pfJUAKX5jFxRQPbZNBEDKle7B1rfaRepAdlxF00hOYDCAbE7S1MqDO9mys86LgjVlcc+xk0TLO8CT92FJAibH0kAxW67JfhN+gFXrzw8+GH35U+UM/JisEASrpbIO8sBLgo/mDttt2+RWWpVpLUDSiY4KfmYlesmLXzTugyh1GupbNXFusLL+hDaIhrqaebCPKY5kvwhtmAkwz2k1iL32fFfXx4yykLQxlD/2C0fF++Ve8OGBSoyaTrBw8fKuuXROUGu/L2h0yK3HvZ7/tW91V2hJnaRLbcYLhj+9MH9pAqlbFf1lfQltoui6AbAkQNol4ezzoe391rcv6a6skwqQNweBEJM7lObzjAfDH1Yo4r2J0shyjvMRLQnrGrMU5Cc+dkA3+pp3/vWgbZU/osUk1//uvue+zsWXrYy5xvYPZmr5TBLpuGT5ishwUoFP98XWTmBKEXoqbxPR2olMm4FbDD3nW6nrplubEotzqckHgZrAGku5dFJV/dhGiiKokpgc9xL7bfXb9+x92X07CKB54lt8LvwbTYn0r5gYHm0xwiN05OEheGFsybb0e0b7Sn5TaeoJhLo2mL732OPN3fRHtFH3DJSB6vjMaKmJf3N9llJV2HO+Fx5CeahNP6Q+GCqYht9QmpFg9GgnLo2pRNqT3T/SdzlVvBk/OfhSSajTs9utVkbiGHzuwyETAhpcAghJ2s23qqU3wenzR43679v8xgg7aANRoJBp4ee33NohewaUU6qU+lSsEP5UCZCKcKes0sIhOCPI8NxWAGwbREN7+ISTgJ7vMB1X5Sqh+7YTBxb1OPzQQ+J9/eH+P4ZVrlZ2hUfKpwKkzeaCZYZATK7/v5BHlvfCcpwjY4nf+f3xEBSrBOO0x/d2Xcg8grCeCvOcT6mKH9gxJXVvsO4LaVCjMrFwrZzCJb2Htr9bC5B1N8ALsKrkqo7bRoDkozk7aIHQLoh4yfJh4xgf0pe+cHTsDCrDVqu36BiCJH5wMn1WMWo6FZo2e530ugRhYM6xVNUm5Zoyfxil8i1a5mKvZfelNeS94PvFAFs3AJYESBthzjUQQlgTV1jwmyTrqQBJih8EPwisWFUozXPJR4sfngZ68iOydJUla47gOLO0LTZ/aWTgKpfmGMv1P+VuVB2YMfggRIms/6qOaWtT9JTSSKmszcnJoMbyd1CbgbsfAdJOJrj+7rvtGpedZF8kbSm/wRZBPKW6fixNsurRzmabbdJdJanfvqf20q0VINNz6W+WaWNgskQWgcXLzx030BAY9nQw4ysCO51M1D2D2q/jMyqXbnN9ljJ12DflIfZ6bfqh2sG3FNcdkfioftvtIPvHVPNmuzIXz2gnJ/aZc/tWiMyd5xjuT+ROthpKBSmpDnxLPJNjfG+55XBLfUrtVAmQVstMefF5KXUmU4DU/bBNx1UmfmBsiWc/eWRx91u159hneVbl1E0FSBaUYPIj/LgegvHbQh5jFieBbPJ3foM3gj4BmBr3Si4FlLdUxQ/IqYpSQ2QXfZD1iHPINMqkwW8tJMJ+TlnG8cmkvgVImeya3Iw1/R0395QINOvJpisW2Bx1uVmr1UDmVNsIHUQCXn/jTd1OwP3xkjGnaEaR3jPmVnzm7BJOlJEEzyourOYCpZ2OYzCOlVdcFf30+C3iw/p4yDOX5sLkfF2bTZm/FeLSjP26D7u1wo6isZUgNe2MqlcSIDlPYA4zUn10HEMTxiyMVYOuuOrqcelgOA+JQbGfmlc4BlnNKulkCG5IiXd29XWru+4JOs87ZxaJszP7olz/QwgnaIYBOU1DxGTiwI/uHwOP1Ea6lVDO+845btvyVuC3GsM2A7e+RduevWZp3w7e6epN1LFa/VKC/rp+jDbm/JCvzQrjvI9lp82Pg1ubvpd7LutznJ7n/WwdhMGd3/D6DjP3kpbgyfXr4/eeW18Y68b++87pLu/GNeqeQfdRx2dULt3m+ixl6rBvykPs9dr0Q7Vjg2nqApIG3T+mkjfzbS9YtDSOBwgfSxbO61qxhE3VFu0ZQR5abU1l4UG7vWmXGPgpq5jOsaWf/uCHP54gNO36xl2iZSaXz7bUp9Su+HNpTGAFMsYFS0qJZVds0Rhqy2m/dA8SQMHwxOOOiamOcA8SwT+YeMPfc8T1z7vwonF4IHwffMCHOy9/+ayuFjE3lufGszQQk3zUl33/ynE5ZbkP7ouVz+bM3ju7XG16r1X8YOtZW4Wo76/EcTX9huwqb2lAz8WXruzc/Yv74qWs61Z67cn63bcAOVk3MIh2+JAfD4nD1659rDNr1tYhInbrCX4CuetioiLQgfVAt99uu3H+Ebny6TFmKw+Hzrv+qadiVF3qQ5GWnym/0Rz//ZFHwsTgmc6rX7l9FAyaPBuDB5jvGNZIzUXOY8LGlA0DtTnMcm2zUs0ja9cGTdHTMX0C79z6t+Tq5I5hdl237olgi3u2s01gNltusUWjvpNry4+NIsD3uO6xxzuPP/5ESOeyZXQ1SP12piNWfM+PBh7yr6CJ3mLLzeN9y5zd5n7b8pk2156KunZpQxuwWLr2VPSPqeLN5Bl9MAg7O716x8Z8MMWFyRbfy7PPPhd8Kbft+jym5dLfTHwefuiRoOHfLNabjL6aXsP+xlXooYdHLX47hLXfczlqbfk2+/gD/jWYiF+2+cuitaqOf9Cn4vgSLArbh3vD1a4poYhiHMft5RXbvqLoy4oAiLDKmNNmrCjxA5QZjEev3ek1E8YghNiNg0kf/2JLKHLIaYzVpGo9blunzf6MFCDbAOJ1pwcCfFSnhNk8xEyTqGUnR8ARmP4IKPDMapqn/137HToCjkCvCLgA2StiXn7gCDB7vOib343J4bkY6+f2MoMc+A36BRwBRyCLgDVf5ny/s5X8oCPgCGyQCLgAuUG+tpl50/iuPhHMnH964IFuwu00X+LMfHJ/Kkdgw0UAa8EPf3RNMKltFKPcMaMRvLFw/vFZ15QN90n9zh0BR8Ai4AKkRcP3X1AEtJa3boK8ZfhQ1fm7qLxvHQFHYOoRsOvXc3WClVhClPRaTo6AIzBzEXABcua+2w3uydBArgtBTJsHR+mdQ7QrzsNOjoAjML0RYE3nu+69r/NMSKVGQBxLpSqX6vS+c787R8ARaIOAC5Bt0PO6joAj4Ag4Ao6AI+AIDCECLkAO4Uv3R3YEHAFHwBFwBBwBR6ANAi5AtkHP6zoCjoAj4Ag4Ao6AIzCECLgAOYQv3R/ZEXAEHAFHwBFwBByBNgi4ANkGPa/rCDgCjoAj4Ag4Ao7AECLgAuQQvnR/ZEfAEXAEHAFHwBFwBNog4AJkG/S8riPgCDgCjoAj4Ag4AkOIgAuQQ/jS/ZEdAUfAEXAEHAFHwBFog4ALkG3Q87qOgCPgCDgCjoAj4AgMIQIuQA7hS/dHdgQcAUfAEXAEHAFHoA0CLkC2Qc/rOgKOgCPgCDgCjoAjMIQIuAA5hC/dH9kRcAQcAUfAEXAEHIE2CLgA2QY9r+sIOAKOgCPgCDgCjsAQIrDRc4GG8Ln9kR0BR8ARcAQcAUfAEXAE+kTABcg+gfNqjoAj4Ag4Ao6AI+AIDCsCLkAO65v353YEHAFHwBFwBBwBR6BPBFyA7BM4r+YIOAKOgCPgCDgCjsCwIvB/5tmqGVq5MEAAAAAASUVORK5CYII=;imageBorder=default;" parent="1" vertex="1">
                    <mxGeometry x="840" y="560" width="199.9" height="142" as="geometry"/>
                </mxCell>
                <mxCell id="-v6juzuHhqZbyULrmQ3K-48" value="" style="endArrow=classic;html=1;rounded=0;strokeWidth=5;fontSize=21;entryX=1;entryY=0.5;entryDx=0;entryDy=0;" parent="1" target="-v6juzuHhqZbyULrmQ3K-3" edge="1">
                    <mxGeometry width="50" height="50" relative="1" as="geometry">
                        <mxPoint x="760" y="520" as="sourcePoint"/>
                        <mxPoint x="750" y="540" as="targetPoint"/>
                    </mxGeometry>
                </mxCell>
                <mxCell id="-v6juzuHhqZbyULrmQ3K-49" value="" style="endArrow=classic;html=1;rounded=0;strokeWidth=5;fontSize=21;entryX=0;entryY=0.5;entryDx=0;entryDy=0;" parent="1" target="-v6juzuHhqZbyULrmQ3K-32" edge="1">
                    <mxGeometry width="50" height="50" relative="1" as="geometry">
                        <mxPoint x="760" y="520" as="sourcePoint"/>
                        <mxPoint x="790" y="200" as="targetPoint"/>
                        <Array as="points">
                            <mxPoint x="760" y="140"/>
                        </Array>
                    </mxGeometry>
                </mxCell>
                <mxCell id="-v6juzuHhqZbyULrmQ3K-50" value="" style="endArrow=classic;html=1;rounded=0;strokeWidth=5;fontSize=21;entryX=0;entryY=0.5;entryDx=0;entryDy=0;" parent="1" target="-v6juzuHhqZbyULrmQ3K-38" edge="1">
                    <mxGeometry width="50" height="50" relative="1" as="geometry">
                        <mxPoint x="760" y="520" as="sourcePoint"/>
                        <mxPoint x="800" y="540" as="targetPoint"/>
                        <Array as="points">
                            <mxPoint x="760" y="380"/>
                        </Array>
                    </mxGeometry>
                </mxCell>
                <mxCell id="-v6juzuHhqZbyULrmQ3K-51" value="" style="endArrow=classic;html=1;rounded=0;strokeWidth=5;fontSize=21;entryX=0;entryY=0.5;entryDx=0;entryDy=0;" parent="1" target="-v6juzuHhqZbyULrmQ3K-44" edge="1">
                    <mxGeometry width="50" height="50" relative="1" as="geometry">
                        <mxPoint x="760" y="510" as="sourcePoint"/>
                        <mxPoint x="740" y="640" as="targetPoint"/>
                        <Array as="points">
                            <mxPoint x="760" y="631"/>
                        </Array>
                    </mxGeometry>
                </mxCell>
                <mxCell id="-v6juzuHhqZbyULrmQ3K-53" value="&lt;font style=&quot;font-size: 28px;&quot;&gt;&lt;b&gt;バックエンド&lt;/b&gt;&lt;/font&gt;" style="rounded=0;whiteSpace=wrap;html=1;dashed=1;strokeWidth=4;fontSize=21;fillColor=none;strokeColor=none;" parent="1" vertex="1">
                    <mxGeometry x="470" y="60" width="180" height="90" as="geometry"/>
                </mxCell>
                <mxCell id="3" value="" style="shape=cross;whiteSpace=wrap;html=1;rotation=45;fillColor=#990000;size=0.10443752883343223;" parent="1" vertex="1">
                    <mxGeometry x="845" y="90" width="110" height="110" as="geometry"/>
                </mxCell>
            </root>
        </mxGraphModel>
    </diagram>
</mxfile>